<svg width="317" height="30" viewBox="0 0 317 30" fill="none" xmlns="http://www.w3.org/2000/svg">
<path d="M297.954 19.0622C297.521 19.0804 297.083 19.0929 296.658 19.1201C296.382 19.1372 296.264 19.0872 296.08 19.061C296.018 19.0519 295.952 19.0337 295.896 19.036C295.466 19.0542 295.037 19.0747 294.608 19.0951C294.476 19.1395 294.393 19.1986 294.192 19.2202C293.995 19.2406 293.762 19.2406 293.543 19.2509C293.254 19.2634 292.965 19.2759 292.676 19.2873C292.532 19.2929 292.413 19.3145 292.365 19.3555C292.356 19.3623 292.453 19.3793 292.505 19.3896C292.68 19.4237 292.851 19.4623 293.044 19.4885C293.228 19.5135 293.456 19.4725 293.653 19.5044C294.095 19.576 294.1 19.5749 294.437 19.5612C294.726 19.5487 295.015 19.5351 295.304 19.526C295.361 19.5237 295.427 19.5408 295.488 19.5498C295.672 19.5749 295.79 19.6317 296.062 19.6101C296.268 19.593 296.496 19.5896 296.71 19.5805C296.89 19.6135 297.056 19.651 297.249 19.6772C297.429 19.7022 297.481 19.7215 297.385 19.7545C297.297 19.7852 297.175 19.7977 297.013 19.7999C296.868 19.8011 296.723 19.8113 296.579 19.817C296.504 19.8204 296.434 19.8227 296.364 19.8261C296.088 19.8386 296.088 19.8386 295.585 19.7658C295.387 19.7374 295.164 19.7772 294.976 19.7499C294.849 19.7317 294.739 19.7045 294.617 19.6851C294.564 19.6772 294.481 19.676 294.415 19.6783C294.196 19.6863 293.977 19.6919 293.767 19.7067C293.618 19.717 293.53 19.7488 293.548 19.7806C293.552 19.7931 293.657 19.8113 293.719 19.8124C293.859 19.8147 294.008 19.7988 294.143 19.8068C294.275 19.8147 294.411 19.8374 294.507 19.8625C294.704 19.9148 294.927 19.8681 295.116 19.8818C295.313 19.8966 295.475 19.942 295.663 19.9693C295.712 19.9761 295.804 19.9648 295.878 19.9614C296.093 19.9534 296.307 19.9466 296.522 19.9386C296.702 19.9716 296.894 20.0012 297.056 20.0387C297.35 20.1069 297.665 20.133 298.046 20.1C298.261 20.0819 298.471 20.0887 298.642 20.133C298.817 20.1785 299.019 20.1739 299.242 20.1648C299.448 20.1557 299.658 20.1307 299.869 20.1626C300.324 20.233 300.328 20.2365 300.867 20.2092C301.029 20.2012 301.152 20.1989 301.275 20.2251C301.389 20.249 301.511 20.2694 301.629 20.2922C301.844 20.2842 302.063 20.2762 302.278 20.2672C302.554 20.2547 302.707 20.2706 302.773 20.3342C302.812 20.3729 302.83 20.4081 302.926 20.4343C303.04 20.4661 303.162 20.4649 303.329 20.4559C303.487 20.4479 303.601 20.4354 303.666 20.3945C303.693 20.3774 303.745 20.3615 303.793 20.3479C303.833 20.3376 303.894 20.3217 303.929 20.324C303.995 20.3285 304.082 20.341 304.104 20.3558C304.319 20.4934 304.319 20.4945 304.538 20.5343C304.779 20.5786 305.029 20.6184 305.248 20.6684C305.445 20.7128 305.642 20.6934 305.856 20.6934C306.018 20.6934 306.124 20.723 306.111 20.7526C306.102 20.7696 306.04 20.7946 305.988 20.7969C305.559 20.8196 305.125 20.8389 304.691 20.8549C304.639 20.8571 304.573 20.8367 304.512 20.8264C304.389 20.806 304.28 20.7741 304.148 20.7673C304.017 20.7605 303.863 20.7776 303.719 20.7832C303.574 20.7889 303.421 20.8037 303.29 20.7946C303.158 20.7855 303.053 20.7526 302.93 20.731C302.873 20.7207 302.795 20.706 302.746 20.7094C302.427 20.7366 302.19 20.6991 301.962 20.6491C301.914 20.6389 301.831 20.6321 301.77 20.6343C301.262 20.6537 300.758 20.6764 300.25 20.698C300.044 20.7071 299.877 20.6673 299.833 20.6002C299.812 20.5627 299.768 20.5252 299.768 20.4877C299.768 20.4195 299.527 20.382 299.352 20.3899C299.063 20.4013 298.769 20.4104 298.484 20.4274C298.252 20.4411 298.055 20.4274 297.897 20.3865C297.713 20.3399 297.503 20.349 297.293 20.3615C297.135 20.3706 297.091 20.4081 297.1 20.5025C297.109 20.5786 297.034 20.6025 296.75 20.615C296.391 20.6309 296.027 20.6468 295.663 20.6593C295.606 20.6616 295.541 20.6423 295.484 20.6321C295.361 20.6116 295.252 20.5786 295.12 20.5718C294.989 20.5638 294.836 20.5809 294.691 20.5877C294.546 20.5934 294.393 20.6093 294.262 20.6014C294.13 20.5934 294.021 20.5593 293.902 20.5377C293.846 20.5275 293.775 20.5127 293.719 20.515C293.429 20.5241 293.14 20.5377 292.851 20.5502C292.527 20.5639 292.527 20.5639 292.067 20.4934C291.857 20.4615 291.647 20.4866 291.441 20.4956C291.222 20.5047 291.016 20.5093 290.845 20.4638C290.731 20.4343 290.604 20.4161 290.468 20.4218C290.105 20.4354 289.746 20.4524 289.382 20.4661C289.321 20.4684 289.238 20.4627 289.189 20.4525C288.957 20.4047 288.729 20.3672 288.405 20.3911C288.125 20.4115 287.823 20.4127 287.542 20.432C287.389 20.4422 287.319 20.4786 287.35 20.507C287.367 20.5218 287.459 20.5388 287.52 20.5388C287.661 20.54 287.814 20.5229 287.945 20.5297C288.217 20.5434 288.353 20.6389 288.707 20.6127C288.918 20.5968 289.137 20.5911 289.356 20.5866C289.413 20.5854 289.474 20.607 289.535 20.6184C289.711 20.6491 289.864 20.6889 290.118 20.6684C290.328 20.6525 290.552 20.648 290.766 20.6389C291.108 20.6241 291.108 20.6252 291.55 20.6946C291.761 20.7276 291.971 20.7014 292.177 20.6934C292.33 20.6878 292.475 20.6764 292.597 20.6923C292.786 20.7162 292.921 20.7707 293.153 20.7673C293.372 20.7639 293.587 20.748 293.806 20.7423C293.942 20.7389 294.069 20.7571 294.179 20.7878C294.292 20.8185 294.415 20.8321 294.564 20.8253C294.779 20.8162 294.998 20.8048 295.217 20.7992C295.278 20.798 295.348 20.8083 295.405 20.8174C295.528 20.8378 295.646 20.8617 295.764 20.8833C295.979 20.8765 296.198 20.8742 296.408 20.8605C296.57 20.8503 296.684 20.8549 296.815 20.8776C296.982 20.9083 297.118 20.9629 297.389 20.9367C297.525 20.9242 297.683 20.9276 297.819 20.9162C297.985 20.9015 298.099 20.9072 298.217 20.9413C298.441 21.0061 298.721 21.0072 299.01 20.9822C299.325 20.9549 299.562 20.9867 299.799 21.0368C300.048 21.089 300.048 21.0879 300.241 21.2141C300.298 21.2505 300.46 21.2675 300.596 21.2607C300.823 21.2493 301.021 21.255 301.187 21.2982C301.362 21.3448 301.572 21.3391 301.787 21.3266C302.072 21.3096 302.357 21.2948 302.589 21.3607C302.703 21.3926 302.825 21.4005 302.979 21.3925C303.412 21.3721 303.85 21.3596 304.275 21.3346C304.534 21.3187 304.682 21.355 304.858 21.3857C305.094 21.4278 305.353 21.4653 305.353 21.5551C305.353 21.5699 305.414 21.5869 305.467 21.5983C305.58 21.6222 305.703 21.6426 305.821 21.6654C305.997 21.6995 306.167 21.7279 306.408 21.7097C306.619 21.6949 306.842 21.6904 307.057 21.6802C307.271 21.6699 307.468 21.6642 307.661 21.7074C307.885 21.7563 308.121 21.8029 308.375 21.8393C308.555 21.8655 308.791 21.8211 308.984 21.8564C309.102 21.878 309.216 21.903 309.343 21.9212C309.396 21.9291 309.479 21.9234 309.549 21.9212C309.694 21.9166 309.843 21.9132 309.983 21.9018C310.145 21.8893 310.267 21.8916 310.39 21.9178C310.504 21.9416 310.618 21.9746 310.749 21.9814C310.946 21.9916 311.165 21.9462 311.363 21.9985C311.463 22.0246 311.59 22.0496 311.722 22.0576C311.853 22.0655 312.006 22.0485 312.147 22.0496C312.208 22.0496 312.282 22.0678 312.317 22.0826C312.339 22.0905 312.309 22.1121 312.278 22.1235C312.239 22.1371 312.182 22.1553 312.125 22.1576C311.691 22.1781 311.257 22.1951 310.824 22.2144C310.565 22.2258 310.565 22.2258 310.044 22.1542C309.921 22.1371 309.786 22.1405 309.632 22.1485C309.426 22.1587 309.216 22.1781 309.002 22.1576C308.721 22.0803 308.375 22.0735 308.007 22.103C307.854 22.1155 307.714 22.1155 307.6 22.0939C307.359 22.0507 307.105 22.011 306.89 21.9598C306.724 21.92 306.645 21.9166 306.575 21.9712C306.553 21.9882 306.531 22.0064 306.535 22.0223C306.562 22.0792 306.61 22.1349 306.636 22.1917C306.645 22.2076 306.61 22.2258 306.588 22.2429C306.518 22.2906 306.426 22.2872 306.273 22.2474C306.119 22.2076 305.935 22.1815 305.69 22.1997C305.48 22.2156 305.252 22.2133 305.042 22.2304C304.718 22.2554 304.49 22.219 304.258 22.1701C304.209 22.1599 304.126 22.1542 304.065 22.1565C303.412 22.1826 302.764 22.2122 302.111 22.2383C301.971 22.244 301.844 22.2269 301.735 22.1963C301.621 22.1656 301.494 22.1496 301.353 22.1553C300.775 22.1792 300.197 22.2008 299.619 22.2304C299.382 22.2429 299.194 22.2281 299.032 22.1883C298.909 22.1587 298.795 22.1496 298.642 22.1531C298.476 22.1565 298.357 22.1678 298.274 22.2008C298.195 22.2326 298.252 22.252 298.427 22.277C298.616 22.3042 298.791 22.3395 298.971 22.3713C299.115 22.3668 299.26 22.3577 299.4 22.3588C299.461 22.3588 299.518 22.3793 299.579 22.3906C299.755 22.4236 299.917 22.4566 300.166 22.4384C300.377 22.4225 300.6 22.4191 300.815 22.4088C301.113 22.3963 301.113 22.3963 301.594 22.4679C301.717 22.4861 301.848 22.485 302.006 22.4748C302.142 22.4668 302.282 22.4827 302.378 22.5168C302.418 22.5305 302.405 22.5532 302.322 22.6282C302.322 22.6839 302.413 22.6589 302.444 22.6225C302.492 22.5703 302.4 22.5532 302.225 22.5816C302.102 22.6021 302.041 22.6316 302.072 22.6555C302.089 22.668 302.173 22.6839 302.322 22.6282C302.707 22.56 303.001 22.5521 303.281 22.5339C303.447 22.5236 303.552 22.5282 303.684 22.5577C303.841 22.593 303.999 22.6305 304.258 22.6123C304.538 22.5919 304.836 22.5896 305.121 22.5725C305.383 22.5566 305.519 22.6066 305.686 22.6362C305.887 22.6714 306.11 22.6316 306.294 22.6521C306.487 22.6726 306.623 22.7226 306.846 22.7317C307.171 22.701 307.376 22.7578 307.622 22.7953C307.814 22.8238 308.042 22.7987 308.248 22.7862C308.48 22.7726 308.673 22.7851 308.835 22.826C309.019 22.8726 309.225 22.8624 309.435 22.8522C309.926 22.8294 309.943 22.826 310.228 22.8885C310.434 22.934 310.631 22.9136 310.837 22.9079C311.016 22.9386 311.192 22.9715 311.38 22.9988C311.428 23.0056 311.52 22.9943 311.595 22.9909C311.809 22.9818 312.028 22.9727 312.243 22.9636C312.388 22.9579 312.541 22.9408 312.672 22.9477C312.804 22.9556 312.913 22.9886 313.031 23.0102C313.15 23.0318 313.272 23.0534 313.386 23.0761C313.561 23.1102 313.728 23.1386 313.973 23.1216C314.183 23.1068 314.402 23.1023 314.621 23.092C314.897 23.0795 314.889 23.0829 315.401 23.1511C315.677 23.1887 315.962 23.1432 316.242 23.1386C316.382 23.1364 316.518 23.1489 316.615 23.1818C316.654 23.1955 316.641 23.2182 316.654 23.2375C315.931 23.2682 315.204 23.2944 314.49 23.3319C314.214 23.3467 314.07 23.3057 313.921 23.2716C313.675 23.2171 313.351 23.2966 313.119 23.2262C312.979 23.1841 312.777 23.1602 312.536 23.1807C312.396 23.1921 312.247 23.1909 312.103 23.2012C311.735 23.2262 311.398 23.2273 311.104 23.1489C311.003 23.1216 310.859 23.1068 310.754 23.0807C310.631 23.0522 310.513 23.0363 310.368 23.042C309.715 23.0693 309.067 23.0966 308.419 23.1261C308.362 23.1284 308.305 23.1455 308.257 23.158C308.134 23.1898 308.174 23.2148 308.371 23.2353C308.436 23.2421 308.489 23.2569 308.55 23.2682C308.669 23.2898 308.778 23.3239 308.91 23.3319C309.041 23.3398 309.194 23.3239 309.339 23.3182C309.483 23.3126 309.637 23.2955 309.768 23.3023C309.9 23.3103 310.009 23.3433 310.132 23.3637C310.189 23.374 310.259 23.391 310.316 23.3899C310.605 23.383 310.889 23.3705 311.179 23.3603C311.358 23.391 311.511 23.4353 311.726 23.4456C311.862 23.4524 312.006 23.4399 312.147 23.4422C312.208 23.4433 312.287 23.4603 312.317 23.4751C312.335 23.4842 312.278 23.507 312.234 23.5183C312.068 23.5615 311.84 23.5536 311.634 23.5672C311.411 23.582 311.209 23.5774 311.038 23.5331C310.924 23.5035 310.797 23.4876 310.657 23.4933C310.294 23.5081 309.934 23.5251 309.571 23.5377C309.51 23.5399 309.435 23.5297 309.378 23.5217C308.918 23.4524 308.918 23.4501 308.594 23.4649C308.117 23.4865 308.117 23.4865 307.797 23.4262C307.736 23.4149 307.67 23.3933 307.617 23.3944C307.109 23.4126 306.605 23.4308 306.102 23.4569C305.935 23.4649 305.821 23.4649 305.699 23.4353C305.594 23.4103 305.471 23.3819 305.34 23.3751C305.204 23.3683 305.055 23.3853 304.91 23.391C304.766 23.3967 304.612 23.4115 304.485 23.4024C304.354 23.3933 304.24 23.3615 304.126 23.3387C304.008 23.3148 303.881 23.316 303.719 23.3251C303.219 23.3512 303.215 23.3478 302.72 23.2773C302.663 23.2694 302.589 23.2603 302.527 23.2625C302.164 23.2762 301.805 23.2932 301.441 23.3069C301.301 23.3126 301.165 23.2978 301.069 23.2648C301.029 23.2512 301.043 23.2284 301.016 23.1841C300.986 23.1739 301.021 23.1921 301.029 23.2091C301.095 23.2069 301.174 23.2091 301.222 23.2C301.345 23.1784 301.406 23.15 301.375 23.1261C301.358 23.1136 301.275 23.0977 301.222 23.0977C301.126 23.0977 301.043 23.1227 301.016 23.1841C300.74 23.2216 300.447 23.2296 300.162 23.2478C299.996 23.2591 299.89 23.2535 299.759 23.2239C299.601 23.1875 299.439 23.1523 299.181 23.1705C298.9 23.1909 298.603 23.1943 298.313 23.2103C297.981 23.2285 297.836 23.1261 297.556 23.1284C297.267 23.1307 296.978 23.15 296.688 23.1637C296.434 23.175 296.434 23.175 295.909 23.1011C295.716 23.0738 295.488 23.1136 295.3 23.0852C295.173 23.067 295.063 23.0397 294.941 23.0204C294.888 23.0125 294.805 23.0125 294.739 23.0147C294.376 23.0284 294.008 23.0375 293.657 23.0625C293.259 23.092 292.956 23.0602 292.672 22.9931C292.313 23.0056 291.949 23.0125 291.594 23.0341C291.336 23.05 291.187 23.0125 291.012 22.9818C290.95 22.9715 290.898 22.9545 290.832 22.9499C290.766 22.9454 290.687 22.9545 290.617 22.9579C290.328 22.9704 290.03 22.9761 289.75 22.9965C289.404 23.0227 289.273 22.9295 289.005 22.9181C288.826 22.9738 288.729 23.05 288.375 23.0556C288.085 23.0602 287.796 23.0784 287.507 23.0909C287.363 23.0966 287.218 23.1034 287.074 23.1091C286.841 23.1193 286.732 23.1636 286.78 23.2319C286.806 23.2694 286.828 23.3069 286.85 23.3444C286.894 23.4115 286.785 23.4683 286.601 23.4763C286.092 23.4979 285.589 23.5206 285.081 23.5399C284.945 23.5456 284.813 23.5263 284.704 23.4956C284.59 23.4649 284.463 23.4512 284.323 23.4569C283.815 23.4785 283.311 23.5013 282.803 23.5206C282.746 23.5229 282.671 23.5115 282.614 23.5024C282.492 23.4819 282.374 23.4581 282.255 23.4365C281.966 23.4467 281.681 23.4535 281.397 23.4672C280.937 23.4876 280.937 23.4888 280.6 23.4262C280.538 23.4149 280.477 23.3933 280.42 23.3944C280.201 23.399 279.986 23.4103 279.767 23.4206C279.123 23.4501 279.123 23.4501 278.935 23.416C278.764 23.3842 278.611 23.3455 278.352 23.3637C278.072 23.3842 277.774 23.391 277.485 23.4024C277.27 23.4103 277.056 23.4194 276.841 23.4217C276.784 23.4228 276.723 23.4012 276.662 23.3899C276.486 23.3546 276.316 23.3262 276.075 23.3455C275.934 23.3569 275.785 23.3592 275.641 23.3649C275.264 23.3808 275.264 23.3808 274.647 23.3126C274.585 23.3057 274.511 23.2978 274.449 23.3012C273.941 23.3217 273.438 23.3444 272.93 23.3637C272.868 23.366 272.794 23.3592 272.732 23.3535C272.04 23.2875 272.04 23.2876 271.304 23.3194C271.024 23.3308 271.015 23.3353 270.722 23.2751C270.59 23.2489 270.481 23.2364 270.328 23.2444C269.749 23.2716 269.167 23.2898 268.593 23.3217C268.335 23.3353 268.186 23.3012 268.01 23.2705C267.949 23.2603 267.883 23.2375 267.831 23.2387C267.253 23.2603 266.674 23.2864 266.096 23.308C266.044 23.3103 265.978 23.2876 265.917 23.2773C265.798 23.2569 265.684 23.2262 265.553 23.2194C265.417 23.2125 265.268 23.2296 265.119 23.2353C264.756 23.25 264.756 23.2489 264.335 23.1818C264.278 23.1727 264.204 23.1602 264.147 23.1625C263.569 23.1852 262.986 23.2046 262.412 23.2375C262.084 23.2557 261.86 23.2228 261.628 23.175C261.58 23.1648 261.497 23.1602 261.436 23.1625C260.783 23.1887 260.135 23.2182 259.482 23.2444C259.346 23.25 259.215 23.2307 259.105 23.2012C258.93 23.1546 258.724 23.1602 258.505 23.1705C258.001 23.1943 257.997 23.1932 257.699 23.1386C257.638 23.1273 257.585 23.1125 257.52 23.1068C257.458 23.1011 257.379 23.1045 257.314 23.1068C257.025 23.1182 256.736 23.1307 256.446 23.1432C256.157 23.1557 255.864 23.1625 255.579 23.1818C255.229 23.2057 255.062 23.1318 254.817 23.0977C254.458 23.1125 254.09 23.1216 253.735 23.1455C253.463 23.1636 253.336 23.1136 253.157 23.0875C253.095 23.0784 253.03 23.0591 252.973 23.0613C252.32 23.0863 251.667 23.1136 251.019 23.1443C250.861 23.1511 250.756 23.142 250.625 23.1148C250.331 23.0534 250.318 23.0557 249.828 23.0784C249.613 23.0886 249.407 23.0977 249.223 23.0511C249.061 23.0091 248.864 22.9988 248.632 23.0125C248.347 23.0295 248.054 23.0386 247.765 23.05C247.475 23.0625 247.186 23.0795 246.897 23.0852C246.665 23.0909 246.525 23.0375 246.341 23.0102C246.284 23.0022 246.205 23.0011 246.139 23.0034C245.85 23.0136 245.553 23.0215 245.272 23.0409C244.931 23.0647 244.742 23.0022 244.501 22.9659C244.449 22.9579 244.361 22.9624 244.295 22.9659C243.787 22.9863 243.283 23.009 242.775 23.0306C242.596 23 242.412 22.9704 242.232 22.9397C241.943 22.9511 241.654 22.9636 241.365 22.9749C241.146 22.984 240.922 22.9874 240.717 23.0045C240.449 23.0272 240.318 22.9738 240.138 22.9477C240.077 22.9386 240.011 22.9192 239.954 22.9215C239.591 22.934 239.227 22.9477 238.868 22.967C238.526 22.9863 238.391 22.884 238.11 22.8851C237.821 22.8863 237.523 22.9011 237.243 22.9215C236.919 22.9454 236.691 22.909 236.459 22.8601C236.411 22.8499 236.328 22.8442 236.266 22.8465C235.903 22.8601 235.543 22.8772 235.18 22.8908C235.119 22.8931 235.044 22.8874 234.983 22.8806C234.291 22.8135 234.291 22.8124 233.988 22.826C233.774 22.8351 233.555 22.8465 233.336 22.8522C233.274 22.8544 233.2 22.8442 233.143 22.8351C232.687 22.7658 232.687 22.7646 232.359 22.7783C232.07 22.7908 231.781 22.8033 231.492 22.8158C231.312 22.7851 231.128 22.7556 230.948 22.7249C230.589 22.7396 230.221 22.751 229.867 22.7715C229.7 22.7806 229.591 22.7771 229.464 22.7487C229.306 22.7146 229.148 22.6748 228.885 22.6942C228.605 22.7146 228.307 22.7169 228.022 22.7339C227.681 22.7544 227.541 22.651 227.265 22.6521C226.976 22.6532 226.678 22.668 226.397 22.6885C226.073 22.7123 225.845 22.676 225.613 22.6271C225.565 22.6169 225.482 22.6112 225.421 22.6135C224.623 22.6464 223.83 22.6794 223.033 22.7146C222.543 22.7362 222.543 22.7374 221.61 22.6748C221.544 22.6703 221.474 22.6657 221.408 22.668C221.119 22.6783 220.821 22.6862 220.541 22.7055C220.199 22.7294 220.011 22.668 219.77 22.6305C219.717 22.6225 219.634 22.6271 219.564 22.6294C219.345 22.6373 219.13 22.6476 218.911 22.6567C218.622 22.6692 218.333 22.6817 218.044 22.6942C217.864 22.6646 217.68 22.6339 217.501 22.6044C217.142 22.6191 216.774 22.6271 216.419 22.651C216.147 22.6692 216.02 22.6214 215.841 22.5941C215.779 22.585 215.714 22.5657 215.657 22.5668C215.004 22.5919 214.351 22.618 213.703 22.6498C213.436 22.6635 213.313 22.6123 213.134 22.5862C213.072 22.5782 213.002 22.5634 212.945 22.5657C212.512 22.5816 212.078 22.6009 211.644 22.6203C211.399 22.6316 211.399 22.6316 210.865 22.5612C210.803 22.5532 210.733 22.5452 210.672 22.5475C209.297 22.6044 207.925 22.6646 206.55 22.7214C206.41 22.7271 206.283 22.7101 206.173 22.6794C206.06 22.6487 205.932 22.6328 205.792 22.6385C205.214 22.6623 204.631 22.6839 204.058 22.7135C203.821 22.726 203.633 22.7112 203.471 22.6714C203.348 22.6419 203.234 22.6305 203.081 22.6373C202.792 22.651 202.503 22.6623 202.214 22.6748C201.924 22.6873 201.635 22.6999 201.346 22.7124C201.057 22.7249 200.764 22.7317 200.479 22.751C200.129 22.7749 199.958 22.7044 199.717 22.6692C199.283 22.6862 198.849 22.7033 198.42 22.7214C197.842 22.7453 197.264 22.7715 196.686 22.7942C196.633 22.7965 196.567 22.776 196.506 22.7658C196.326 22.7374 196.195 22.6976 195.928 22.7101C194.631 22.7703 193.326 22.8215 192.025 22.8806C191.753 22.8931 191.635 22.8442 191.451 22.8181C191.39 22.8101 191.32 22.7942 191.263 22.7965C190.54 22.8249 189.817 22.8567 189.094 22.8874C188.801 22.8999 188.801 22.8999 188.31 22.8294C188.253 22.8215 188.179 22.8112 188.118 22.8135C187.176 22.8522 186.238 22.8931 185.297 22.9329C185.157 22.9386 185.03 22.9227 184.916 22.892C184.806 22.8613 184.675 22.8442 184.539 22.8499C183.672 22.8863 182.8 22.9215 181.937 22.9613C181.705 22.9727 181.512 22.9624 181.346 22.9215C181.227 22.892 181.109 22.8795 180.96 22.8863C179.659 22.942 178.358 22.9954 177.057 23.0545C176.808 23.0659 176.632 23.0443 176.475 23.0068C176.348 22.9772 176.238 22.9715 176.08 22.9761C175.914 22.9818 175.813 22.9943 175.721 23.0284C175.603 23.0727 175.529 23.1284 175.248 23.1318C174.959 23.1352 174.666 23.1489 174.381 23.1682C174.109 23.1875 173.982 23.1364 173.811 23.1057C173.684 23.0841 173.566 23.0807 173.404 23.0909C173.255 23.1 173.163 23.1193 173.076 23.1557C172.883 23.233 172.865 23.233 172.629 23.1841C172.502 23.158 172.388 23.1375 172.248 23.142C171.669 23.1648 171.091 23.1898 170.513 23.2159C170.18 23.2307 170.176 23.233 169.926 23.1762C169.804 23.1477 169.685 23.1341 169.541 23.1409C167.951 23.2091 166.361 23.2751 164.771 23.3467C164.525 23.358 164.359 23.3342 164.184 23.3001C164.127 23.2887 164.07 23.2728 164.004 23.2682C163.938 23.2637 163.864 23.2682 163.794 23.2705C162.637 23.3194 161.476 23.366 160.324 23.4206C160.062 23.4331 159.922 23.3967 159.742 23.3671C159.681 23.3569 159.628 23.341 159.562 23.3364C159.497 23.333 159.418 23.341 159.348 23.3444C158.191 23.3933 157.03 23.4399 155.878 23.4945C155.602 23.507 155.484 23.4592 155.305 23.4342C155.243 23.4251 155.178 23.408 155.121 23.4103C154.757 23.4228 154.398 23.4399 154.034 23.4547C153.167 23.4922 152.3 23.5274 151.432 23.5661C151.099 23.5809 150.955 23.4797 150.675 23.4842C150.311 23.4899 149.952 23.5126 149.588 23.5286C149.299 23.5411 149.01 23.5524 148.721 23.5661C148.436 23.5786 148.436 23.5786 147.727 23.5126C147.665 23.507 147.591 23.499 147.53 23.5013C146.518 23.5433 145.501 23.5854 144.494 23.6309C144.262 23.6411 144.069 23.6354 143.903 23.5934C143.784 23.5638 143.662 23.549 143.517 23.5558C141.997 23.6206 140.482 23.6854 138.962 23.7491C138.905 23.7514 138.83 23.74 138.773 23.7309C138.651 23.7104 138.532 23.6866 138.414 23.665C138.326 23.6911 138.213 23.715 138.156 23.7445C138.077 23.7843 137.972 23.7957 137.805 23.8025C137.639 23.8093 137.534 23.8071 137.402 23.7775C137.245 23.7411 137.082 23.7127 136.824 23.7241C135.234 23.7957 133.644 23.8605 132.054 23.931C131.791 23.9423 131.668 23.8923 131.484 23.8662C131.423 23.8582 131.353 23.8457 131.296 23.848C130.643 23.8741 129.995 23.9026 129.342 23.9298C127.533 24.0071 125.724 24.081 123.92 24.1629C123.591 24.1777 123.368 24.1492 123.136 24.1003C123.087 24.0901 123.004 24.0844 122.943 24.0867C120.411 24.1936 117.879 24.3016 115.352 24.4095C115.216 24.4152 115.084 24.397 114.975 24.3675C114.861 24.3368 114.734 24.322 114.594 24.3277C113.437 24.3766 112.281 24.4255 111.125 24.4755C110.836 24.488 110.831 24.4891 110.533 24.4346C110.472 24.4232 110.406 24.4016 110.358 24.4039C110.257 24.4096 110.161 24.438 110.091 24.4766C110.021 24.5175 109.911 24.5289 109.749 24.5369C109.583 24.5448 109.473 24.5414 109.346 24.5141C109.184 24.48 109.035 24.4471 108.772 24.4584C105.448 24.6039 102.123 24.7438 98.7984 24.8881C98.5312 24.8995 98.4085 24.8518 98.2245 24.8256C98.1632 24.8177 98.1019 24.8063 98.0362 24.804C97.9661 24.8017 97.8917 24.8086 97.8216 24.812C92.3987 25.0427 86.9759 25.2746 81.5531 25.5054C81.229 25.519 81.2333 25.519 80.8785 25.6236C80.8347 25.6361 80.7777 25.6532 80.7164 25.6554C79.0562 25.7282 77.3918 25.7987 75.7272 25.8692C75.0045 25.8999 74.2818 25.9317 73.559 25.9612C73.3006 25.9715 73.3006 25.9715 72.6829 26.0943C72.6304 26.1045 72.569 26.1181 72.5077 26.1204C69.6166 26.2443 66.7256 26.3682 63.8302 26.4898C63.6024 26.4989 63.4185 26.5194 63.3134 26.574C63.2389 26.6126 63.1425 26.6354 62.998 26.6422C60.9743 26.7286 58.9506 26.8161 56.9225 26.9002C56.6816 26.9105 56.537 26.9423 56.4187 26.99C56.3793 27.0059 56.3442 27.0241 56.2873 27.0355C56.2347 27.0457 56.1559 27.0491 56.0902 27.0525C54.3556 27.1264 52.621 27.2026 50.882 27.2731C50.6236 27.2833 50.5184 27.3254 50.3914 27.3697C50.3476 27.3845 50.3169 27.405 50.26 27.4152C50.203 27.4243 50.1198 27.4243 50.0497 27.4265C48.6042 27.4879 47.1587 27.5505 45.7132 27.6118C45.4329 27.6062 45.3715 27.6721 45.2357 27.7119C45.1875 27.7255 45.1526 27.7437 45.0956 27.7528C45.0343 27.7619 44.9554 27.7608 44.8809 27.763C43.7245 27.8119 42.5681 27.8642 41.4073 27.9097C41.1401 27.9199 41.0875 27.9779 40.943 28.0177C40.8948 28.0302 40.8467 28.0495 40.7897 28.0529C40.067 28.0859 39.3443 28.1166 38.6215 28.1461C38.3806 28.1564 38.3806 28.1552 37.9557 28.2678C37.9075 28.2803 37.8505 28.2939 37.7892 28.2973C36.7072 28.3451 35.6209 28.3905 34.5346 28.4371C34.3945 28.4428 34.2981 28.4701 34.228 28.5088C34.1579 28.5474 34.0572 28.5724 33.917 28.5781C33.0497 28.6156 32.1823 28.6543 31.315 28.6884C31.0741 28.6975 30.9165 28.7259 30.8113 28.777C30.7325 28.8157 30.6361 28.835 30.4828 28.8418C29.6155 28.8782 28.7482 28.918 27.8766 28.9498C27.6225 28.9589 27.491 28.9976 27.3859 29.0453C27.3027 29.084 27.2063 29.0976 27.0442 29.1044C25.4542 29.1704 23.8598 29.2363 22.2741 29.309C22.0069 29.3215 21.8711 29.2818 21.6959 29.2533C21.4462 29.2135 21.2141 29.1704 21.2141 29.0817C21.2141 29.068 21.1396 29.0521 21.087 29.0408C20.6972 28.9555 20.6972 28.9555 20.6359 28.8646C20.6008 28.8089 20.5614 28.752 20.5307 28.6952C20.4738 28.602 20.3336 28.5781 19.9306 28.5952C19.786 28.6008 19.6415 28.6088 19.4969 28.6133C19.2823 28.6213 19.1202 28.5838 19.0808 28.5156C19.0589 28.4781 19.0327 28.4405 19.0108 28.403C19.2298 28.3939 19.2254 28.3928 19.6108 28.2553C19.7729 28.1973 19.773 28.1973 19.462 28.1393C19.3437 28.1177 19.2298 28.0938 19.1027 28.0734C19.0458 28.0643 18.9714 28.0586 18.91 28.0609C18.5465 28.0745 18.1873 28.0904 17.8281 28.1063C17.2499 28.1313 17.2498 28.1313 16.6629 28.0154C16.6147 28.0063 16.5402 27.9893 16.549 27.9802C16.5972 27.9381 16.7154 27.9199 16.8643 27.9154C17.0834 27.9085 17.298 27.8972 17.5126 27.8881C17.6572 27.8824 17.8017 27.8756 17.9463 27.8699C18.0821 27.8267 18.2223 27.7846 18.3493 27.7403C18.5508 27.6721 18.5508 27.6698 18.2748 27.6221C18.0996 27.5902 17.9112 27.5618 17.7316 27.5323C17.517 27.5414 17.298 27.5516 17.0834 27.5595C16.8118 27.5698 16.7023 27.5482 16.6322 27.4743C16.5709 27.4095 16.6453 27.3538 16.8556 27.3402C17.0702 27.3265 17.2718 27.3174 17.3813 27.2594C17.4864 27.2037 17.6704 27.1821 17.8982 27.1776C18.0427 27.1742 18.1873 27.1662 18.3318 27.1594C18.5202 27.1503 18.6209 27.0923 18.5815 27.0275C18.5596 26.9855 18.5158 26.9502 18.345 26.9411C17.5872 26.9014 17.5784 26.9025 17.2016 26.8252C17.1666 26.8184 17.1404 26.7979 17.1535 26.7877C17.1754 26.7706 17.2236 26.7456 17.2762 26.7422C17.7799 26.7172 18.2836 26.6945 18.7874 26.6774C18.9538 26.6717 19.0765 26.6638 19.1334 26.6217C19.2123 26.5637 19.1772 26.5103 19.0239 26.4705C18.9757 26.458 18.8968 26.4421 18.8443 26.4432C18.2661 26.4637 17.6923 26.4898 17.1141 26.5103C17.0615 26.5126 16.9652 26.4933 16.9433 26.4785C16.8995 26.4512 16.9651 26.4148 17.1184 26.4023C17.3199 26.3853 17.5258 26.3841 17.6616 26.3273C17.85 26.2466 18.0821 26.1727 18.2923 26.0954C18.3274 26.0818 18.3844 26.0556 18.3713 26.0533C18.2618 26.0283 18.1347 26.009 18.0208 25.9851C17.8281 25.9453 17.828 25.8896 17.8718 25.8362C17.9069 25.793 18.0383 25.776 18.2004 25.776C18.2705 25.776 18.3581 25.776 18.415 25.7657C18.5639 25.7407 18.6121 25.7089 18.5377 25.685C18.4939 25.6714 18.4151 25.6521 18.3625 25.6543C17.4251 25.6918 16.4833 25.7282 15.5503 25.7748C15.2743 25.7885 15.1473 25.7453 14.9809 25.7146C14.8539 25.6907 14.7355 25.6816 14.5778 25.6986C14.4289 25.7146 14.2844 25.7055 14.1924 25.668C14.1179 25.6373 14.2493 25.6111 14.6041 25.5816C14.6698 25.5759 14.7443 25.5725 14.7925 25.5611C15.3006 25.4383 15.3006 25.4372 15.651 25.4213C15.9927 25.4065 15.9927 25.4054 16.1723 25.3394C16.2556 25.3087 16.3475 25.278 16.4263 25.2462C16.457 25.2337 16.5096 25.211 16.4921 25.2042C16.3957 25.1689 16.2643 25.161 16.1109 25.1689C15.7693 25.1882 15.3664 25.1723 15.1868 25.2803C15.1167 25.3212 15.0072 25.3326 14.8495 25.3394C13.2638 25.4054 11.6781 25.4758 10.088 25.5395C9.82956 25.5497 9.71136 25.5918 9.61061 25.6384C9.523 25.6771 9.42661 25.6884 9.26016 25.6952C9.09371 25.7021 8.96224 25.7055 8.86587 25.668C8.80892 25.6452 8.85712 25.6134 8.98853 25.5816C9.17688 25.5361 9.14182 25.4793 9.0805 25.4258C9.0367 25.3906 8.90091 25.3656 8.75636 25.3679C8.54172 25.3724 8.3359 25.3849 8.15631 25.3394C8.05118 25.3133 7.91975 25.2951 7.80148 25.2724C7.5737 25.2257 7.34592 25.178 7.02615 25.2087C6.80714 25.1973 6.65382 25.1564 6.47861 25.1246C6.18513 25.0723 6.15885 25.0643 6.3691 25.0086C6.60564 24.9461 6.42163 24.8643 6.55304 24.8029C6.69321 24.7369 6.88601 24.679 7.05684 24.6176C7.10065 24.6017 7.14009 24.5869 7.18389 24.571C7.08314 24.5482 6.99117 24.5198 6.8729 24.5039C6.71959 24.4834 6.64074 24.4584 6.6495 24.388C6.61884 24.3777 6.63189 24.4039 6.66694 24.4107C6.70636 24.4175 6.8028 24.4118 6.85098 24.4039C6.97363 24.3823 7.03489 24.3539 7.00423 24.33C6.98671 24.3175 6.90355 24.3016 6.85098 24.3016C6.75461 24.3016 6.6714 24.3266 6.64512 24.388C6.15452 24.4346 5.64632 24.4573 5.13821 24.4755C5.08564 24.4778 5.01998 24.455 4.95865 24.4437C4.75716 24.405 4.75713 24.4061 4.16579 24.3948C4.10446 24.3936 4.02128 24.3777 3.99062 24.3618C3.86359 24.2925 3.868 24.2163 3.80668 24.1424C3.92056 24.0947 4.03436 24.0481 4.15263 24.0015C4.38917 23.9071 4.69586 23.8241 4.87983 23.7207C4.84041 23.665 4.78784 23.6093 4.98057 23.5638C5.52811 23.507 5.52377 23.507 5.6727 23.4524C6.09759 23.2978 6.51808 23.142 6.96049 22.9897C7.07876 22.9499 7.07878 22.9283 6.86852 22.9113C6.80282 22.9067 6.73264 22.9056 6.66255 22.9079C6.44353 22.9158 6.22452 22.9363 6.00989 22.9317C5.79525 22.9283 5.63756 22.8783 5.46235 22.8476C5.28275 22.8158 5.10317 22.7828 4.92357 22.7499C4.7177 22.7533 4.51186 22.7851 4.30599 22.7339C4.14829 22.6942 3.95119 22.6657 3.7716 22.6328C3.90739 22.5464 4.16149 22.4804 4.3586 22.4043C4.5382 22.3349 4.54248 22.3361 5.02431 22.2827C5.25209 22.2576 5.33094 22.1292 5.13821 22.0917C4.90605 22.0462 4.6608 22.0041 4.42426 21.9609C4.21839 21.9643 4.00818 21.9951 3.81106 21.9439C3.65775 21.9052 3.4825 21.8791 3.22844 21.8939C2.79917 21.9189 2.36115 21.9314 1.9275 21.9518C1.77857 21.9587 1.61645 21.9541 1.55074 21.9155C1.50694 21.8882 1.63398 21.8507 1.77853 21.8427C1.99755 21.8314 2.19464 21.8177 2.30415 21.7609C2.40927 21.704 2.60199 21.687 2.82976 21.679C2.89109 21.6767 2.96123 21.6631 2.99189 21.6495C3.14958 21.5835 3.32481 21.5267 3.66209 21.529C3.80226 21.5062 3.87668 21.4778 3.83288 21.4505C3.80659 21.4357 3.71465 21.4164 3.66209 21.4187C3.29852 21.4301 2.93497 21.4414 2.58016 21.4619C2.41371 21.471 2.28661 21.4733 2.18148 21.4392C2.10702 21.4164 2.14644 21.3857 2.28661 21.3528C2.40926 21.3243 2.44434 21.2914 2.43558 21.2527C2.41368 21.1629 2.28224 21.1368 1.86173 21.1425C1.55949 21.147 1.48502 21.1322 1.41931 21.0549C1.40179 21.0367 1.35806 21.0117 1.38873 20.9992C1.57708 20.9219 1.69974 20.8264 2.05455 20.7901C2.19472 20.7764 2.34359 20.7764 2.43119 20.7469C2.5188 20.7173 2.59768 20.6832 2.68967 20.6548C2.80356 20.6207 2.88233 20.5889 2.82976 20.5673C2.74216 20.5286 2.60203 20.5252 2.43996 20.5388C2.29979 20.5502 2.15087 20.5513 2.00631 20.5582C1.74788 20.5707 1.53767 20.5411 1.507 20.4911C1.42378 20.3592 1.33615 20.2285 1.26168 20.0966C1.25292 20.0807 1.27476 20.0603 1.3098 20.0466C1.43245 19.9989 1.56391 19.9534 1.69094 19.9068C1.83988 19.8534 2.07645 19.8636 2.27795 19.8534C2.56267 19.8386 2.56257 19.8397 2.94366 19.7306C3.09259 19.6874 3.35104 19.7044 3.50435 19.6658C3.55254 19.6533 3.627 19.6328 3.61386 19.6215C3.59634 19.6067 3.50878 19.5953 3.44307 19.5885C3.38175 19.5817 3.3073 19.5783 3.2416 19.5817C2.44438 19.6146 1.65156 19.6499 0.85434 19.6817C0.71855 19.6874 0.569614 19.6624 0.521431 19.6272C0.473247 19.5942 0.486345 19.5544 0.477585 19.5169C0.604614 19.4703 0.74911 19.4271 0.858618 19.3771C0.941844 19.3384 1.03823 19.3214 1.20468 19.3191C1.4237 19.3157 1.63835 19.302 1.88365 19.2918C2.33921 19.1258 2.78597 18.9519 3.27657 18.7859C3.47368 18.7189 3.42557 18.6507 3.465 18.579C3.50442 18.5131 3.79789 18.5233 3.995 18.504C4.15269 18.4881 4.20519 18.4517 4.14386 18.4267C4.10882 18.4119 4.03002 18.3949 3.96869 18.3949C3.82414 18.3949 3.6796 18.4051 3.53504 18.4108C3.39049 18.4165 3.22405 18.4131 3.10578 18.4324C2.99189 18.4506 2.91738 18.4892 2.84292 18.5222C2.75969 18.5586 2.65026 18.5711 2.48381 18.5734C2.26917 18.5756 2.05455 18.5859 1.83991 18.5938C1.60338 18.5495 1.35803 18.5063 1.13025 18.4597C1.08645 18.4506 1.07764 18.4244 1.08202 18.4074C1.09078 18.3631 1.02509 18.3358 0.880541 18.3142C0.757892 18.296 0.657135 18.2698 0.543247 18.2471C0.630854 18.2164 0.727255 18.1869 0.79734 18.1539C0.950652 18.0845 1.14341 18.0345 1.47631 18.0368C1.60772 17.9925 1.71282 17.9379 1.88365 17.9072C2.04572 17.8777 2.3217 17.9072 2.44435 17.8401C2.50567 17.8072 2.59771 17.7697 2.71598 17.756C2.90433 17.7344 3.14963 17.7458 3.25914 17.6821C3.32484 17.6458 3.42117 17.6128 3.5482 17.6037C3.69275 17.5935 3.84164 17.5912 3.94677 17.5696C4.00371 17.5582 4.06505 17.54 4.06505 17.5241C4.06505 17.5139 3.97751 17.498 3.91618 17.4912C3.85924 17.4832 3.78469 17.4775 3.71898 17.4798C3.49997 17.4866 3.28534 17.4991 3.06632 17.5059C3.00499 17.5082 2.93493 17.5002 2.86923 17.4934C2.67649 17.4752 2.68961 17.4525 2.84292 17.4116C2.99623 17.3718 3.1058 17.3206 3.23283 17.274C3.373 17.2661 3.54819 17.2695 3.64455 17.2479C3.80662 17.2126 3.92048 17.1615 4.05189 17.1171C4.19644 17.1103 4.34537 17.1081 4.48116 17.0956C4.5381 17.091 4.5644 17.066 4.61259 17.0512C4.70019 17.0228 4.77472 16.9819 4.89299 16.9682C5.08572 16.9478 5.32226 16.9557 5.43614 16.8932C5.50185 16.8568 5.60256 16.8182 5.72521 16.8159C6.06687 16.8114 6.21143 16.7488 6.38664 16.6897C6.51805 16.6454 6.7984 16.6681 6.94295 16.6238C7.03932 16.5954 7.10945 16.5601 7.20581 16.5328C7.24524 16.5215 7.32843 16.5158 7.39414 16.5124C7.75332 16.4953 8.11688 16.4828 8.47607 16.4646C8.53301 16.4612 8.58562 16.4442 8.62942 16.4305C8.72141 16.401 8.77829 16.3601 8.89218 16.3407C9.00606 16.3214 9.16811 16.3214 9.30829 16.3157C9.75946 16.2987 9.79454 16.3032 10.0004 16.2066C10.1669 16.1282 10.5743 16.1839 10.7101 16.0975C10.7889 16.0475 10.9334 16.0065 11.1918 16.0008C11.5554 15.9929 11.9146 15.9713 12.2782 15.9565C12.6023 15.9429 12.5979 15.9429 12.9484 15.8371C13.1061 15.7894 13.3383 15.7962 13.5441 15.7871C13.7632 15.778 13.9646 15.7644 14.0698 15.7076C14.1749 15.6519 14.3676 15.6337 14.591 15.6257C14.7969 15.6177 15.0291 15.6234 15.1911 15.578C15.5854 15.4688 15.581 15.4677 15.857 15.4563C16.2906 15.4381 16.7243 15.42 17.1579 15.4006C17.447 15.3881 17.7492 15.3858 18.0208 15.3608C18.2179 15.3427 18.3055 15.279 18.4325 15.2347C18.7917 15.2176 19.1509 15.2006 19.5101 15.1846C20.0138 15.1619 20.5219 15.1414 21.03 15.1198C21.2491 15.0766 21.2798 14.9812 21.6477 14.9766C21.8668 14.9743 22.0814 14.9596 22.3004 14.9505C22.664 14.9346 23.0231 14.9141 23.3867 14.9061C23.6627 14.9004 23.7108 14.8391 23.8553 14.8004C23.9035 14.7868 23.9474 14.7674 24.0043 14.764C24.5737 14.7322 25.1607 14.7254 25.717 14.6788C25.7739 14.6742 25.8265 14.6504 25.8396 14.6333C25.8484 14.6242 25.7739 14.6072 25.7257 14.5992C25.6688 14.5901 25.5944 14.581 25.533 14.5833C23.724 14.6595 21.9149 14.7368 20.1059 14.8129C19.8518 14.8243 19.8518 14.8231 19.2342 14.9482C19.1816 14.9584 19.1202 14.9698 19.0545 14.9732C18.7654 14.9868 18.4719 14.9948 18.1872 15.0119C17.9551 15.0255 17.7624 15.0118 17.5959 14.9709C17.4777 14.9414 17.355 14.9323 17.206 14.9346C17.0396 14.938 16.9301 14.9505 16.8338 14.9812C16.7067 15.0232 16.641 15.0778 16.3738 15.0892C15.1429 15.138 13.912 15.1926 12.6855 15.2449C12.5147 15.229 12.4314 15.2051 12.4753 15.1767C12.5015 15.1596 12.5541 15.1369 12.6067 15.1346C13.1104 15.1108 13.6185 15.0903 14.1223 15.0676C14.1923 15.0641 14.2887 15.0664 14.3281 15.055C14.5209 15.0039 14.591 14.9209 14.9546 14.9152C15.1648 14.9118 15.3794 14.8948 15.5809 14.8789C15.6379 14.8743 15.6905 14.8504 15.7036 14.8334C15.708 14.8243 15.6379 14.8072 15.5853 14.7993C15.3926 14.7663 15.1692 14.8061 14.9765 14.7834C14.9108 14.7754 14.8188 14.764 14.8056 14.7504C14.7969 14.7379 14.8713 14.7174 14.9239 14.7049C14.9721 14.6936 15.0377 14.6833 15.1034 14.6799C15.6817 14.6538 16.2599 14.6265 16.8381 14.606C17.0747 14.5981 17.2411 14.5696 17.3462 14.5174C17.4251 14.4787 17.5214 14.4582 17.6704 14.4526C18.6822 14.4105 19.6941 14.3639 20.7103 14.3252C20.9643 14.3161 21.0958 14.2786 21.2009 14.2298C21.2842 14.1911 21.3805 14.1775 21.5426 14.1706C22.9925 14.1115 24.4336 14.0456 25.8835 13.9888C26.1507 13.9785 26.2296 13.9296 26.3654 13.8876C26.4135 13.8728 26.4441 13.8546 26.5055 13.8455C26.5668 13.8364 26.6456 13.8376 26.7201 13.8353C27.8765 13.7864 29.033 13.7341 30.1938 13.6887C30.4653 13.6784 30.5178 13.6216 30.658 13.5818C30.7062 13.5693 30.75 13.5488 30.807 13.5454C31.6743 13.5068 32.5415 13.4704 33.4089 13.4329C33.9871 13.4079 34.5652 13.3829 35.1434 13.359C35.4282 13.3476 35.4282 13.3465 35.8136 13.2385C35.8575 13.226 35.9188 13.2112 35.9758 13.2078C37.6403 13.135 39.3004 13.0657 40.9649 12.9941C41.1051 12.9884 41.2058 12.9622 41.2759 12.9236C41.346 12.8849 41.4468 12.8588 41.5826 12.8531C42.8836 12.7963 44.1845 12.7406 45.4898 12.6872C45.7264 12.6781 45.8928 12.6508 45.9979 12.5996C46.0768 12.561 46.1731 12.5405 46.322 12.5348C47.623 12.4803 48.924 12.4223 50.2294 12.37C50.479 12.3598 50.6016 12.3211 50.7243 12.2756C50.7681 12.2597 50.8032 12.2336 50.8557 12.2313C51.504 12.1995 52.1479 12.1665 52.8006 12.1449C53.0721 12.1358 53.1642 12.0881 53.2737 12.0426C53.3613 12.0062 53.4621 11.9937 53.6285 11.9892C53.9921 11.9789 54.3512 11.9596 54.7061 11.9403C54.7586 11.9369 54.8243 11.9119 54.8287 11.896C54.8375 11.8664 54.7367 11.8459 54.5702 11.8357C52.8356 11.9096 51.0967 11.9835 49.3621 12.0574C49.0774 12.0699 49.0773 12.0699 48.6919 12.1779C48.6481 12.1904 48.5867 12.2052 48.5254 12.2086C46.8608 12.2802 45.2007 12.3507 43.5362 12.4223C43.396 12.428 43.2953 12.4541 43.2252 12.4928C43.1551 12.5314 43.0543 12.5576 42.9185 12.5632C41.3285 12.6315 39.7384 12.7008 38.144 12.7656C37.9075 12.7747 37.7411 12.8008 37.6359 12.8531C37.5571 12.8918 37.4607 12.9122 37.3118 12.9179C35.7918 12.9816 34.2762 13.0486 32.7518 13.11C32.5985 13.1157 32.4847 13.0827 32.4934 13.052C32.4978 13.0361 32.5634 13.01 32.616 13.0077C33.4088 12.9702 34.1974 12.9316 34.9946 12.9031C35.2618 12.894 35.3406 12.844 35.4764 12.802C35.5202 12.7872 35.5552 12.7679 35.6122 12.7599C35.6735 12.7508 35.7523 12.752 35.8268 12.7497C37.706 12.669 39.5852 12.5871 41.4687 12.511C41.7403 12.4996 41.7928 12.4439 41.933 12.4041C41.9811 12.3905 42.025 12.37 42.0819 12.3677C42.6601 12.3404 43.2383 12.3166 43.8165 12.2927C44.8284 12.2495 45.8402 12.2063 46.8564 12.1631C47.1499 12.1506 47.1499 12.1506 47.5266 12.0437C47.5704 12.0312 47.6318 12.0153 47.6888 12.0131C50.3651 11.8982 53.0416 11.7834 55.7179 11.6697C55.8581 11.6641 55.9588 11.6379 56.0289 11.5993C56.099 11.5618 56.1997 11.5345 56.3355 11.5276C59.9537 11.373 63.5675 11.2184 67.1856 11.0661C67.4221 11.0559 67.5886 11.032 67.6937 10.9786C67.7681 10.9399 67.8689 10.9195 68.0178 10.9126C71.9952 10.7433 75.9725 10.5739 79.9542 10.4034C82.6306 10.2897 85.307 10.1737 87.9834 10.0623C88.2287 10.0521 88.36 10.0169 88.4827 9.97026C88.5221 9.95435 88.5616 9.9282 88.6141 9.92592C89.188 9.89751 89.7617 9.87136 90.3356 9.84522C90.5152 9.87591 90.6947 9.90547 90.8743 9.93617C91.0101 9.89297 91.1416 9.84863 91.2774 9.80543C92.1447 9.77247 92.9988 9.72131 93.8749 9.7054C93.9318 9.70426 93.9931 9.72586 94.0545 9.73723C94.4618 9.80885 94.694 9.80316 94.9524 9.70767C95.0444 9.67357 95.1233 9.64288 95.2634 9.63719C95.6971 9.61673 96.1352 9.60309 96.5645 9.57922C96.7966 9.56671 96.9893 9.57808 97.1558 9.619C97.274 9.64856 97.3967 9.66107 97.5413 9.65425C98.3385 9.62015 99.1313 9.58717 99.9285 9.5508C99.9855 9.54852 100.038 9.52919 100.082 9.51555C100.174 9.486 100.253 9.45417 100.34 9.42348C100.459 9.44281 100.59 9.45759 100.686 9.48259C100.809 9.51215 100.923 9.51214 101.089 9.50419C104.269 9.36664 107.454 9.2325 110.634 9.09381C110.906 9.08245 111.024 9.13019 111.208 9.1552C111.269 9.1643 111.331 9.17566 111.396 9.17793C111.466 9.18021 111.541 9.17339 111.611 9.16998C113.998 9.06767 116.385 8.96649 118.773 8.86418C119.088 8.85054 119.088 8.85054 119.557 8.92102C119.614 8.93012 119.688 8.94035 119.75 8.93694C120.836 8.8926 121.922 8.84486 123.004 8.79939C123.144 8.79371 123.263 8.81189 123.39 8.83804C123.639 8.88919 123.657 8.8892 123.841 8.81417C123.928 8.77893 124.02 8.75732 124.165 8.74709C124.323 8.73572 124.45 8.73915 124.572 8.75961C124.747 8.78803 124.875 8.83577 125.142 8.82326C126.298 8.76983 127.459 8.7255 128.611 8.67094C128.874 8.65843 129.014 8.69708 129.189 8.7255C129.25 8.73573 129.307 8.75165 129.373 8.75506C129.439 8.75847 129.518 8.7505 129.588 8.74709C131.033 8.68571 132.483 8.62547 133.924 8.55954C134.196 8.54703 134.314 8.5959 134.498 8.62091C134.559 8.63001 134.629 8.64593 134.686 8.64366C135.554 8.60842 136.425 8.57089 137.293 8.53338C137.604 8.51974 137.604 8.52087 138.077 8.59022C138.134 8.59931 138.208 8.60841 138.27 8.60613C139.281 8.56407 140.298 8.52087 141.309 8.47768C141.62 8.46404 141.62 8.46404 142.518 8.52315C142.584 8.5277 142.654 8.53453 142.72 8.53225C143.876 8.48337 145.037 8.43562 146.193 8.38333C146.426 8.3731 146.618 8.38219 146.785 8.42311C146.903 8.45267 147.026 8.46518 147.17 8.45836C148.471 8.40266 149.777 8.34923 151.073 8.29012C151.323 8.27875 151.485 8.30375 151.66 8.33672C151.717 8.34809 151.774 8.364 151.84 8.36855C151.906 8.3731 151.98 8.36855 152.05 8.36514C153.351 8.30944 154.656 8.25715 155.953 8.1969C156.216 8.18439 156.356 8.22304 156.531 8.25146C156.592 8.26169 156.658 8.28215 156.711 8.28102C157.219 8.26169 157.727 8.24465 158.231 8.21623C158.502 8.20031 158.62 8.2526 158.804 8.2776C158.866 8.28556 158.936 8.30262 158.993 8.30035C160.079 8.25601 161.166 8.20941 162.247 8.16167C162.401 8.15484 162.515 8.16507 162.637 8.19462C162.799 8.23441 162.988 8.25032 163.224 8.23782C163.728 8.21167 164.236 8.19349 164.744 8.17189C165.042 8.15939 165.042 8.15939 165.953 8.2185C166.019 8.22305 166.089 8.22987 166.155 8.22759C167.022 8.19122 167.894 8.15598 168.757 8.11619C168.989 8.10482 169.182 8.11505 169.348 8.15598C169.466 8.18553 169.584 8.19804 169.733 8.19122C170.531 8.15712 171.324 8.12301 172.121 8.08891C172.41 8.07641 172.699 8.0548 172.988 8.0548C173.198 8.05594 173.352 8.1105 173.54 8.13778C173.593 8.14574 173.68 8.13666 173.75 8.13438C174.762 8.09119 175.778 8.0514 176.786 8.00251C177.049 7.99001 177.189 8.02866 177.364 8.05708C177.425 8.06731 177.491 8.08777 177.544 8.08663C177.907 8.07413 178.266 8.05708 178.63 8.0423C179.063 8.02411 179.502 8.01047 179.931 7.98546C180.281 7.965 180.413 8.06389 180.693 8.0673C180.908 8.07071 181.127 8.05139 181.341 8.0423C181.775 8.02411 182.209 8.00365 182.642 7.98774C182.796 7.98205 182.914 7.96386 182.962 7.92293C182.971 7.91497 182.896 7.89793 182.848 7.8877C182.266 7.77175 182.266 7.77174 181.679 7.79675C181.315 7.81267 180.956 7.82858 180.592 7.84223C180.531 7.8445 180.461 7.83541 180.4 7.82858C180.224 7.80926 180.242 7.78653 180.391 7.7456C180.54 7.70468 180.654 7.65466 180.781 7.60806C180.96 7.63761 181.135 7.66716 181.315 7.69672C181.46 7.69103 181.604 7.68422 181.749 7.67854C182.471 7.64898 183.194 7.61829 183.917 7.591C183.969 7.58873 184.035 7.61147 184.096 7.62284C184.272 7.6558 184.429 7.68421 184.683 7.67171C185.332 7.63874 185.984 7.61487 186.633 7.58645C186.917 7.57395 186.917 7.57395 187.417 7.64443C187.474 7.65239 187.548 7.66148 187.61 7.65921C188.262 7.63306 188.91 7.60464 189.563 7.57736C189.703 7.57168 189.839 7.58646 189.94 7.61942C189.979 7.63306 189.971 7.65579 190.137 7.84223C190.654 7.99342 191.009 7.97751 191.368 7.96387C191.521 7.95818 191.657 7.95249 191.758 7.92976C191.81 7.91725 191.876 7.89906 191.876 7.88429C191.876 7.87292 191.78 7.85473 191.718 7.85245C191.285 7.82972 190.873 7.87747 190.448 7.8877C190.251 7.89225 190.08 7.85246 190.045 7.78766C190.036 7.76947 190.023 7.75015 190.01 7.73196C189.997 7.71377 189.988 7.69445 189.975 7.67626C189.804 7.67058 189.703 7.69104 189.629 7.72969C189.568 7.76152 189.48 7.79789 189.362 7.81494C189.243 7.83313 189.081 7.82973 188.937 7.83541C188.797 7.8411 188.643 7.85587 188.512 7.84791C188.38 7.83882 188.275 7.80585 188.153 7.78539C188.096 7.77516 188.026 7.76038 187.969 7.76266C187.465 7.78198 186.966 7.8013 186.466 7.82631C186.203 7.83995 186.072 7.79221 185.906 7.76266C185.774 7.73992 185.643 7.7456 185.621 7.79789C185.564 7.92293 185.765 7.97522 186.212 7.95135C186.58 7.93089 186.913 7.92749 187.202 8.00479C187.242 8.01502 187.334 8.01957 187.391 8.01729C187.75 8.00365 188.104 7.9866 188.464 7.97296C188.529 7.97068 188.6 7.97522 188.661 7.97977C189.554 8.04116 189.554 8.0423 189.857 8.02866C190.001 8.02184 190.141 8.01615 190.128 7.84336C190.404 7.65807 190.842 7.64557 191.267 7.61828C191.543 7.60123 191.661 7.65125 191.841 7.6774C191.902 7.68649 191.968 7.70468 192.025 7.7024C192.967 7.66489 193.904 7.6251 194.841 7.58304C194.999 7.57622 195.113 7.58304 195.236 7.61259C195.393 7.65011 195.569 7.67399 195.818 7.66034C196.318 7.63306 196.826 7.61601 197.334 7.59328C197.592 7.58191 197.592 7.5819 198.114 7.65238C198.17 7.66034 198.245 7.66943 198.306 7.66716C198.814 7.64783 199.318 7.62397 199.822 7.60351C199.962 7.59782 200.089 7.61374 200.199 7.64443C200.308 7.67512 200.44 7.69103 200.575 7.68535C201.083 7.66489 201.587 7.64216 202.091 7.6217C202.152 7.61942 202.227 7.62738 202.284 7.63534C202.818 7.70582 202.818 7.70581 203.063 7.69444C203.423 7.67739 203.79 7.66944 204.145 7.6467C204.491 7.62397 204.671 7.6899 204.907 7.72627C205.556 7.70013 206.208 7.67853 206.852 7.6467C207.115 7.63306 207.255 7.67057 207.43 7.70013C207.492 7.71036 207.553 7.73196 207.61 7.73082C207.829 7.72628 208.044 7.71377 208.258 7.70468C208.473 7.69559 208.692 7.68649 208.907 7.6774C209.152 7.71037 209.314 7.78766 209.665 7.76152C209.875 7.7456 210.098 7.74219 210.313 7.7331C210.527 7.72401 210.746 7.71491 210.961 7.70582C211.106 7.70013 211.255 7.69672 211.395 7.68649C211.653 7.66944 211.78 7.72514 211.964 7.75015C212.025 7.75811 212.096 7.77174 212.152 7.76947C212.586 7.75356 213.024 7.73992 213.449 7.71377C213.778 7.69331 214.001 7.72742 214.233 7.77516C214.281 7.78539 214.365 7.79107 214.426 7.7888C214.934 7.76948 215.438 7.7456 215.941 7.72513C216.077 7.71945 216.209 7.73764 216.318 7.76719C216.432 7.79789 216.559 7.81268 216.699 7.80699C217.203 7.78653 217.711 7.76379 218.215 7.74333C218.276 7.74105 218.351 7.75015 218.408 7.75924C218.898 7.82972 218.898 7.83086 219.187 7.81722C219.257 7.81381 219.332 7.81153 219.402 7.80812C219.761 7.7922 220.133 7.78653 220.484 7.75924C220.887 7.72855 221.18 7.7672 221.465 7.832C221.824 7.81836 222.192 7.8104 222.543 7.78766C222.805 7.77061 222.946 7.81381 223.121 7.84223C223.182 7.85246 223.248 7.87292 223.3 7.87064C223.809 7.85132 224.317 7.83427 224.816 7.80585C225.088 7.78994 225.206 7.84109 225.39 7.86723C225.451 7.87633 225.517 7.89225 225.574 7.88997C225.863 7.88088 226.152 7.86723 226.441 7.85473C226.778 7.83995 226.778 7.84109 227.225 7.91043C227.435 7.9434 227.646 7.91725 227.852 7.90929C228.071 7.9002 228.276 7.89338 228.452 7.93999C228.561 7.96954 228.693 7.98773 228.828 7.98318C229.118 7.97295 229.411 7.96273 229.696 7.94568C229.924 7.93203 230.121 7.94112 230.287 7.98318C230.405 8.01274 230.528 8.02753 230.673 8.02071C231.321 7.99342 231.973 7.96499 232.622 7.93885C232.679 7.93657 232.758 7.94681 232.81 7.95704C232.933 7.9775 233.051 8.00023 233.169 8.02297C233.454 8.01274 233.747 8.0082 234.028 7.99229C234.326 7.97637 234.597 7.97069 234.829 8.03321C234.878 8.04685 234.948 8.06617 235.005 8.06503C235.224 8.06048 235.438 8.04912 235.653 8.04002C235.868 8.03093 236.087 8.02184 236.301 8.01274C236.551 8.04116 236.709 8.12301 237.059 8.09686C237.269 8.08095 237.493 8.07754 237.707 8.06844C237.922 8.05935 238.141 8.04912 238.356 8.04116C238.426 8.03889 238.505 8.0332 238.566 8.03775C238.632 8.04229 238.688 8.05821 238.745 8.06958C238.921 8.10255 239.083 8.13552 239.332 8.11619C239.543 8.10028 239.766 8.09687 239.981 8.08663C240.274 8.07413 240.274 8.07413 240.76 8.14575C240.958 8.1753 241.181 8.13666 241.369 8.16167C241.496 8.17872 241.606 8.20713 241.728 8.22646C241.781 8.23441 241.864 8.23782 241.926 8.23554C242.215 8.22531 242.508 8.21509 242.793 8.19804C243.025 8.18439 243.218 8.19803 243.38 8.23896C243.498 8.26851 243.616 8.28103 243.765 8.2742C244.488 8.24237 245.211 8.21508 245.929 8.17984C246.175 8.16734 246.372 8.18667 246.507 8.22759C246.74 8.29807 247.068 8.21509 247.309 8.27193C247.458 8.30717 247.607 8.34809 247.878 8.33104C248.378 8.30149 248.886 8.28556 249.39 8.2651C249.569 8.29579 249.749 8.32649 249.933 8.35719C250.222 8.34468 250.511 8.33217 250.8 8.3208C251.015 8.31171 251.234 8.30148 251.448 8.29352C251.518 8.29125 251.593 8.2867 251.659 8.29238C251.724 8.29807 251.777 8.31285 251.838 8.32422C252.141 8.37992 252.14 8.38106 252.64 8.35832C252.854 8.34809 253.06 8.34127 253.24 8.38674C253.406 8.4288 253.603 8.43676 253.831 8.42425C254.261 8.40152 254.694 8.38447 255.132 8.36855C255.268 8.36287 255.395 8.38219 255.509 8.41175C255.68 8.45836 255.89 8.45381 256.105 8.44131C256.389 8.42539 256.67 8.40948 256.911 8.47314C256.959 8.48678 257.033 8.5061 257.086 8.50496C257.445 8.49586 257.809 8.48905 258.159 8.46745C258.51 8.44585 258.68 8.51633 258.921 8.55043C259.28 8.53565 259.644 8.52087 260.003 8.5061C260.073 8.50269 260.156 8.49246 260.218 8.49815C260.476 8.52202 260.625 8.60727 260.98 8.58113C261.186 8.56635 261.409 8.56181 261.624 8.5584C261.681 8.55726 261.755 8.57658 261.795 8.59135C261.817 8.59931 261.795 8.62091 261.768 8.63228C261.69 8.66411 261.593 8.69367 261.523 8.72664C261.514 8.73118 261.598 8.75164 261.646 8.76073C261.764 8.78119 261.9 8.77779 262.058 8.7687C262.193 8.76074 262.334 8.77665 262.43 8.81076C262.469 8.8244 262.456 8.84713 262.373 8.92216C262.373 8.97786 262.465 8.95285 262.496 8.91647C262.544 8.86418 262.452 8.84713 262.277 8.87555C262.154 8.89601 262.093 8.92557 262.123 8.94944C262.141 8.96195 262.224 8.97786 262.373 8.92216C262.758 8.85395 263.048 8.84145 263.337 8.82895C263.411 8.82554 263.499 8.81416 263.551 8.82098C263.74 8.84827 263.915 8.88124 264.099 8.91193C264.309 8.90511 264.506 8.88805 264.712 8.93239C265.001 8.99491 265.014 8.98923 265.295 8.97672C265.439 8.9699 265.584 8.96423 265.728 8.95854C265.873 8.95286 265.987 8.96991 266.114 8.99605C266.372 9.04948 266.394 9.04948 266.565 8.97672C266.666 8.93239 266.736 8.91761 266.863 8.93808C267.283 9.00742 267.288 9.01196 267.647 8.9915C267.945 8.97445 268.225 8.9699 268.444 9.0347C268.593 9.08017 268.641 9.06994 268.759 9.0222C269.075 8.89601 269.219 8.89828 269.811 8.98923C270.087 9.03242 270.371 8.98582 270.652 8.98014C270.888 8.97559 271.055 9.00287 271.072 9.07448C271.085 9.11882 271.125 9.15065 271.283 9.16543C271.344 9.17111 271.418 9.17907 271.48 9.1768C271.843 9.16315 272.202 9.14724 272.566 9.13132C272.75 9.12336 272.851 9.06995 272.816 8.99947C272.776 8.92444 272.846 8.89715 273.109 8.87555C273.267 8.86304 273.394 8.86533 273.521 8.88579C273.661 8.90852 273.622 8.92898 273.499 8.96991C273.206 9.06994 273.241 9.13132 273.617 9.20066C273.749 9.22454 273.854 9.24614 273.884 9.28138C273.902 9.29957 273.884 9.32344 273.924 9.33708C274.139 9.41325 274.436 9.46213 274.769 9.49851C275.089 9.46782 275.308 9.51896 275.553 9.55989C275.746 9.59172 275.974 9.56444 276.18 9.55307C276.412 9.54057 276.605 9.54966 276.771 9.59172C276.889 9.62128 277.012 9.63491 277.157 9.62923C277.446 9.61672 277.739 9.60877 278.024 9.59058C278.269 9.57467 278.453 9.59741 278.606 9.63606C278.799 9.68494 279.014 9.65197 279.215 9.65879C279.487 9.66674 279.623 9.76791 279.978 9.74063C280.188 9.72472 280.407 9.71903 280.626 9.71449C280.683 9.71335 280.753 9.73268 280.801 9.74632C281.033 9.80884 281.305 9.80543 281.603 9.78724C281.808 9.77474 282.01 9.76337 282.211 9.80657C282.544 9.87933 282.912 9.94299 283.263 10.0101C283.311 10.0624 283.276 10.1237 283.526 10.1544C283.657 10.1703 283.78 10.1942 283.88 10.2204C284.003 10.2511 284.117 10.259 284.275 10.2511C284.559 10.2351 284.857 10.2317 285.138 10.2113C285.396 10.1931 285.558 10.2306 285.716 10.2658C285.843 10.2943 285.961 10.3079 286.114 10.2874C286.272 10.2681 286.386 10.2806 286.513 10.3113C286.693 10.3534 286.706 10.3488 287.301 10.3613C287.363 10.3625 287.437 10.3795 287.472 10.3943C287.49 10.4022 287.45 10.425 287.42 10.4363C287.38 10.45 287.319 10.4659 287.262 10.4693C286.614 10.4989 285.961 10.525 285.313 10.5546C285.247 10.558 285.177 10.5659 285.129 10.5773C285.076 10.5898 285.011 10.6069 285.011 10.6228C285.011 10.6341 285.098 10.6478 285.159 10.6557C285.352 10.6819 285.58 10.6421 285.768 10.6717C285.895 10.691 286 10.7183 286.127 10.7364C286.18 10.7444 286.263 10.7433 286.329 10.741C286.548 10.733 286.763 10.7217 286.982 10.7149C287.043 10.7137 287.113 10.7251 287.17 10.7342C287.59 10.8024 287.59 10.8024 287.954 10.7876C288.099 10.7819 288.252 10.7649 288.388 10.7717C288.519 10.7785 288.633 10.8092 288.751 10.8285C288.997 10.8695 289.229 10.9092 289.246 10.9979C289.255 11.032 289.4 11.0616 289.544 11.0638C289.684 11.0661 289.833 11.0536 289.978 11.0468C290.319 11.0332 290.319 11.0332 290.762 11.1025C290.884 11.1218 291.016 11.1241 291.174 11.1127C291.235 11.1082 291.309 11.1127 291.375 11.1184C291.59 11.1355 291.59 11.1571 291.45 11.198C291.252 11.2582 291.27 11.2639 291.822 11.3151C292.032 11.3344 292.194 11.3708 292.369 11.4026C292.654 11.4538 292.65 11.4538 292.461 11.5208C292.418 11.5356 292.378 11.5515 292.334 11.5674C292.207 11.6118 292.107 11.6595 291.844 11.6641C291.555 11.6686 291.266 11.6868 290.976 11.6993C290.696 11.7118 290.622 11.7391 290.648 11.8164C290.679 11.9096 290.736 11.9198 291.239 11.9187C291.384 11.9187 291.511 11.9278 291.62 11.9585C291.568 11.9949 291.471 12.0233 291.331 12.0301C290.972 12.0471 290.609 12.0619 290.249 12.0767C289.96 12.0892 289.671 12.1017 289.382 12.1142C289.202 12.1222 289.089 12.1813 289.137 12.2472C289.163 12.2847 289.185 12.3222 289.207 12.3598C289.255 12.4348 289.347 12.4541 289.64 12.4507C289.715 12.4496 289.785 12.4405 289.855 12.4427C290.14 12.4507 290.276 12.545 290.617 12.5257C290.902 12.5098 291.2 12.5064 291.48 12.4859C291.739 12.4678 291.883 12.5087 292.063 12.5394C292.124 12.5496 292.19 12.5712 292.242 12.5701C292.606 12.5576 292.97 12.5451 293.324 12.5235C293.491 12.5144 293.592 12.5212 293.723 12.5485C294.038 12.6144 294.047 12.611 294.516 12.5905C294.857 12.5746 294.862 12.5769 295.3 12.6462C295.423 12.6656 295.554 12.6655 295.712 12.6565C295.917 12.6451 296.132 12.6269 296.347 12.644C296.412 12.6485 296.496 12.6621 296.518 12.6769C296.531 12.6872 296.469 12.7122 296.417 12.7201C296.031 12.7792 295.58 12.769 295.16 12.7929C295.028 12.7997 294.897 12.7781 294.787 12.7474C294.673 12.7167 294.551 12.7042 294.402 12.7099C294.113 12.7224 293.819 12.7304 293.535 12.7485C293.289 12.7645 293.118 12.7383 292.948 12.7031C292.891 12.6917 292.825 12.6701 292.768 12.6712C292.12 12.694 291.467 12.7167 290.823 12.7485C290.565 12.7622 290.416 12.7258 290.241 12.6951C290.179 12.6849 290.118 12.6633 290.061 12.6644C289.842 12.669 289.627 12.6815 289.408 12.6906C288.611 12.7247 287.818 12.7588 287.021 12.7906C286.968 12.7929 286.903 12.769 286.841 12.7588C286.723 12.7383 286.601 12.719 286.478 12.6997C286.259 12.7087 286.044 12.7201 285.825 12.7269C285.667 12.7315 285.527 12.7474 285.505 12.7906C285.492 12.819 285.637 12.8452 285.79 12.8429C285.939 12.8406 286.088 12.827 286.211 12.8417C286.82 12.9145 286.82 12.9156 287.201 12.9009C287.534 12.8872 287.498 12.8758 287.792 12.9384C287.919 12.9657 288.033 12.9816 288.177 12.9748C288.537 12.9588 288.9 12.9429 289.264 12.9293C289.321 12.927 289.395 12.9384 289.452 12.9475C289.881 13.0157 289.881 13.018 290.236 13.0009C290.701 12.9804 290.718 12.9748 291.029 13.0441C291.244 13.0918 291.441 13.0589 291.647 13.0566C291.883 13.1009 292.142 13.1407 292.356 13.1907C292.61 13.2499 292.878 13.2396 293.167 13.2226C293.381 13.2101 293.592 13.2055 293.767 13.2521C293.933 13.2953 294.135 13.2999 294.362 13.2885C294.568 13.2783 294.779 13.2567 294.993 13.2817C295.05 13.2885 295.138 13.3056 295.133 13.3158C295.129 13.3317 295.072 13.3544 295.015 13.3613C294.612 13.4079 294.17 13.4067 293.745 13.4283C293.688 13.4317 293.613 13.4192 293.557 13.4101C293.434 13.3897 293.316 13.3658 293.197 13.3442C292.983 13.351 292.764 13.3533 292.553 13.3669C292.391 13.3772 292.269 13.376 292.15 13.3488C292.041 13.3238 291.923 13.2931 291.791 13.2851C291.66 13.2771 291.507 13.2942 291.362 13.301C291.217 13.3078 291.051 13.3044 290.937 13.3226C290.823 13.3408 290.753 13.3806 290.679 13.4124C290.595 13.4477 290.481 13.459 290.315 13.4624C290.162 13.4658 290.039 13.4613 289.925 13.4295C289.877 13.4158 289.811 13.4056 289.746 13.3965C289.684 13.3885 289.614 13.376 289.557 13.3783C288.905 13.4044 288.256 13.4329 287.604 13.4602C287.279 13.4738 287.284 13.4738 286.609 13.4067C286.548 13.401 286.474 13.3931 286.412 13.3954C286.049 13.409 285.689 13.4249 285.326 13.4408C284.958 13.4567 284.962 13.4545 284.336 13.3829C284.222 13.3692 284.056 13.3874 283.92 13.3851C283.635 13.3794 283.495 13.284 283.162 13.3021C282.877 13.3181 282.579 13.3215 282.295 13.3419C282.036 13.3601 281.887 13.3203 281.712 13.2896C281.651 13.2794 281.585 13.2567 281.532 13.259C280.88 13.284 280.232 13.3124 279.364 13.3158C279.15 13.3158 279.246 13.3397 279.386 13.3476C279.588 13.3601 279.653 13.3363 279.544 13.2908C279.465 13.259 279.351 13.243 279.259 13.251C279.211 13.2555 279.15 13.2771 279.364 13.3158C279.592 13.359 279.579 13.3829 279.618 13.3965C279.715 13.4295 279.851 13.4431 279.991 13.4386C280.21 13.4306 280.424 13.4192 280.643 13.4124C280.705 13.4101 280.779 13.4181 280.836 13.4272C281.318 13.4977 281.322 13.5022 281.835 13.4749C281.997 13.467 282.115 13.467 282.242 13.4886C282.417 13.5181 282.544 13.5681 282.812 13.5522C283.166 13.5306 283.53 13.5181 283.894 13.5056C283.95 13.5034 284.012 13.5238 284.077 13.5329C284.257 13.5602 284.388 13.6114 284.656 13.5898C284.862 13.5727 285.085 13.5681 285.304 13.5647C285.361 13.5636 285.448 13.5818 285.475 13.5966C285.527 13.6227 285.462 13.6534 285.313 13.675C285.251 13.6841 285.168 13.6818 285.098 13.6852C284.809 13.6977 284.52 13.7114 284.231 13.7216C284.077 13.7273 283.933 13.7444 283.915 13.7864C283.902 13.8148 284.06 13.8398 284.209 13.8376C284.428 13.8342 284.647 13.8251 284.857 13.8103C285.229 13.7853 285.554 13.7921 285.856 13.8637C286.071 13.9137 286.057 13.8955 286.285 14.0433C286.342 14.0808 286.513 14.0842 286.662 14.082C287.021 14.0763 287.187 14.0933 287.157 14.1286C287.117 14.1718 286.99 14.1854 286.828 14.1911C286.539 14.2002 286.25 14.215 285.961 14.2275C285.891 14.2309 285.812 14.2377 285.746 14.2354C285.681 14.2332 285.619 14.2195 285.562 14.2093C285.44 14.1877 285.335 14.1547 285.203 14.1468C285.072 14.1388 284.919 14.1559 284.774 14.1627C284.629 14.1684 284.476 14.1854 284.345 14.1775C284.213 14.1695 284.104 14.1354 283.985 14.1149C283.929 14.1047 283.858 14.0888 283.802 14.0899C283.512 14.099 283.223 14.1138 282.934 14.1252C282.579 14.1399 282.579 14.1399 282.15 14.0695C282.027 14.049 281.9 14.0501 281.738 14.0592C281.388 14.0774 281.384 14.074 280.744 14.0081C280.683 14.0013 280.608 13.9933 280.547 13.9967C279.894 14.0229 279.246 14.0513 278.598 14.0786C278.041 14.1024 278.041 14.1024 277.735 14.2161C277.507 14.3002 277.503 14.3002 277.726 14.3389C277.906 14.3707 278.068 14.4173 278.265 14.4344C278.449 14.4503 278.677 14.3991 278.878 14.4514C278.979 14.4776 279.11 14.506 279.237 14.5105C279.439 14.5162 279.653 14.4832 279.846 14.5333C279.942 14.5583 280.087 14.5844 280.21 14.5856C280.424 14.5878 280.643 14.5696 280.858 14.5617C280.924 14.5594 280.998 14.5594 281.059 14.5651C281.125 14.5719 281.182 14.5856 281.239 14.5969C281.414 14.6356 281.603 14.6538 281.83 14.6344C282.203 14.6026 282.536 14.6185 282.825 14.6913C282.864 14.7015 282.96 14.7027 283.022 14.6981C283.18 14.6867 283.315 14.6856 283.434 14.7072C283.482 14.7163 283.552 14.7322 283.543 14.7424C283.53 14.7595 283.477 14.7822 283.42 14.7879C283.009 14.8266 282.566 14.8311 282.141 14.8516C282.084 14.8538 282.014 14.8391 281.957 14.8288C281.835 14.8084 281.73 14.7743 281.598 14.7663C281.467 14.7584 281.313 14.7731 281.169 14.7788C281.024 14.7845 280.871 14.8016 280.74 14.7947C280.608 14.7868 280.486 14.7583 280.38 14.7333C280.258 14.7049 280.14 14.7015 279.978 14.7129C279.767 14.7277 279.548 14.7299 279.334 14.7379C279.215 14.7163 279.097 14.6924 278.974 14.672C278.917 14.6617 278.847 14.6492 278.786 14.6504C278.497 14.6595 278.208 14.6731 277.919 14.6856C277.63 14.6981 277.63 14.6981 277.139 14.6276C277.082 14.6197 277.008 14.6106 276.946 14.6129C276.583 14.6265 276.224 14.6435 275.86 14.6572C275.72 14.6629 275.593 14.6469 275.479 14.6163C275.369 14.5856 275.238 14.5685 275.102 14.5742C274.524 14.5981 273.946 14.6208 273.368 14.6492C273.135 14.6606 272.938 14.6504 272.781 14.6094C272.597 14.5628 272.391 14.5742 272.176 14.5833C271.69 14.606 271.686 14.6049 271.374 14.5469C271.313 14.5355 271.252 14.5139 271.195 14.5151C270.691 14.5321 270.183 14.548 269.684 14.5753C269.421 14.5901 269.281 14.5503 269.106 14.5208C269.044 14.5105 268.979 14.4889 268.926 14.4912C268.562 14.5037 268.199 14.5151 267.844 14.5378C267.489 14.5606 267.353 14.4548 267.086 14.456C266.723 14.4571 266.363 14.4833 266.004 14.4992C265.715 14.5117 265.426 14.5242 265.137 14.5367C264.848 14.5492 264.559 14.5594 264.27 14.5742C264.116 14.5821 264.002 14.5719 263.875 14.5435C263.713 14.506 263.521 14.4764 263.345 14.4423C263.078 14.3935 263.078 14.3934 262.754 14.4071C262.684 14.4105 262.609 14.4128 262.539 14.4162C262.009 14.4412 262.009 14.4389 261.335 14.3673C261.304 14.3639 261.225 14.3764 261.195 14.3855C261.103 14.4151 261.019 14.4469 260.936 14.4776C260.818 14.4594 260.673 14.4492 260.595 14.423C260.371 14.3491 260.021 14.4503 259.793 14.3775C259.71 14.3502 259.565 14.3264 259.434 14.3196C259.298 14.3127 259.145 14.3286 259.004 14.3355C258.641 14.3525 258.641 14.3514 258.33 14.4526C258.172 14.5026 257.944 14.4935 257.739 14.5048C257.524 14.5174 257.318 14.5242 257.138 14.4776C256.976 14.4355 256.779 14.4253 256.547 14.4389C256.262 14.456 255.969 14.4662 255.68 14.4764C255.619 14.4787 255.544 14.473 255.483 14.4662C254.812 14.3991 254.812 14.398 254.488 14.4128C254.344 14.4196 254.195 14.4219 254.055 14.4321C253.818 14.4503 253.639 14.4264 253.468 14.39C253.411 14.3787 253.345 14.3571 253.288 14.3582C252.999 14.3639 252.714 14.3741 252.43 14.3844C252.211 14.3923 251.992 14.3969 251.781 14.4128C251.431 14.4389 251.26 14.365 251.019 14.3309C250.66 14.3457 250.296 14.3559 249.937 14.3764C249.771 14.3855 249.661 14.3821 249.534 14.3548C249.372 14.3207 249.223 14.282 248.96 14.2991C248.61 14.3218 248.242 14.3298 247.883 14.3434C247.642 14.3082 247.467 14.2366 247.121 14.2627C246.91 14.2786 246.687 14.282 246.472 14.2911C246.183 14.3036 245.894 14.315 245.605 14.3287C245.294 14.3423 245.298 14.3389 244.821 14.2718C244.545 14.232 244.26 14.2764 243.98 14.2832C243.761 14.2889 243.651 14.3412 243.704 14.4082C243.757 14.4753 243.638 14.5276 243.437 14.5367C242.933 14.5583 242.425 14.581 241.921 14.6003C241.86 14.6026 241.785 14.5947 241.728 14.5867C241.19 14.5151 241.19 14.5162 240.949 14.5265C240.59 14.5435 240.222 14.5526 239.867 14.5742C239.622 14.589 239.442 14.5651 239.284 14.5265C239.162 14.4969 239.048 14.4901 238.89 14.4969C237.155 14.5731 235.421 14.6435 233.691 14.722C233.432 14.7333 233.283 14.7004 233.108 14.6697C233.047 14.6595 232.99 14.6379 232.928 14.6379C232.784 14.6379 232.639 14.6481 232.495 14.6549C231.846 14.6822 231.198 14.7152 230.545 14.7356C230.27 14.7447 230.195 14.797 230.077 14.8402C229.985 14.8732 229.88 14.8868 229.718 14.8914C229.56 14.8959 229.446 14.8902 229.323 14.8607C229.166 14.822 228.986 14.7981 228.741 14.814C228.456 14.8322 228.167 14.8402 227.873 14.8527C227.725 14.8584 227.611 14.8788 227.562 14.9198C227.554 14.9266 227.646 14.9437 227.698 14.9539C227.873 14.988 228.04 15.0278 228.237 15.0516C228.439 15.0755 228.658 15.0482 228.868 15.0414C228.942 15.0391 229.012 15.0323 229.082 15.0335C229.148 15.0346 229.227 15.0403 229.275 15.0505C229.503 15.1017 229.744 15.1369 230.059 15.1062C230.331 15.121 230.471 15.2153 230.817 15.1903C231.027 15.1755 231.246 15.1687 231.465 15.163C231.522 15.1619 231.584 15.1824 231.645 15.1926C231.82 15.221 231.96 15.2665 232.223 15.2472C232.504 15.2267 232.801 15.2233 233.086 15.2074C233.244 15.1983 233.358 15.2062 233.48 15.2358C233.638 15.2733 233.818 15.3017 234.063 15.2835C234.273 15.2676 234.497 15.2642 234.711 15.254C234.992 15.2415 234.992 15.2426 235.491 15.3131C235.548 15.321 235.622 15.3301 235.684 15.3279C236.047 15.3142 236.406 15.2972 236.77 15.2835C236.91 15.2779 237.046 15.2926 237.142 15.3256C237.182 15.3392 237.169 15.362 237.182 15.3813C236.459 15.412 235.736 15.4381 235.018 15.4757C234.746 15.4904 234.624 15.4438 234.444 15.4177C234.383 15.4086 234.317 15.3893 234.26 15.3915C233.752 15.4109 233.248 15.4313 232.744 15.4563C232.587 15.4643 232.469 15.4597 232.35 15.4268C232.048 15.3392 231.68 15.387 231.338 15.3995C231.076 15.4086 230.992 15.4438 231.023 15.5189C231.062 15.6075 231.22 15.6348 231.623 15.6189C231.768 15.6132 231.912 15.6052 232.057 15.6007C232.197 15.5962 232.324 15.6109 232.438 15.6416C232.547 15.6723 232.679 15.6882 232.814 15.6837C233.104 15.6734 233.397 15.6632 233.677 15.6462C233.91 15.6325 234.102 15.6439 234.264 15.686C234.444 15.7326 234.654 15.7223 234.865 15.7121C235.355 15.6894 235.359 15.6905 235.666 15.7473C235.727 15.7587 235.789 15.7803 235.846 15.7792C236.349 15.7621 236.858 15.7473 237.353 15.7201C237.611 15.7064 237.76 15.7428 237.931 15.7724C237.992 15.7826 238.053 15.8053 238.11 15.803C238.474 15.7905 238.837 15.778 239.192 15.7564C239.359 15.7462 239.459 15.753 239.595 15.7803C239.919 15.8474 239.928 15.8451 240.388 15.8235C240.528 15.8167 240.682 15.8042 240.813 15.8133C240.944 15.8224 241.05 15.8553 241.172 15.8758C241.229 15.8849 241.299 15.8974 241.36 15.8951C241.65 15.886 241.939 15.8724 242.228 15.8599C242.499 15.8474 242.499 15.8485 243.007 15.919C243.213 15.9486 243.428 15.9235 243.634 15.9144C243.857 15.9042 244.059 15.9042 244.23 15.9486C244.4 15.9929 244.606 15.9906 244.825 15.9815C245.031 15.9724 245.242 15.9474 245.452 15.9781C245.934 16.0486 245.934 16.0497 246.231 16.0361C246.665 16.0168 247.094 15.9986 247.532 15.9815C247.589 15.9792 247.664 15.9929 247.721 16.002C247.843 16.0224 247.949 16.0565 248.08 16.0645C248.211 16.0736 248.365 16.06 248.505 16.0531C248.956 16.0315 248.987 16.0236 249.289 16.0986C249.543 16.16 249.858 16.0713 250.095 16.1418C250.231 16.1816 250.415 16.2134 250.669 16.1941C250.879 16.1782 251.098 16.1736 251.317 16.1645C251.663 16.1498 251.663 16.1509 252.101 16.2191C252.158 16.2282 252.232 16.2396 252.289 16.2373C252.578 16.2282 252.872 16.2202 253.152 16.1998C253.481 16.1759 253.691 16.2191 253.936 16.2612C254.129 16.2941 254.357 16.2668 254.563 16.2555C254.786 16.2441 254.988 16.2475 255.154 16.2919C255.329 16.3373 255.535 16.3316 255.754 16.3225C255.96 16.3146 256.17 16.2884 256.381 16.3203C256.832 16.3908 256.832 16.3908 257.16 16.3771C257.449 16.3646 257.739 16.351 258.028 16.3419C258.085 16.3396 258.155 16.3544 258.212 16.3646C258.334 16.3851 258.439 16.4192 258.571 16.4271C258.702 16.4351 258.856 16.4203 259 16.4146C259.145 16.4089 259.298 16.3919 259.429 16.3987C259.561 16.4055 259.683 16.434 259.789 16.459C259.911 16.4885 260.025 16.4919 260.192 16.4806C260.402 16.4658 260.621 16.4624 260.835 16.4544C260.954 16.476 261.076 16.4976 261.19 16.5215C261.309 16.5465 261.436 16.5442 261.598 16.5363C262.136 16.509 262.141 16.5124 262.592 16.5829C262.798 16.6147 263.012 16.5886 263.218 16.5806C263.437 16.5715 263.643 16.567 263.814 16.6124C263.98 16.6556 264.186 16.6613 264.405 16.6477C264.546 16.6386 264.695 16.6329 264.839 16.6295C264.905 16.6283 264.984 16.6329 265.032 16.642C265.264 16.6897 265.492 16.7329 265.812 16.7022C266.092 16.7113 266.232 16.8045 266.569 16.7864C266.854 16.7704 267.152 16.767 267.432 16.7466C267.691 16.7284 267.875 16.7602 268.006 16.8C268.243 16.8705 268.576 16.775 268.812 16.8443C268.948 16.8841 269.123 16.9159 269.386 16.8989C269.675 16.8807 269.767 16.9046 269.85 16.9762C269.898 17.0171 269.89 17.0501 269.802 17.0819C269.714 17.1149 269.618 17.1092 269.478 17.0717C269.316 17.0296 269.123 17.0217 268.891 17.0308C268.663 17.0398 268.523 16.9807 268.335 16.958C268.146 16.9341 267.923 16.9739 267.726 16.9432C267.261 16.8716 267.261 16.8716 266.946 16.8853C266.731 16.8944 266.508 16.8989 266.298 16.9148C266.048 16.9341 265.886 16.8989 265.715 16.8671C265.654 16.8557 265.592 16.8341 265.54 16.8352C265.036 16.8523 264.528 16.8682 264.029 16.8966C263.766 16.9114 263.626 16.8705 263.451 16.8421C263.389 16.8318 263.323 16.8114 263.271 16.8136C262.837 16.8296 262.408 16.85 261.974 16.8693C261.891 16.9 261.799 16.9296 261.72 16.9626C261.637 16.9967 261.523 17.0114 261.357 17.0103C261.081 17.0103 260.809 17.058 260.533 16.9978C260.248 16.9364 260.227 16.9398 259.951 16.9546C259.6 16.9739 259.228 16.9694 258.899 17.0137C258.842 17.0217 258.781 17.0433 258.781 17.0592C258.777 17.0694 258.869 17.0842 258.926 17.0933C259.118 17.1206 259.342 17.0808 259.534 17.1092C259.661 17.1274 259.767 17.1547 259.894 17.174C259.946 17.1819 260.025 17.1808 260.095 17.1797C260.17 17.1785 260.24 17.1706 260.31 17.1717C260.376 17.1729 260.446 17.1797 260.498 17.1899C260.739 17.2331 260.993 17.2729 261.208 17.324C261.418 17.3741 261.615 17.34 261.825 17.3377C262.666 17.4173 262.666 17.4184 263.232 17.3934C263.372 17.3877 263.516 17.3809 263.661 17.382C263.722 17.382 263.779 17.4025 263.84 17.4138C264.016 17.4479 264.182 17.4786 264.427 17.4605C264.638 17.4445 264.861 17.4411 265.076 17.4309C265.365 17.4184 265.365 17.4184 265.855 17.49C265.978 17.5082 266.109 17.5059 266.267 17.4968C266.403 17.4889 266.543 17.5059 266.639 17.5389C266.679 17.5525 266.666 17.5753 266.679 17.5946C266.245 17.6128 265.807 17.6253 265.387 17.6526C265.115 17.6696 264.992 17.6207 264.813 17.5946C264.751 17.5855 264.686 17.5662 264.629 17.5685C264.2 17.5855 263.77 17.6048 263.341 17.6276C263.288 17.6298 263.223 17.656 263.218 17.6719C263.21 17.7015 263.319 17.7299 263.477 17.7287C263.687 17.7276 263.893 17.7083 264.081 17.7549C264.239 17.7958 264.436 17.814 264.668 17.7958C264.808 17.7856 264.957 17.7856 265.098 17.7765C265.47 17.7492 265.807 17.7549 266.087 17.8322C266.302 17.8526 266.512 17.8333 266.718 17.8231C266.872 17.8151 267.02 17.8072 267.13 17.8288C267.362 17.8742 267.59 17.9197 267.91 17.889C268.256 17.9209 268.519 17.9879 268.808 18.0425C268.943 18.0686 269.049 18.0834 269.206 18.0664C269.272 18.0595 269.351 18.0595 269.421 18.0561C269.565 18.0504 269.719 18.0334 269.85 18.0402C269.982 18.0482 270.091 18.0811 270.209 18.1016C270.266 18.1118 270.332 18.1289 270.389 18.1277C270.608 18.1221 270.823 18.1107 271.037 18.1016C271.252 18.0936 271.466 18.0857 271.681 18.0777C271.861 18.1073 272.045 18.1368 272.224 18.1664C272.513 18.1539 272.803 18.1414 273.087 18.13C273.407 18.1164 273.407 18.1175 273.867 18.188C274.073 18.2198 274.292 18.1994 274.489 18.1846C274.817 18.1607 275.037 18.2039 275.269 18.2494C275.317 18.2585 275.404 18.2642 275.461 18.2596C275.689 18.2437 275.886 18.2562 276.053 18.2983C276.171 18.3278 276.289 18.3415 276.434 18.3358C276.938 18.3142 277.441 18.2914 277.945 18.2721C278.006 18.2698 278.076 18.2801 278.133 18.2892C278.58 18.3585 278.584 18.3619 278.913 18.3437C279.206 18.3278 279.478 18.321 279.71 18.3835C279.758 18.3972 279.833 18.4165 279.885 18.4153C280.245 18.404 280.608 18.3915 280.963 18.3722C281.125 18.3631 281.239 18.3665 281.366 18.3926C281.528 18.4256 281.673 18.4654 281.94 18.4506C282.68 18.4085 282.685 18.4153 283.561 18.4938C283.622 18.4995 283.705 18.4904 283.775 18.4858C283.924 18.4745 284.034 18.4904 284.165 18.5165C284.459 18.5756 284.467 18.5722 284.748 18.5597C284.962 18.5495 285.186 18.5472 285.396 18.5302C285.72 18.5052 285.935 18.5495 286.176 18.5916C286.368 18.6245 286.592 18.5972 286.798 18.587C287.021 18.5756 287.223 18.579 287.389 18.6222C287.503 18.6518 287.625 18.6677 287.77 18.662C288.274 18.6416 288.778 18.6188 289.281 18.5984C289.343 18.5961 289.417 18.6052 289.474 18.6131C289.973 18.6836 289.973 18.687 290.468 18.6609C290.626 18.6529 290.757 18.6507 290.876 18.6745C290.99 18.6973 291.112 18.7189 291.231 18.7405C291.445 18.7325 291.664 18.7302 291.874 18.7166C292.037 18.7064 292.15 18.7109 292.277 18.7348C292.444 18.7655 292.584 18.8189 292.847 18.7928C292.983 18.7802 293.14 18.7837 293.276 18.7723C293.438 18.7575 293.548 18.7666 293.675 18.7962C293.833 18.8314 293.994 18.8678 294.249 18.8496C294.529 18.8291 294.827 18.8257 295.111 18.8098C295.269 18.8007 295.379 18.8098 295.506 18.8394C295.663 18.8769 295.843 18.9008 296.088 18.886C296.588 18.8576 296.592 18.8632 297.078 18.9348C297.201 18.953 297.332 18.9508 297.49 18.9417C297.626 18.9337 297.766 18.9508 297.862 18.9837C297.954 19.0201 297.946 19.0428 297.954 19.0622ZM258.921 8.80962C258.777 8.8153 258.632 8.82212 258.422 8.72322C258.409 8.70617 258.418 8.68572 258.387 8.67094C258.317 8.64024 258.207 8.61865 258.076 8.61524C257.839 8.61069 257.555 8.64933 257.559 8.67889C257.563 8.7039 257.638 8.72549 257.782 8.74595C257.844 8.75391 257.892 8.76755 257.949 8.77665C258.115 8.80279 258.247 8.85396 258.488 8.82781C258.444 8.75733 258.466 8.79257 258.488 8.82781C258.466 8.87101 258.531 8.9017 258.689 8.91421C258.733 8.91762 258.799 8.91534 258.834 8.90852C258.969 8.88351 258.991 8.84941 258.891 8.75961C258.873 8.77439 258.886 8.80052 258.926 8.80734C258.965 8.81416 259.061 8.80849 259.11 8.80053C259.232 8.77893 259.294 8.75051 259.263 8.72664C259.245 8.71413 259.162 8.69822 259.11 8.69822C259.018 8.69822 258.934 8.72323 258.921 8.80962ZM294.341 21.9928C294.021 22.0144 293.653 22.0064 293.333 22.0507C293.276 22.0587 293.219 22.0792 293.215 22.0951C293.21 22.1053 293.298 22.1201 293.351 22.1281C293.469 22.1462 293.6 22.1405 293.754 22.1349C293.986 22.1269 294.122 22.1792 294.301 22.2053C294.358 22.2133 294.433 22.219 294.494 22.2167C294.849 22.2031 295.199 22.1883 295.554 22.1724C295.615 22.169 295.681 22.161 295.734 22.1508C295.909 22.1178 295.891 22.0962 295.72 22.0712C295.532 22.0439 295.383 21.9985 295.19 21.9769C294.914 21.9462 294.634 21.9871 294.341 21.9928ZM269.465 22.8226C269.25 22.8317 269.04 22.8408 268.825 22.8499C268.755 22.8533 268.681 22.8544 268.615 22.859C268.479 22.8669 268.378 22.8908 268.313 22.9283C268.413 22.9579 268.536 22.9749 268.672 22.9715C268.886 22.9647 269.097 22.9499 269.311 22.9465C269.544 22.942 269.679 22.9931 269.859 23.0193C269.916 23.0272 269.986 23.0284 270.052 23.0295C270.376 23.0341 270.573 22.9749 270.512 22.892C270.468 22.8272 270.301 22.7885 270.1 22.7965C269.89 22.8044 269.675 22.8135 269.465 22.8226ZM295.839 20.3126C295.891 20.2933 295.948 20.2797 295.974 20.2626C296.053 20.2046 296.023 20.1614 295.878 20.116C295.703 20.0603 295.488 20.0978 295.291 20.1035C295.243 20.1046 295.19 20.1285 295.164 20.1432C295.147 20.1535 295.147 20.1751 295.173 20.1808C295.387 20.2262 295.615 20.2683 295.839 20.3126ZM257.839 16.9546C257.629 16.9637 257.414 16.9705 257.204 16.983C257.152 16.9864 257.103 17.008 257.073 17.0228C257.016 17.0501 257.077 17.0876 257.257 17.091C257.463 17.0956 257.677 17.0762 257.892 17.0671C258.163 17.0558 258.325 17.0137 258.225 16.9773C258.128 16.9421 257.997 16.9353 257.839 16.9546ZM27.2632 14.5253C27.4034 14.5196 27.5479 14.5151 27.6881 14.5071C27.8195 14.4992 27.9204 14.4742 27.9861 14.4366C27.8766 14.4071 27.7539 14.3912 27.6181 14.3946C27.4034 14.4014 27.1932 14.4105 26.9829 14.4219C26.8515 14.4287 26.7245 14.4537 26.6939 14.4923C26.6632 14.5219 26.9566 14.539 27.2632 14.5253ZM239.315 14.3502C239.372 14.3605 239.429 14.3809 239.486 14.3809C239.626 14.3809 239.77 14.3741 239.902 14.3628C239.959 14.3582 240.003 14.3377 240.029 14.3218C240.046 14.3116 240.042 14.2934 240.016 14.2843C239.889 14.2298 239.381 14.2491 239.297 14.3116C239.289 14.323 239.311 14.3377 239.315 14.3502ZM225.495 8.12528C225.508 8.14347 225.513 8.16166 225.53 8.17984C225.565 8.21395 225.661 8.23896 225.802 8.25601C225.911 8.22759 225.968 8.19577 225.964 8.16167C225.959 8.14348 225.946 8.12528 225.929 8.10709C225.894 8.07299 225.797 8.04799 225.657 8.03093C225.548 8.05822 225.495 8.09004 225.495 8.12528ZM305.962 23.0204C305.922 23.0352 305.883 23.05 305.839 23.0636C305.957 23.0966 306.067 23.1068 306.15 23.0886C306.203 23.0773 306.233 23.0602 306.273 23.0454C306.154 23.0125 306.049 23.0034 305.962 23.0204ZM303.237 23.175C303.294 23.1852 303.347 23.1989 303.408 23.2057C303.509 23.2171 303.601 23.1977 303.671 23.1568C303.614 23.1466 303.561 23.1329 303.5 23.1261C303.399 23.1148 303.307 23.1341 303.237 23.175ZM304.963 22.967C304.932 22.9943 304.994 23.017 305.156 23.0363C305.195 23.0216 305.248 23.0079 305.274 22.992C305.318 22.9659 305.243 22.942 305.085 22.9238C305.042 22.9374 305.002 22.9522 304.963 22.967ZM295.716 21.7415C295.685 21.7688 295.747 21.7916 295.909 21.8109C295.948 21.7961 296.001 21.7825 296.027 21.7666C296.071 21.7404 295.996 21.7165 295.839 21.6983C295.795 21.712 295.755 21.7268 295.716 21.7415ZM283.118 13.6977C283.079 13.7125 283.039 13.7273 282.996 13.7409C283.114 13.7739 283.223 13.7841 283.307 13.7659C283.359 13.7546 283.39 13.7375 283.429 13.7227C283.311 13.6898 283.206 13.6807 283.118 13.6977ZM271.05 9.43029C271.155 9.43825 271.243 9.42234 271.318 9.38028C271.261 9.37005 271.208 9.35641 271.147 9.34959C271.046 9.33822 270.954 9.35755 270.884 9.39847C270.941 9.40984 270.998 9.42006 271.05 9.43029ZM264.642 9.16315C264.603 9.17793 264.563 9.19271 264.519 9.20635C264.638 9.23932 264.747 9.24955 264.83 9.23136C264.883 9.21999 264.914 9.20294 264.953 9.18816C264.835 9.15519 264.73 9.14724 264.642 9.16315ZM221.185 8.12414C221.145 8.13892 221.106 8.1537 221.062 8.16734C221.18 8.20031 221.29 8.21053 221.373 8.19235C221.426 8.18098 221.456 8.16393 221.496 8.14915C221.378 8.11618 221.272 8.10823 221.185 8.12414ZM4.80091 17.3729C4.74397 17.3627 4.68707 17.3525 4.63451 17.3411C4.50748 17.3718 4.46807 17.4002 4.53816 17.4218C4.58196 17.4355 4.64761 17.4434 4.70456 17.4536C4.83597 17.423 4.86662 17.3957 4.80091 17.3729Z" fill="#FFE492"/>
<path d="M25.5274 6.15201C25.0236 6.17361 24.5243 6.20089 24.0205 6.21453C23.7533 6.22135 23.6571 6.27023 23.5475 6.3157C23.4599 6.35208 23.3592 6.36344 23.1971 6.37026C21.8304 6.42597 20.4681 6.48508 19.1058 6.54306C18.935 6.52828 18.8518 6.50441 18.8912 6.47599C18.9131 6.45894 18.9657 6.43507 19.0182 6.43279C19.9512 6.39073 20.8798 6.34753 21.8172 6.31456C22.0844 6.30547 22.1589 6.25545 22.2947 6.21453C22.3385 6.20089 22.3736 6.18042 22.4305 6.17247C22.4875 6.16337 22.5707 6.16451 22.6452 6.16224C24.152 6.09744 25.6589 6.03379 27.1657 5.96899C27.3365 5.98377 27.4198 6.00764 27.3803 6.03606C27.3584 6.05311 27.3059 6.07698 27.2533 6.07926C26.6751 6.10313 26.1012 6.127 25.5274 6.15201Z" fill="#FFE492"/>
<path d="M300.597 12.2055C300.369 12.2191 300.08 12.2385 299.843 12.1725C299.729 12.1407 299.607 12.1305 299.458 12.1373C299.243 12.1487 299.024 12.1578 298.805 12.1646C298.748 12.1657 298.674 12.1532 298.617 12.143C298.494 12.1225 298.389 12.0884 298.258 12.0793C298.126 12.0702 297.968 12.0952 297.833 12.0895C297.653 12.0816 297.579 12.0509 297.627 12.0225C297.653 12.0066 297.706 11.9838 297.763 11.9804C298.573 11.9384 298.577 11.9384 298.805 11.9793C298.98 12.0111 299.142 12.0463 299.392 12.027C299.602 12.0111 299.826 12.0077 300.04 11.9975C300.338 11.9838 300.338 11.985 300.82 12.0566C300.943 12.0748 301.074 12.0736 301.232 12.0634C301.368 12.0554 301.499 12.0736 301.609 12.1043C301.538 12.143 301.438 12.168 301.302 12.1748C301.083 12.1862 300.868 12.1941 300.597 12.2055Z" fill="#FFE492"/>
<path d="M293.452 11.8549C294.004 11.8311 294.561 11.8106 295.113 11.7833C295.34 11.772 295.52 11.7845 295.678 11.8231C295.848 11.8652 296.041 11.8618 296.251 11.8538C296.383 11.8493 296.51 11.8674 296.598 11.8993C296.633 11.9118 296.624 11.9345 296.637 11.9527C296.155 11.9732 295.669 11.9948 295.183 12.0129C295.126 12.0152 295.056 12.0039 295.003 11.9948C294.885 11.9754 294.784 11.9413 294.657 11.9345C294.385 11.9186 294.114 11.9493 293.838 11.955C293.707 11.9572 293.579 11.9402 293.492 11.9095C293.457 11.8947 293.466 11.8731 293.452 11.8549Z" fill="#FFE492"/>
<path d="M92.8431 2.0812C93.4169 2.05619 93.9907 2.03233 94.5646 2.00732C94.7354 2.02324 94.8142 2.04597 94.7792 2.07439C94.7573 2.09144 94.7047 2.11531 94.6521 2.11759C93.5045 2.16874 92.3569 2.21762 91.2136 2.2665C91.0428 2.25058 90.964 2.22785 90.999 2.19943C91.0209 2.18238 91.0735 2.15851 91.1261 2.15623C91.6955 2.13009 92.2693 2.10621 92.8431 2.0812Z" fill="#FFE492"/>
<path d="M4.57828 8.39822C4.31984 8.40049 4.04832 8.44255 3.75922 8.41072C3.70227 8.40504 3.6234 8.38684 3.62778 8.37661C3.63654 8.35956 3.68912 8.33796 3.74606 8.33114C3.99574 8.30272 4.30678 8.29931 4.43381 8.21974C4.49513 8.17881 4.60902 8.16518 4.76233 8.15722C4.9244 8.14813 5.03826 8.15153 5.16529 8.1754C5.33174 8.20609 5.47193 8.26293 5.73475 8.23338C5.7479 8.25157 5.77848 8.27203 5.76534 8.28908C5.7522 8.30613 5.69535 8.32205 5.64278 8.33455C5.5946 8.34592 5.52883 8.35615 5.46751 8.35956C5.1784 8.3732 4.88929 8.38458 4.57828 8.39822Z" fill="#FFE492"/>
<path d="M233.107 8.16984C233.321 8.16075 233.545 8.1562 233.755 8.14029C233.922 8.12778 234.027 8.13573 234.158 8.16302C234.381 8.21076 234.395 8.20622 234.942 8.21304C235.003 8.21418 235.078 8.23122 235.113 8.246C235.135 8.25396 235.104 8.27557 235.078 8.28693C235.039 8.30171 234.982 8.32103 234.929 8.32103C234.583 8.32444 234.233 8.39152 233.895 8.31422C233.724 8.27557 233.536 8.25737 233.304 8.27442C233.164 8.28465 233.015 8.2892 232.87 8.29375C232.73 8.2983 232.586 8.28579 232.498 8.25169C232.371 8.20167 232.445 8.18235 232.673 8.18576C232.818 8.18803 232.962 8.17553 233.107 8.16984Z" fill="#FFE492"/>
<path d="M312.12 16.0058C312.396 15.9944 312.672 15.9808 312.952 15.9717C313.009 15.9694 313.079 15.9819 313.132 15.9899C313.342 16.024 313.312 16.082 313.32 16.1331C313.325 16.1865 312.838 16.2297 312.633 16.1934C312.405 16.1524 312.199 16.1058 311.884 16.1309C311.761 16.14 311.616 16.1195 311.538 16.0865C311.419 16.0388 311.485 16.0194 311.708 16.0229C311.84 16.0251 311.98 16.0126 312.12 16.0058Z" fill="#FFE492"/>
<path d="M172.411 0.532982C172.696 0.520478 172.981 0.501162 173.266 0.500025C173.432 0.498888 173.515 0.536395 173.476 0.563677C173.454 0.580729 173.401 0.604602 173.349 0.606875C172.779 0.634158 172.21 0.656897 171.64 0.681906C171.474 0.665991 171.391 0.642123 171.43 0.61484C171.452 0.597789 171.505 0.575053 171.557 0.571642C171.842 0.555728 172.127 0.545487 172.411 0.532982Z" fill="#FFE492"/>
<path d="M306.582 12.3055C306.858 12.2941 307.138 12.2771 307.414 12.2714C307.559 12.2691 307.673 12.2952 307.69 12.3248C307.699 12.3384 307.629 12.3623 307.572 12.368C307.178 12.4067 306.753 12.4112 306.341 12.4305C306.21 12.4362 306.069 12.418 305.991 12.3862C305.872 12.3373 305.938 12.3191 306.162 12.3225C306.302 12.3237 306.442 12.3112 306.582 12.3055Z" fill="#FFE492"/>
<path d="M239.936 8.32341C240.076 8.31773 240.221 8.30295 240.356 8.3075C240.501 8.31318 240.593 8.34615 240.637 8.37911C240.685 8.41663 240.681 8.45187 240.637 8.4837C240.567 8.53827 240.497 8.536 240.334 8.49962C240.085 8.44278 240.067 8.4496 239.572 8.45187C239.515 8.45187 239.445 8.43481 239.401 8.42004C239.336 8.3973 239.371 8.36207 239.524 8.34161C239.638 8.32683 239.796 8.3291 239.936 8.32341Z" fill="#FFE492"/>
<path d="M296.655 11.9324C296.861 11.9233 297.067 11.9085 297.273 11.9085C297.417 11.9073 297.531 11.9335 297.544 11.9619C297.549 11.9755 297.483 11.9983 297.431 12.0051C297.181 12.0358 296.9 12.0381 296.629 12.0483C296.502 12.0529 296.362 12.0347 296.283 12.0028C296.165 11.9551 296.235 11.9335 296.449 11.9403C296.515 11.9426 296.585 11.9358 296.655 11.9324Z" fill="#FFE492"/>
<path d="M263.52 10.538C263.213 10.5516 262.924 10.5346 262.946 10.505C262.977 10.4663 263.104 10.4413 263.235 10.4345C263.445 10.4231 263.656 10.414 263.87 10.4072C264.006 10.4027 264.129 10.4197 264.238 10.4493C264.173 10.4857 264.072 10.5118 263.94 10.5198C263.805 10.5277 263.66 10.5323 263.52 10.538Z" fill="#FFE492"/>
<path d="M261.988 10.3921C262.194 10.383 262.399 10.3682 262.605 10.3682C262.75 10.3671 262.864 10.3932 262.877 10.4216C262.881 10.4353 262.816 10.458 262.763 10.4648C262.513 10.4955 262.233 10.4978 261.961 10.508C261.834 10.5126 261.694 10.4944 261.615 10.4625C261.497 10.4148 261.567 10.3932 261.782 10.4C261.847 10.4023 261.918 10.3955 261.988 10.3921Z" fill="#FFE492"/>
<path d="M237.026 8.31412C237.232 8.30502 237.438 8.29024 237.644 8.2891C237.788 8.28796 237.902 8.31412 237.915 8.34254C237.919 8.35618 237.854 8.37778 237.801 8.38574C237.552 8.41643 237.271 8.4187 237 8.42893C236.873 8.43348 236.732 8.41529 236.654 8.38346C236.535 8.33571 236.605 8.31411 236.82 8.32093C236.886 8.3232 236.956 8.31639 237.026 8.31412Z" fill="#FFE492"/>
<path d="M235.762 8.24671C235.981 8.23762 236.051 8.23193 236.121 8.23193C236.253 8.23193 236.388 8.24558 236.467 8.27855C236.585 8.32629 236.515 8.33994 236.301 8.34221C236.025 8.34448 235.753 8.36836 235.477 8.37291C235.333 8.37518 235.219 8.34789 235.21 8.31947C235.206 8.30583 235.271 8.28195 235.324 8.27741C235.508 8.26036 235.709 8.25012 235.762 8.24671Z" fill="#FFE492"/>
<path d="M260.806 1.5592C260.666 1.56488 260.517 1.5808 260.385 1.57511C260.21 1.56716 260.14 1.53647 260.184 1.50805C260.21 1.49213 260.258 1.4694 260.311 1.46599C260.591 1.45007 260.876 1.43983 261.156 1.42847C261.323 1.44552 261.397 1.46939 261.353 1.49781C261.327 1.51372 261.279 1.53532 261.226 1.53987C261.091 1.55124 260.946 1.55351 260.806 1.5592Z" fill="#FFE492"/>
<path d="M90.1079 2.21564C90.2437 2.2145 90.3663 2.22928 90.4714 2.2577C90.4057 2.29407 90.3094 2.31795 90.178 2.32818C90.1123 2.33272 90.0378 2.33613 89.9677 2.33727C89.8319 2.33954 89.7093 2.32363 89.6041 2.29521C89.6698 2.25883 89.7705 2.23496 89.8976 2.22473C89.9633 2.22018 90.0378 2.21905 90.1079 2.21564Z" fill="#FFE492"/>
<path d="M304.546 12.3008C304.542 12.2678 304.809 12.2303 305.05 12.2315C305.177 12.2326 305.308 12.2485 305.383 12.2792C305.497 12.3258 305.431 12.344 305.216 12.3406C305.085 12.3383 304.945 12.3576 304.813 12.3542C304.664 12.3531 304.577 12.3281 304.546 12.3008Z" fill="#FFE492"/>
<path d="M240.774 8.4607C240.77 8.44819 240.748 8.43342 240.761 8.42205C240.844 8.35953 241.348 8.34021 241.479 8.39477C241.501 8.405 241.51 8.42205 241.493 8.43228C241.466 8.44819 241.418 8.46865 241.366 8.4732C241.23 8.48457 241.09 8.49026 240.949 8.49139C240.888 8.49139 240.831 8.47207 240.774 8.4607Z" fill="#FFE492"/>
<path d="M6.87939 8.21605C6.36251 8.23992 6.35375 8.23764 6.44574 8.1808C6.52897 8.12965 6.6823 8.09896 6.9057 8.09896C6.9714 8.09896 7.04146 8.09668 7.0984 8.10123C7.15973 8.10692 7.24739 8.11827 7.26053 8.13191C7.28681 8.15806 7.21228 8.18648 7.08087 8.20581C7.02392 8.2149 6.94947 8.21264 6.87939 8.21605Z" fill="#FFE492"/>
<path d="M96.9477 2.05485C96.7944 2.07418 96.663 2.06736 96.5667 2.03098C96.4703 1.99461 96.6236 1.95141 96.8908 1.94118C96.9609 1.9389 97.0354 1.92981 97.1011 1.93436C97.1668 1.93777 97.2325 1.9514 97.272 1.96504C97.342 1.98778 97.2982 2.01848 97.1581 2.04463C97.1011 2.05486 97.0178 2.05258 96.9477 2.05485Z" fill="#FFE492"/>
<path d="M304.554 12.2156C304.591 12.2008 304.627 12.186 304.667 12.1724C304.817 12.1917 304.881 12.2144 304.841 12.2406C304.817 12.2565 304.768 12.2701 304.732 12.2849C304.583 12.2656 304.522 12.2417 304.554 12.2156Z" fill="#FFE492"/>
<path d="M13.3346 21.1573C13.3346 21.1436 13.3937 21.1221 13.4401 21.1175C13.5287 21.1095 13.6384 21.1255 13.7143 21.1573C13.8198 21.2028 13.7566 21.2266 13.5625 21.2141C13.4275 21.205 13.3346 21.1823 13.3346 21.1573Z" fill="#FFE492"/>
<path d="M242.401 7.40261C242.456 7.41285 242.511 7.42308 242.561 7.43445C242.49 7.47651 242.401 7.49469 242.308 7.48332C242.249 7.4765 242.198 7.46286 242.144 7.45263C242.215 7.41056 242.3 7.39466 242.401 7.40261Z" fill="#FFE492"/>
<path d="M240.871 7.35119C240.955 7.33414 241.056 7.34324 241.175 7.37621C241.137 7.39099 241.103 7.40804 241.056 7.41941C240.976 7.4376 240.871 7.42849 240.757 7.39439C240.791 7.38075 240.829 7.36597 240.871 7.35119Z" fill="#FFE492"/>
<path d="M239.627 7.40155C239.682 7.41178 239.737 7.42201 239.788 7.43338C239.716 7.47544 239.631 7.49362 239.534 7.48226C239.475 7.47543 239.425 7.46179 239.37 7.45156C239.442 7.4095 239.526 7.39245 239.627 7.40155Z" fill="#FFE492"/>
<path d="M239.645 7.34116C239.705 7.36389 239.673 7.39117 239.556 7.42187C239.503 7.41163 239.443 7.40369 239.403 7.39005C239.338 7.36845 239.37 7.34002 239.491 7.30933C239.54 7.32069 239.592 7.33093 239.645 7.34116Z" fill="#FFE492"/>
</svg>
