<svg width="692" height="682" viewBox="0 0 692 682" fill="none" xmlns="http://www.w3.org/2000/svg">
<path d="M691.525 328.82C691.525 335.009 689.396 342.403 684.573 352.248C671.493 378.378 632.211 405.171 590.669 433.46C567.856 449.038 544.261 465.114 524.924 481.273C489.988 504.868 465.914 544.872 442.58 583.588C425.546 611.877 409.425 638.588 389.523 659.275L389.479 659.316C374.01 674.852 359.062 682.122 343.81 681.54C314.044 680.419 287.537 649.388 256.859 613.414L253.904 609.966C231.047 583.297 200.456 549.815 154.786 501.338L151.049 497.225C111.594 453.857 62.491 399.854 32.7252 329.9C-36.2356 189.783 17.1688 67.1557 75.049 28.4399C142.706 -11.9375 214.535 -8.44815 349.719 41.7328C490.639 94.2816 599.577 210.678 639.859 258.284C653.156 277.766 664.932 289.979 673.536 298.869C684.399 310.168 691.525 317.521 691.525 328.82ZM385.351 655.619C404.818 635.389 420.766 608.928 437.669 580.929C461.265 541.756 485.686 501.213 521.404 477.119C540.741 460.919 564.467 444.759 587.367 429.14C628.3 401.225 666.974 374.847 679.445 350.005C691.395 325.455 685.833 319.681 669.321 302.524C660.586 293.469 648.593 281.048 635.209 261.441C595.362 214.417 487.25 98.8511 347.59 46.7593C214.361 -2.71553 143.836 -6.32956 78.0908 32.9263C21.9487 70.5205 -29.848 190.282 37.8093 327.74C67.3143 396.988 116.069 450.617 155.221 493.694L158.958 497.765C204.671 546.284 235.306 579.808 258.206 606.56L261.161 610.008C290.97 644.985 316.738 675.143 343.94 676.182C357.541 676.68 371.055 669.951 385.351 655.619Z" fill="#A7CEFC"/>
<path d="M652.157 337.253C652.157 345.81 649.289 354.866 644.205 367.328L644.118 367.577C631.56 391.505 601.272 410.447 569.247 430.47C547.346 444.137 524.751 458.302 505.066 475.334C473.128 499.344 448.272 529.544 424.242 558.705C408.121 578.313 392.869 596.84 376.009 612.999L375.661 613.29C328.775 646.19 308.091 622.595 270.504 579.808C266.419 575.155 262.117 570.254 257.511 565.144C249.733 555.091 241.042 544.374 231.83 532.992C190.853 482.437 134.755 413.147 89.2151 315.402C41.3727 195.932 75.9618 103.629 131.452 65.079C189.289 26.4463 258.901 41.4424 375.183 84.8523C492.769 132.416 568.899 219.236 609.789 265.886L614.352 271.079C641.293 305.765 652.157 320.636 652.157 337.253ZM638.99 365.251C652.808 331.229 649.506 325.455 609.963 274.402L605.531 269.334C564.945 223.058 489.379 136.903 373.141 89.8372C258.814 47.1335 190.505 32.2204 134.798 69.4407C81.0893 106.744 47.7604 196.638 94.473 313.325C139.665 410.364 195.546 479.321 236.306 529.71C245.518 541.092 254.208 551.81 261.943 561.779C266.419 566.764 270.721 571.666 274.849 576.319C312.48 619.147 329.687 638.754 372.185 609.053C388.741 593.143 403.819 574.782 419.81 555.382C444.014 525.93 469.087 495.522 501.416 471.221C521.274 454.023 544.087 439.733 566.162 425.942C597.448 406.376 627.04 387.849 638.99 365.251Z" fill="#A7CEFC"/>
<path d="M619.307 344.564C619.307 355.489 615.222 365.625 608.27 378.253C594.973 399.356 567.467 416.304 538.396 434.25C521.102 444.884 503.242 455.934 486.86 468.562C461.136 486.217 439.148 507.154 417.856 527.342C400.388 543.917 383.919 559.578 366.929 571.915L366.668 572.081C322.606 597.089 302.052 571.251 264.726 524.31L264.291 523.77L258.077 515.088C222.836 465.655 174.559 397.943 139.579 305.183C103.035 195.683 140.275 125.977 183.207 99.5161C229.007 71.227 290.494 78.1643 395.434 123.443C468.566 156.427 534.312 210.263 590.845 283.416C610.92 311.705 619.307 328.945 619.307 344.564ZM363.583 567.554C380.225 555.424 396.564 539.929 413.815 523.521C435.238 503.166 457.442 482.105 483.384 464.284C499.853 451.531 517.886 440.439 535.311 429.722C563.86 412.15 590.801 395.534 603.36 375.595C619.264 346.849 618.959 332.517 586.239 286.532C530.271 214.168 465.264 160.913 393.044 128.345C290.103 83.9384 230.18 76.8765 186.205 104.044C141.665 131.502 111.595 203.783 144.837 303.48C179.557 395.493 227.573 462.871 262.683 512.055L269.158 521.07C306.745 568.343 323.953 589.985 363.583 567.554Z" fill="#A7CEFC"/>
<path d="M589.408 348.468C589.408 360.681 585.019 372.146 576.415 384.941L576.372 385.024C562.554 404.298 536.569 419.835 509.106 436.285C496.374 443.887 483.251 451.779 470.736 460.337C452.399 471.76 435.452 484.43 419.113 496.685C399.038 511.722 380.049 525.971 361.624 535.276C322.733 551.518 302.397 527.757 273.413 486.715C246.038 444.427 207.016 379.083 183.986 298.993C167.517 222.517 180.727 165.233 221.139 137.525C264.679 107.616 333.727 115.052 410.596 157.921C501.067 202.827 554.124 273.82 568.203 294.507C582.455 316.523 589.408 333.098 589.408 348.468ZM571.679 382.033C587.713 358.105 590.581 339.329 563.423 297.415C549.561 277.06 497.2 206.981 407.859 162.657C332.901 120.867 266.07 113.307 224.441 141.928C185.941 168.348 173.557 223.68 189.505 297.788C212.318 377.048 251.035 441.934 278.193 483.849C308.003 526.095 325.732 544.498 359.234 530.499C377.007 521.484 395.779 507.402 415.681 492.489C432.15 480.151 449.14 467.399 467.608 455.933C480.122 447.334 493.376 439.442 506.151 431.798C533.049 415.597 558.513 400.352 571.679 382.033Z" fill="#A7CEFC"/>
<path d="M562.122 350.67C562.122 363.631 557.472 375.553 548.173 387.932L547.869 388.264C497.68 435.662 382.745 491.7 360.236 502.459L359.715 502.625C327.472 511.017 308.526 492.074 284.844 454.231C263.899 418.589 236.263 362.301 223.357 296.335C213.363 235.603 226.833 190.116 261.292 168.182C299.575 143.84 357.759 151.275 420.941 188.537C481.863 221.354 525.707 269.708 546.391 304.02C556.907 321.966 562.122 336.92 562.122 350.67ZM543.741 384.609C561.426 360.889 560.818 339.745 541.481 306.72C521.188 273.031 478.082 225.55 418.073 193.19C357.629 157.548 300.227 149.905 264.421 172.669C231.874 193.356 219.229 236.974 228.919 295.421C241.695 360.598 269.07 416.263 289.754 451.531C312.394 487.754 329.21 504.827 358.02 497.516C422.679 466.61 505.328 420.791 543.741 384.609Z" fill="#A7CEFC"/>
<path d="M536.962 352.913C536.962 366.788 532.139 378.793 522.796 387.89C485.904 424.28 408.079 462.165 361.279 473.339C350.459 475.167 339.9 472.55 329.819 465.654C298.749 444.386 271.938 381.369 258.12 297.041C253.297 249.477 266.637 214.002 295.708 197.053C328.645 177.861 376.575 184.757 427.155 215.954C491.162 256.539 532.008 305.1 536.527 345.851C536.832 348.261 536.962 350.629 536.962 352.913ZM262.77 278.514C262.77 284.247 263.074 290.187 263.726 296.335C277.283 379.084 303.225 440.813 333.121 461.21C341.986 467.274 351.067 469.559 360.149 468.022C405.993 457.055 482.558 419.835 518.798 384.069C528.445 374.639 532.66 361.595 530.965 346.391C526.62 307.219 486.686 260.112 424.113 220.441C376.14 190.864 329.254 183.802 298.662 201.623C275.241 215.29 262.77 242.249 262.77 278.514Z" fill="#A7CEFC"/>
<path d="M513.063 351.625C513.063 364.503 508.717 375.844 500.287 384.692C470.348 416.263 407.036 445.466 364.842 447.127L364.756 447.127C325.865 447.335 293.926 385.523 288.886 300.198C287.973 263.85 300.662 236.89 324.735 224.221C352.328 209.681 390.611 215.663 429.806 240.629C477.431 271.494 508.37 310.126 512.585 344.024C512.889 346.641 513.063 349.174 513.063 351.625ZM364.669 441.727C405.602 440.065 467.045 411.735 496.116 381.036C505.024 371.689 508.761 359.144 506.979 344.688C502.938 312.328 472.912 275.108 426.634 245.115C389.263 221.313 353.067 215.414 327.385 228.956C305.268 240.629 293.535 265.803 294.448 299.991C299.271 380.912 329.471 441.893 364.669 441.727Z" fill="#A7CEFC"/>
<path d="M490.422 349.755C490.422 361.013 486.815 371.066 479.732 379.166C455.007 407.621 404.949 427.852 370.36 423.407C337.161 418.588 313.349 366.787 316.086 305.639C317.694 278.804 329.253 259.031 348.59 249.892C370.751 239.424 400.169 244.201 429.239 263.06C463.264 285.326 485.903 314.695 489.814 341.614C490.248 344.397 490.422 347.097 490.422 349.755ZM321.518 315.318C321.518 369.57 342.506 413.894 371.185 418.048C403.471 422.202 452.183 402.429 475.431 375.718C483.078 366.912 486.12 355.405 484.252 342.361C480.558 316.897 458.788 288.94 426.067 267.505C398.735 249.767 371.403 245.115 351.066 254.711C333.641 262.936 323.213 281.13 321.692 305.889C321.605 309.046 321.518 312.203 321.518 315.318Z" fill="#A7CEFC"/>
<path d="M468.783 347.597C468.783 356.653 466.046 364.878 460.701 371.773C442.146 395.659 404.82 409.077 377.487 401.682C350.459 394.164 334.208 355.116 340.465 312.869C343.376 294.134 353.11 280.384 367.884 274.153C384.614 267.091 405.819 270.581 426.069 283.707C449.186 298.787 464.482 319.017 468.001 339.205C468.523 342.03 468.783 344.855 468.783 347.597ZM379.052 396.49C403.864 403.219 439.192 390.425 456.182 368.575C462.222 360.807 464.395 350.961 462.483 340.078C459.224 321.592 444.449 302.151 422.94 288.111C404.342 276.064 385.135 272.782 370.187 279.055C357.238 284.497 348.678 296.793 346.07 313.616C340.248 352.623 355.065 389.802 379.052 396.49Z" fill="#A7CEFC"/>
<path d="M447.837 345.311C447.837 351.584 446.143 357.648 442.493 362.966C430.456 380.745 404.905 389.053 385.568 381.534C366.319 373.974 355.933 347.014 362.451 321.384C365.449 309.544 372.793 300.904 383.048 297.041C394.346 292.804 408.077 294.964 420.679 302.94C437.974 313.948 447.837 330.273 447.837 345.311ZM437.8 360.058C448.185 344.729 439.147 321.134 417.594 307.426C406.557 300.447 394.694 298.453 385.134 302.067C376.617 305.266 370.49 312.577 367.926 322.671C362.06 345.809 370.925 369.986 387.698 376.549C404.688 383.154 427.154 375.76 437.8 360.058Z" fill="#A7CEFC"/>
<path d="M427.284 343.4C427.284 346.806 426.458 350.129 424.72 353.162C418.767 363.547 405.079 367.743 394.172 362.467C383.395 357.274 378.224 343.026 382.657 330.772C384.786 324.873 389.044 320.553 394.693 318.683C400.647 316.689 407.599 317.645 413.726 321.342C422.373 326.618 427.284 335.133 427.284 343.4ZM386.698 340.077C386.698 347.595 390.478 354.699 396.736 357.731C404.948 361.678 415.29 358.521 419.766 350.628C424.285 342.777 420.201 331.685 410.684 325.953C405.948 323.087 400.951 322.339 396.518 323.834C392.521 325.164 389.479 328.279 387.915 332.599C387.089 335.05 386.698 337.584 386.698 340.077Z" fill="#A7CEFC"/>
</svg>
