<svg width="320" height="762" viewBox="0 0 320 762" fill="none" xmlns="http://www.w3.org/2000/svg">
<g opacity="0.3">
<path d="M20.5359 671.304C16.9085 670.783 13.5036 669.774 10.3616 668.285C3.77254 665.159 -1.72 659.898 -5.96329 652.644C-10.5248 644.85 -13.6869 634.668 -15.3638 622.383C-18.7332 597.689 -16.3361 569.04 -14.018 541.334C-13.5633 535.893 -13.0929 530.268 -12.6774 524.804C-9.85227 487.56 -9.83791 454.584 -12.6318 423.99C-18.2055 362.96 -34.0984 309.276 -58.594 268.742C-86.9233 221.866 -123.356 195.31 -161.183 193.965C-183.415 193.175 -217.552 211.134 -239.781 246.984C-252.973 268.261 -259.805 292.995 -259.535 318.507L-259.688 318.593C-259.829 305.213 -258.059 292.074 -254.426 279.541C-251.093 268.044 -246.196 257.041 -239.87 246.838C-229.808 230.61 -216.475 216.861 -201.313 207.076C-187.302 198.036 -173.032 193.29 -161.128 193.714C-141.333 194.419 -121.977 201.944 -103.6 216.082C-86.9412 228.9 -71.756 246.548 -58.4671 268.537C-33.9568 309.094 -18.0539 362.808 -12.4776 423.873C-9.68308 454.488 -9.69759 487.483 -12.5235 524.746C-12.9376 530.211 -13.4086 535.838 -13.8647 541.279C-16.182 568.965 -18.577 597.593 -15.2115 622.251C-11.9575 646.1 -3.32365 661.505 10.4487 668.036C29.5209 677.081 57.7228 667.944 85.8878 643.591C126.475 608.498 162.181 554.062 196.712 501.421C202.765 492.193 209.023 482.652 215.158 473.452C231.085 449.561 252.286 418.684 275.04 391.732C298.298 364.183 319.83 344.581 340.867 331.802C353.743 323.981 366.486 319.295 378.742 317.877C390.063 316.566 401.338 318.003 412.254 322.145C430.979 329.251 449.286 344.356 468.223 368.32C505.507 415.511 540.578 471.326 572.459 534.22C602.761 593.997 630.459 660.694 654.784 732.45L654.643 732.619C604.22 583.872 541.46 461.377 468.105 368.534C426.662 316.081 386.234 304.481 340.875 332.032C294.729 360.059 253.222 416.637 215.24 473.605C209.107 482.803 202.85 492.344 196.797 501.571C162.255 554.232 126.538 608.684 85.9223 643.801C72.7974 655.15 59.1362 663.51 46.4174 667.976C39.6985 670.335 33.293 671.589 27.3766 671.703C25.0168 671.756 22.7349 671.62 20.5359 671.304Z" fill="#FFE492"/>
<path d="M27.5554 657.957C18.305 656.628 10.5146 652.292 4.39253 645.064C-2.43407 637.003 -7.14918 625.355 -9.62376 610.446C-9.84235 609.125 -10.0462 607.763 -10.2293 606.393C-13.526 581.815 -11.4249 553.501 -9.3913 526.117C-8.9815 520.583 -8.5561 514.859 -8.18626 509.299C-5.98571 476.19 -5.94553 446.736 -8.06647 419.258C-8.32811 415.876 -8.6258 412.48 -8.95435 409.167C-14.9494 348.595 -31.2299 295.507 -56.0353 255.64C-84.8205 209.43 -121.585 183.707 -159.556 183.213C-181.759 182.954 -215.854 201.292 -238.065 236.845C-251.365 258.135 -258.467 282.881 -258.607 308.409L-258.761 308.489C-258.688 295.109 -256.743 281.97 -252.98 269.44C-249.523 257.933 -244.536 246.917 -238.154 236.699C-228.04 220.509 -214.731 206.739 -199.669 196.878C-185.748 187.764 -171.485 182.822 -159.506 182.964C-139.624 183.223 -120.136 190.313 -101.585 204.036C-84.7811 216.467 -69.4144 233.761 -55.9118 255.438C-31.0917 295.327 -14.8032 348.447 -8.80359 409.053C-8.47566 412.368 -8.1772 415.767 -7.91618 419.152C-5.79397 446.648 -5.83369 476.117 -8.03574 509.243C-8.40419 514.804 -8.82959 520.528 -9.24001 526.065C-11.2706 553.431 -13.3711 581.725 -10.0789 606.269C-9.89597 607.633 -9.69211 608.995 -9.47432 610.313C-4.36281 641.133 9.69862 655.392 27.5989 657.963C27.6971 657.977 27.794 657.991 27.8922 658.005C27.7806 657.987 27.6677 657.973 27.5554 657.957ZM31.4171 658.332C48.4362 659.216 68.4334 650.407 87.3679 635.751C128.248 603.986 165.147 551.157 200.831 500.068C202.301 497.962 203.769 495.86 205.238 493.759C208.462 489.147 212.283 483.688 216.164 478.188C233.575 453.526 254.338 424.904 276.328 399.615C299.725 372.707 321.219 353.332 342.036 340.381C354.824 332.434 367.506 327.363 379.728 325.31C391.051 323.407 402.357 324.033 413.328 327.17C432.281 332.592 450.886 345.497 470.207 366.625C489.051 387.198 504.026 406.166 517.333 426.32C536.178 454.895 552.88 487.1 566.733 514.832C598.897 579.474 628.216 651.839 653.875 729.921L653.734 730.088C628.078 652.017 598.762 579.657 566.602 515.024C552.751 487.294 536.052 455.095 517.211 426.528C503.907 406.38 488.937 387.417 470.095 366.85C428.006 320.822 387.316 312.484 342.044 340.613C295.048 369.846 252.466 427.039 216.241 478.353C212.358 483.852 208.539 489.31 205.314 493.924C203.846 496.023 202.377 498.126 200.907 500.232C165.212 551.338 128.3 604.186 87.3904 635.974C77.256 643.818 67.079 649.744 57.1411 653.584C47.8917 657.153 39.257 658.746 31.4171 658.332Z" fill="#FFE492"/>
<path d="M34.8649 644.977C33.7521 644.817 32.6569 644.616 31.5812 644.372C22.5196 642.325 14.9034 637.358 8.9463 629.604C2.43119 621.125 -2.09185 609.302 -4.49509 594.462C-4.70744 593.139 -4.90787 591.775 -5.08819 590.406C-8.31096 565.956 -6.50286 537.981 -4.75345 510.931C-4.38888 505.293 -4.01226 499.462 -3.69181 493.797C-1.80904 460.756 -2.01248 431.503 -4.31611 404.365C-4.60204 401.01 -4.92338 397.639 -5.27499 394.349C-11.692 334.236 -28.3601 281.743 -53.4754 242.545C-82.7152 197 -119.81 172.109 -157.927 172.465C-179.401 172.715 -213.094 189.787 -236.322 226.673C-249.742 247.984 -257.126 272.758 -257.676 298.317L-257.829 298.39C-257.542 284.999 -255.418 271.855 -251.522 259.322C-247.938 247.794 -242.854 236.762 -236.409 226.527C-226.244 210.385 -212.965 196.606 -198.005 186.674C-184.176 177.492 -169.925 172.359 -157.879 172.218C-137.908 172.034 -118.287 178.687 -99.5633 191.993C-82.6141 204.04 -67.0666 220.979 -53.3519 242.342C-28.2225 281.566 -11.5458 334.088 -5.12423 394.235C-4.77324 397.528 -4.45051 400.898 -4.16585 404.259C-1.86171 431.412 -1.65841 460.683 -3.54271 493.742C-3.86377 499.409 -4.24039 505.24 -4.60497 510.878C-6.35205 537.913 -8.15942 565.868 -4.94104 590.289C-4.76072 591.658 -4.56249 593.019 -4.34889 594.336C5.41684 654.638 49.4995 654.646 88.8532 627.907C130.258 599.535 168.655 548.01 205.788 498.182L206.169 497.671C209.767 492.84 213.486 487.848 217.178 482.921C256.127 430.945 297.943 377.786 343.213 348.955C355.918 340.88 368.539 335.424 380.723 332.737C392.056 330.238 403.391 330.054 414.412 332.19C433.627 335.914 452.53 346.621 472.202 364.924C492.889 384.103 507.804 401.143 520.561 420.177C538.725 447.345 554.569 480.654 568.546 510.042C599.588 575.791 627.994 648.915 652.976 727.379L652.835 727.543C627.855 649.088 599.451 575.972 568.414 510.228C554.438 480.845 538.597 447.542 520.438 420.383C507.687 401.354 492.777 384.32 472.096 365.147C429.455 325.474 388.506 320.4 343.224 349.179C297.983 377.992 256.184 431.128 217.25 483.085C213.558 488.012 209.838 493.007 206.241 497.835L205.86 498.346C187.355 523.177 168.221 548.852 148.842 571.458C127.063 596.861 107.446 615.398 88.8679 628.127C69.4655 641.309 50.4484 647.216 34.8649 644.977Z" fill="#FFE492"/>
<path d="M651.928 724.996C627.623 646.156 600.132 572.284 570.218 505.433C568.945 502.621 567.673 499.795 566.396 496.961C553.408 468.125 539.978 438.308 523.659 414.238C507.813 390.943 489.71 375.491 474.09 363.448C431.015 330.044 389.804 328.233 344.397 357.745C297.758 388.147 253.674 443.412 218.252 487.821C216.126 490.486 214.001 493.157 211.873 495.83C210.303 497.804 208.731 499.777 207.16 501.748C186.984 527.061 168.738 549.663 149.752 569.951C128.062 593.127 108.628 609.591 90.3363 620.285C73.1938 630.308 56.5094 634.517 42.4759 632.504C39.9191 632.137 37.4529 631.564 35.0848 630.781C26.4389 627.921 19.1717 622.333 13.4859 614.17C7.28131 605.263 2.95288 593.256 0.618006 578.479C0.410471 577.155 0.214888 575.789 0.0380007 574.418C-3.10851 550.104 -1.59154 522.485 -0.123957 495.777C0.192319 490.024 0.519004 484.073 0.790321 478.291C2.35297 445.308 1.90506 416.253 -0.57611 389.465C-0.885035 386.132 -1.23206 382.788 -1.60592 379.523C-8.44627 319.87 -25.5006 267.972 -50.9237 229.44C-80.6181 184.56 -118.043 160.506 -156.305 161.705C-182.484 162.612 -214.662 185.125 -234.557 216.448C-248.112 237.789 -255.785 262.603 -256.751 288.21L-256.905 288.278C-256.399 274.87 -254.096 261.711 -250.059 249.164C-246.343 237.612 -241.156 226.556 -234.644 216.3C-224.429 200.217 -211.181 186.432 -196.332 176.441C-182.598 167.2 -168.367 161.877 -156.258 161.458C-136.199 160.828 -116.447 167.046 -97.5504 179.936C-80.457 191.598 -64.7265 208.184 -50.799 229.232C-25.3597 267.787 -8.29684 319.714 -1.45253 379.404C-1.0779 382.672 -0.731496 386.018 -0.42254 389.351C2.0605 416.155 2.50749 445.225 0.945301 478.223C0.67339 484.008 0.347299 489.956 0.0304295 495.712C-1.43624 522.405 -2.95167 550.006 0.190427 574.291C0.367938 575.659 0.562754 577.023 0.769492 578.344C10.8118 641.905 55.2936 640.535 90.3324 620.051C132.137 595.609 171.959 545.65 207.096 501.57C208.667 499.596 210.238 497.622 211.809 495.651C213.936 492.978 216.061 490.308 218.187 487.642C238.407 462.294 258.266 437.692 278.918 415.359C302.667 389.675 324.082 370.755 344.387 357.518C357.012 349.312 369.57 343.47 381.712 340.156C393.061 337.057 404.425 336.065 415.491 337.203C435.007 339.212 454.209 347.722 474.191 363.216C489.816 375.265 507.928 390.724 523.782 414.033C540.109 438.112 553.541 467.937 566.532 496.779C567.808 499.612 569.081 502.438 570.354 505.251C600.271 572.107 627.765 645.986 652.072 724.835L651.928 724.996Z" fill="#FFE492"/>
<path d="M651.025 722.45C626.944 641.719 600.367 567.089 572.026 500.637C570.33 496.661 568.603 492.565 566.931 488.606C554.962 460.249 542.586 430.927 526.885 408.091C511.188 385.359 492.4 371.905 476.088 361.744C432.721 334.503 391.248 335.954 345.574 366.31C301.978 395.387 261.667 442.739 222.683 488.53L218.402 493.557C215.021 497.528 211.526 501.632 208.085 505.657C169.146 551.16 130.953 593.564 91.8118 612.436C82.3136 617.016 73.0408 619.803 64.2466 620.726C54.8035 621.715 46.1737 620.509 38.5963 617.139C30.3663 613.478 23.4486 607.279 18.0356 598.712C12.1447 589.389 8.00824 577.201 5.74253 562.49C5.53966 561.159 5.34888 559.791 5.17559 558.423C2.10442 534.262 3.33414 507.011 4.52384 480.658C4.78923 474.777 5.06294 468.696 5.28261 462.783C6.52018 429.856 5.8306 401 3.17348 374.565C2.84103 371.262 2.47098 367.941 2.0727 364.698C-5.1896 305.505 -22.6301 254.203 -48.3639 216.336C-78.5155 172.126 -116.271 148.903 -154.68 150.95C-180.769 152.445 -212.877 175.157 -232.759 206.185C-246.459 227.563 -254.435 252.435 -255.824 278.111L-255.978 278.174C-255.251 264.739 -252.763 251.555 -248.584 238.99C-244.731 227.407 -239.436 216.32 -232.847 206.039C-222.583 190.022 -209.372 176.248 -194.64 166.204C-181.006 156.907 -166.799 151.404 -154.636 150.705C-134.489 149.631 -114.606 155.412 -95.5355 167.887C-78.2964 179.165 -62.3852 195.395 -48.2441 216.13C-22.4949 254.017 -5.04501 305.351 2.22187 364.578C2.61953 367.824 2.99037 371.148 3.32282 374.451C5.98243 400.899 6.67249 429.771 5.43341 462.715C5.21372 468.628 4.93944 474.712 4.67405 480.592C3.48526 506.931 2.25583 534.168 5.32396 558.301C5.4971 559.664 5.68846 561.029 5.88992 562.36C15.5378 625 56.6013 629.179 91.8142 612.2C130.924 593.344 169.101 550.956 208.023 505.474C211.464 501.449 214.96 497.345 218.341 493.373L222.621 488.347C241.757 465.87 261.544 442.626 282.051 421.305C305.277 397.158 326.051 379.095 345.559 366.082C358.111 357.74 370.608 351.512 382.702 347.574C394.072 343.87 405.467 342.067 416.569 342.214C436.435 342.476 455.932 348.788 476.18 361.506C492.498 371.673 511.298 385.131 527.004 407.883C542.714 430.727 555.094 460.058 567.066 488.423C568.737 492.382 570.465 496.475 572.161 500.453C600.504 566.912 627.085 641.547 651.167 722.286L651.025 722.45Z" fill="#FFE492"/>
<path d="M650.119 719.907C626.613 638.4 600.946 563.014 573.83 495.845C571.792 490.798 569.72 485.556 567.716 480.487C556.67 452.55 545.248 423.662 530.104 401.952C514.419 379.573 495.006 368.21 478.082 360.048C434.597 338.83 392.863 343.545 346.746 374.882C306.466 402.365 268.597 444.074 231.975 484.409C228.121 488.654 224.136 493.041 220.26 497.291C215.708 502.281 212.236 506.071 209.004 509.574C191.699 528.328 171.296 549.853 151.173 567.305C129.849 585.796 110.912 597.994 93.2805 604.597C84.0091 608.069 75.0348 609.81 66.606 609.768C57.5556 609.724 49.3099 607.617 42.1007 603.503C34.2897 599.046 27.7228 592.236 22.5791 583.261C17.0014 573.529 13.0597 561.162 10.8614 546.507C10.6649 545.18 10.4776 543.81 10.3069 542.437C7.31379 518.445 8.26017 491.577 9.17388 465.594C9.38575 459.568 9.60511 453.337 9.76988 447.278C10.6806 414.397 9.74736 385.741 6.91663 359.669C6.56053 356.391 6.16619 353.097 5.74486 349.876C-1.9394 291.142 -19.7675 240.436 -45.8106 203.234C-76.4159 159.692 -114.503 137.306 -153.056 140.197C-175.019 141.943 -207.616 159.838 -230.931 195.876C-244.794 217.303 -253.082 242.247 -254.899 268.011L-255.051 268.066C-254.102 254.594 -251.424 241.378 -247.093 228.784C-243.096 217.16 -237.688 206.038 -231.016 195.725C-220.704 179.787 -207.534 166.032 -192.927 155.945C-179.394 146.6 -165.22 140.92 -153.012 139.949C-132.777 138.432 -112.761 143.775 -93.5196 155.833C-76.1362 166.727 -60.0434 182.604 -45.6901 203.026C-19.6317 240.248 -1.79356 290.984 5.89525 349.751C6.31662 352.972 6.71108 356.271 7.06659 359.552C9.89842 385.638 10.8321 414.308 9.92189 447.205C9.75793 453.267 9.53857 459.497 9.32669 465.524C8.41189 491.494 7.46783 518.347 10.4573 542.312C10.6286 543.683 10.8152 545.05 11.0123 546.375C18.9062 599.015 49.6673 620.689 93.2971 604.351C132.808 589.556 172.097 549.32 208.953 509.377C212.185 505.874 215.655 502.084 220.207 497.093C224.084 492.844 228.069 488.457 231.922 484.212C249.952 464.355 268.593 443.822 287.747 424.84C309.406 403.372 328.702 386.955 346.734 374.652C359.221 366.167 371.655 359.554 383.693 354.998C395.095 350.681 406.519 348.069 417.649 347.23C437.913 345.707 457.709 349.819 478.169 359.802C495.101 367.97 514.529 379.337 530.226 401.737C545.38 423.461 556.804 452.357 567.854 480.302C569.858 485.37 571.93 490.612 573.968 495.66C601.085 562.837 626.755 638.228 650.264 719.741L650.119 719.907Z" fill="#FFE492"/>
<path d="M649.211 717.365C626.284 635.078 601.529 558.933 575.634 491.053C573.43 485.279 571.198 479.229 569.038 473.38C558.749 445.516 548.112 416.705 533.325 395.81C517.568 373.661 497.566 364.444 480.078 358.348C437.287 343.187 394.057 351.398 347.919 383.451C311.148 409.108 276.031 445.452 242.07 480.602C235.21 487.701 228.117 495.044 221.26 502.028C217.065 506.303 213.357 510.054 209.922 513.493C193.954 529.465 172.924 549.865 151.876 565.981C130.728 582.173 112.041 592.241 94.7474 596.757C75.8857 601.684 58.891 599.299 45.6007 589.864C38.2116 584.617 31.9935 577.198 27.1188 567.811C21.8559 557.676 18.1083 545.132 15.9767 530.53C15.785 529.2 15.6025 527.828 15.4347 526.456C12.5216 502.656 13.1868 476.191 13.8307 450.599C13.9864 444.408 14.148 438.008 14.253 431.782C14.8325 398.94 13.6568 370.48 10.6571 344.781C10.2773 341.527 9.8593 338.258 9.41429 335.062C1.30809 276.788 -16.9056 226.675 -43.2592 190.144C-74.3188 147.272 -112.737 125.721 -151.436 129.454C-177.696 132.116 -208.896 154.651 -229.071 185.526C-243.111 207.012 -251.723 232.046 -253.976 257.922L-254.128 257.969C-252.951 244.448 -250.079 231.188 -245.593 218.56C-241.447 206.887 -235.916 195.722 -229.155 185.373C-218.798 169.523 -205.674 155.798 -191.2 145.681C-177.776 136.298 -163.637 130.444 -151.394 129.204C-131.071 127.242 -110.923 132.151 -91.5083 143.791C-73.9793 154.301 -57.7049 169.824 -43.1389 189.931C-16.7706 226.484 1.45377 276.625 9.56533 334.935C10.0103 338.131 10.4277 341.403 10.8082 344.659C13.8085 370.374 14.9853 398.846 14.4063 431.704C14.3013 437.93 14.1391 444.333 13.9834 450.524C13.3398 476.103 12.6749 502.555 15.5851 526.332C15.7529 527.704 15.9353 529.071 16.1269 530.4C23.7521 582.669 53.1525 607.382 94.7739 596.512C132.718 586.601 172.519 550.657 209.876 513.294C213.309 509.855 217.018 506.107 221.212 501.831C228.068 494.847 235.161 487.507 242.019 480.408C275.988 445.251 311.112 408.897 347.9 383.23C360.334 374.591 372.707 367.595 384.677 362.429C396.124 357.491 407.578 354.069 418.72 352.257C439.442 348.89 459.536 350.805 480.151 358.108C497.651 364.207 517.671 373.43 533.443 395.604C548.241 416.513 558.883 445.335 569.175 473.21C571.335 479.059 573.568 485.106 575.772 490.88C601.668 558.766 626.426 634.916 649.355 717.209L649.211 717.365Z" fill="#FFE492"/>
<path d="M648.31 714.82C625.967 631.744 602.124 554.846 577.444 486.259C575.176 479.956 572.886 473.298 570.673 466.859C561.047 438.867 551.095 409.921 536.55 389.666C520.665 367.668 500.1 360.631 482.076 356.647C439.658 347.027 396.159 358.596 349.096 392.018C316.058 415.586 284.045 446.822 253.084 477.028C242.439 487.415 232.383 497.226 222.267 506.762C218.151 510.643 214.416 514.126 210.847 517.405C187.822 538.538 169.31 553.55 152.588 564.646C131.609 578.568 113.172 586.506 96.2227 588.911C89.6478 589.843 83.3229 589.87 77.335 589.01C66.7206 587.485 57.1593 583.18 49.1088 576.215C34.5397 563.61 25.1168 542.861 21.1016 514.542C20.9144 513.2 20.7361 511.829 20.5726 510.462C17.7412 486.876 18.1308 460.843 18.5085 435.665C18.6037 429.285 18.7033 422.692 18.7463 416.272C18.9914 383.459 17.5707 355.2 14.4076 329.879C14.0042 326.651 13.5625 323.406 13.0939 320.235C4.56572 262.421 -14.0356 212.903 -40.6985 177.038C-72.2131 134.839 -110.961 114.119 -149.806 118.695C-176.321 121.954 -206.685 144.096 -227.161 175.108C-241.394 196.663 -250.343 221.805 -253.043 247.816L-253.194 247.859C-251.784 234.276 -248.713 220.963 -244.064 208.289C-239.761 196.557 -234.103 185.343 -227.243 174.955C-216.845 159.206 -203.774 145.524 -189.44 135.387C-176.126 125.97 -162.037 119.955 -149.765 118.447C-129.355 116.042 -109.074 120.514 -89.4876 131.737C-71.8135 141.866 -55.359 157.035 -40.5781 176.824C-13.9006 212.712 4.7114 262.257 13.2455 320.105C13.7136 323.279 14.1552 326.524 14.5594 329.755C17.725 355.089 19.1462 383.363 18.9007 416.189C18.8578 422.609 18.759 429.205 18.6624 435.584C18.285 460.75 17.895 486.772 20.7244 510.338C20.8885 511.702 21.0654 513.073 21.2532 514.412C28.7499 567.298 56.089 594.361 96.2609 588.66C134.502 583.234 175.624 549.489 210.809 517.194C214.377 513.916 218.112 510.435 222.227 506.554C232.342 497.018 242.398 487.209 253.043 476.822C284.008 446.609 316.028 415.369 349.078 391.792C361.477 382.987 373.789 375.605 385.672 369.847C397.182 364.272 408.666 360.039 419.805 357.269C441.046 351.987 461.439 351.702 482.145 356.398C500.183 360.384 520.767 367.429 536.67 389.453C551.227 409.722 561.184 438.682 570.813 466.684C573.027 473.123 575.316 479.781 577.583 486.081C602.264 554.674 626.108 631.58 648.453 714.661L648.31 714.82Z" fill="#FFE492"/>
<path d="M647.412 712.274C625.35 627.225 603.056 551.726 579.257 481.463C576.985 474.759 574.807 467.933 572.499 460.706C563.48 432.456 554.154 403.246 539.778 383.522C523.633 361.495 501.531 356.679 484.079 354.947C442.389 350.568 398.62 365.497 350.276 400.588C321.24 421.76 292.73 448.099 265.158 473.572C250.668 486.96 236.982 499.602 223.275 511.498C219.205 515.033 215.442 518.245 211.773 521.319C189.035 540.343 170.457 553.685 153.301 563.309C132.478 574.99 114.291 580.798 97.6998 581.065C89.1754 581.202 81.0984 579.785 73.6928 576.856C65.8521 573.753 58.7619 568.944 52.6193 562.563C39.0043 548.419 30.1252 526.886 26.2283 498.559C26.046 497.215 25.8726 495.842 25.7119 494.476C22.9645 471.14 23.0851 445.566 23.2011 420.834C23.2321 414.236 23.2643 407.412 23.2408 400.77C23.1459 367.98 21.4835 339.919 18.1581 314.986C17.7296 311.782 17.2643 308.562 16.7748 305.416C7.82467 248.061 -11.1629 199.139 -38.1349 163.939C-63.059 131.566 -92.3098 112.341 -122.465 108.01C-130.99 106.786 -139.58 106.751 -148.173 107.944C-174.513 111.738 -204.75 133.994 -225.209 164.644C-239.65 186.28 -248.952 211.55 -252.11 237.721L-252.261 237.756C-250.614 224.1 -247.336 210.721 -242.519 197.994C-238.053 186.196 -232.257 174.923 -225.292 164.488C-214.856 148.852 -201.843 135.226 -187.659 125.081C-174.27 115.502 -160.603 109.491 -148.138 107.698C-127.639 104.85 -107.226 108.886 -87.467 119.691C-69.648 129.433 -53.0099 144.247 -38.0168 163.723C-11.0294 198.943 7.9702 247.893 16.9263 305.281C17.4172 308.427 17.8833 311.65 18.3111 314.856C21.6377 339.803 23.3012 367.876 23.3966 400.682C23.4201 407.324 23.3892 414.148 23.3576 420.749C23.2414 445.47 23.1204 471.034 25.8651 494.352C26.0264 495.716 26.1998 497.089 26.3814 498.43C33.6691 551.4 59.6816 581.425 97.7512 580.814C136.274 580.193 178.907 548.575 211.746 521.1C215.415 518.026 219.177 514.813 223.246 511.281C236.95 499.39 250.636 486.745 265.124 473.36C292.7 447.884 321.214 421.539 350.26 400.36C375.15 382.294 398.253 369.841 420.892 362.286C442.725 355 463.415 352.517 484.143 354.694C495.984 355.87 505.321 358.124 513.528 361.784C524.124 366.51 532.75 373.549 539.902 383.307C554.291 403.047 563.621 432.273 572.645 460.537C574.951 467.764 577.132 474.588 579.4 481.291C603.2 551.557 625.496 627.061 647.56 712.116L647.412 712.274Z" fill="#FFE492"/>
<path d="M646.502 709.729C625.04 623.869 603.632 547.636 581.058 476.667C578.826 469.646 576.695 462.437 574.439 454.805C565.988 426.21 557.251 396.639 542.996 377.377C526.657 355.413 503.992 352.942 486.073 353.242C445.578 353.703 401.541 371.992 351.447 409.151C326.739 427.562 302.194 449.166 278.456 470.061C259.69 486.577 241.967 502.18 224.276 516.225C220.277 519.403 216.378 522.432 212.691 525.224C190.473 542.037 171.277 554.052 154.006 561.957C133.327 571.424 115.389 575.107 99.1681 573.212C90.9154 572.247 83.136 569.777 76.0519 565.865C68.6259 561.764 61.9207 556.056 56.1229 548.897C43.4681 533.271 35.1312 510.955 31.3456 482.566C31.1697 481.226 30.9997 479.851 30.8422 478.477C28.183 455.434 28.0409 430.363 27.9027 406.117C27.8639 399.258 27.8233 392.162 27.7265 385.255C27.2883 352.478 25.3822 324.618 21.901 300.08C21.4489 296.901 20.9599 293.706 20.4468 290.584C11.0747 233.69 -8.30044 185.363 -35.5818 150.829C-68.0056 109.978 -107.417 90.9268 -146.552 97.1836C-172.692 101.49 -202.787 123.836 -223.223 154.107C-237.89 175.836 -247.559 201.254 -251.188 227.616L-251.337 227.643C-249.446 213.902 -245.956 200.446 -240.96 187.653C-236.323 175.777 -230.383 164.437 -223.304 153.95C-212.835 138.441 -199.888 124.883 -185.861 114.74C-172.595 105.147 -158.99 98.9908 -146.516 96.9351C-125.929 93.6455 -105.384 97.2425 -85.4532 107.631C-67.4898 116.994 -50.6715 131.454 -35.465 150.612C-8.16635 185.164 11.2188 233.521 20.5955 290.449C21.11 293.571 21.5998 296.768 22.0513 299.95C25.535 324.502 27.4408 352.374 27.8801 385.165C27.9783 392.071 28.0175 399.167 28.0571 406.029C28.195 430.264 28.3367 455.325 30.994 478.353C31.1521 479.724 31.3221 481.099 31.4972 482.437C38.7144 536.554 62.7675 568.707 99.2286 572.96C128.813 576.414 164.859 561.173 212.669 524.998C216.355 522.206 220.252 519.179 224.251 516.001C241.937 501.957 259.659 486.36 278.421 469.844C302.163 448.946 326.713 427.337 351.427 408.923C376.684 390.186 399.757 376.573 421.964 367.297C444.462 357.902 465.449 353.219 486.124 352.985C504.063 352.683 526.753 355.161 543.118 377.159C557.387 396.443 566.13 426.028 574.585 454.636C576.839 462.268 578.97 469.474 581.202 476.493C603.779 547.465 625.187 623.703 646.649 709.568L646.502 709.729Z" fill="#FFE492"/>
<path d="M645.601 707.187C624.744 620.514 604.225 543.542 582.869 471.877C580.701 464.601 578.647 457.07 576.474 449.096C568.568 420.09 560.391 390.097 546.224 371.237C529.667 349.314 506.451 349.196 488.074 351.542C448.876 356.357 405.837 377.387 352.625 417.722C332.648 432.929 312.603 449.879 293.218 466.27C269.673 486.178 247.434 504.984 225.282 520.963C221.29 523.845 217.364 526.598 213.615 529.14C191.538 544.101 172.273 554.397 154.72 560.611C144.888 564.092 135.493 566.287 126.796 567.137C117.519 568.043 108.72 567.448 100.643 565.37C84.2555 561.153 70.4582 551.015 59.6348 535.239C47.9459 518.201 40.1521 495.104 36.472 466.585C36.3014 465.235 36.1362 463.858 35.9797 462.492C33.4139 439.795 33.0171 415.282 32.6341 391.579C32.5176 384.403 32.3983 376.983 32.2193 369.754C31.4313 336.98 29.2822 309.319 25.6497 285.187C25.1745 282.03 24.6605 278.86 24.1244 275.766C14.3311 219.329 -5.43029 171.597 -33.0221 137.734C-65.9002 97.5589 -105.641 79.3418 -144.924 86.4362C-187.036 94.2365 -239.282 146.571 -250.257 217.522L-250.406 217.542C-247.661 199.793 -242.375 182.679 -234.695 166.67C-227.682 152.049 -218.819 138.614 -208.353 126.742C-198.622 115.703 -187.959 106.497 -176.661 99.3794C-165.917 92.6101 -154.93 88.0467 -144.89 86.1872C-124.215 82.454 -103.538 85.6163 -83.435 95.5887C-65.3266 104.57 -48.3267 118.677 -32.9074 137.52C-5.30088 171.406 14.4725 219.164 24.2725 275.633C24.8093 278.73 25.3234 281.9 25.7993 285.06C29.4335 309.202 31.5831 336.879 32.3722 369.666C32.5512 376.895 32.6706 384.314 32.7865 391.493C33.1699 415.189 33.5664 439.692 36.1311 462.376C36.2861 463.741 36.4499 465.118 36.6212 466.465C43.6955 521.274 66.4578 556.31 100.713 565.126C129.713 572.586 166.638 560.744 213.599 528.917C217.348 526.375 221.272 523.624 225.263 520.742C247.409 504.768 269.645 485.964 293.186 466.058C312.574 449.665 332.621 432.712 352.601 417.504C405.835 377.151 448.893 356.114 488.113 351.294C500.461 349.718 510.273 350.055 518.992 352.361C530.138 355.308 539.083 361.412 546.341 371.023C560.525 389.904 568.706 419.916 576.617 448.938C578.791 456.909 580.843 464.44 583.01 471.713C604.368 543.383 624.887 620.358 645.745 707.036L645.601 707.187Z" fill="#FFE492"/>
<path d="M644.7 704.641C624.454 617.142 604.819 539.437 584.679 467.08C582.595 459.593 580.638 451.784 578.568 443.512C571.187 414.048 563.556 383.58 549.45 365.09C532.47 342.942 507.432 345.777 490.076 349.835C443.022 360.64 394.784 394.544 353.804 426.289C339.061 437.751 324.154 449.995 309.735 461.835C280.812 485.587 253.495 508.021 226.291 525.696C222.289 528.297 218.337 530.772 214.541 533.054C192.549 546.246 173.216 554.819 155.437 559.258C135.283 564.291 117.345 563.709 102.12 557.523C86.4791 551.168 73.367 539.072 63.1504 521.572C52.4338 503.217 45.1831 479.34 41.5973 450.601C41.4323 449.252 41.2705 447.873 41.1181 446.503C38.651 424.23 38.0132 400.354 37.3954 377.262C37.1938 369.695 36.9834 361.872 36.713 354.249C35.5555 321.011 33.2309 294.335 29.4007 270.29C28.9019 267.158 28.365 264.015 27.8045 260.943C17.5857 204.968 -2.56323 157.832 -30.4637 124.631C-63.7966 85.1344 -103.868 67.7491 -143.297 75.6812C-185.785 84.4066 -237.062 136.068 -249.328 207.423L-249.475 207.435C-246.431 189.732 -240.949 172.664 -233.182 156.706C-226.064 142.085 -217.167 128.639 -206.735 116.747C-197.006 105.657 -186.366 96.3679 -175.107 89.1343C-164.386 82.2462 -153.374 77.5094 -143.263 75.4322C-122.499 71.2556 -101.691 73.9829 -81.416 83.5366C-63.1625 92.136 -45.9811 105.89 -30.3483 124.415C-2.43054 157.633 17.7291 204.796 27.951 260.805C28.5108 263.88 29.0485 267.025 29.5488 270.157C33.3821 294.213 35.7058 320.905 36.8644 354.155C37.1348 361.779 37.3446 369.604 37.5462 377.171C38.1644 400.255 38.8026 424.123 41.2667 446.385C41.4191 447.756 41.5801 449.132 41.7451 450.481C48.7161 506.346 70.185 544.275 102.198 557.281C130.909 568.946 167.654 560.944 214.533 532.822C218.328 530.542 222.279 528.07 226.278 525.468C253.475 507.797 280.789 485.368 309.707 461.618C324.125 449.778 339.035 437.532 353.779 426.067C381.336 404.724 403.69 389.241 424.126 377.343C448.183 363.337 469.764 354.259 490.104 349.588C502.517 346.686 512.862 346.049 521.73 347.646C533.147 349.701 542.253 355.336 549.567 364.876C563.692 383.389 571.328 413.876 578.712 443.358C580.783 451.628 582.739 459.437 584.823 466.918C604.965 539.278 624.598 616.989 644.847 704.49L644.7 704.641Z" fill="#FFE492"/>
<path d="M643.793 702.096C624.16 613.771 605.414 535.329 586.483 462.284C584.497 454.624 582.651 446.57 580.698 438.04C573.832 408.079 566.733 377.098 552.669 358.947C535.44 336.809 509.834 342.172 492.071 348.133C448.246 362.68 404.054 396.017 354.976 434.857C346.117 441.892 337.115 449.173 328.408 456.217C294.924 483.305 260.301 511.313 227.291 530.43C223.28 532.756 219.298 534.955 215.458 536.967C193.807 548.293 173.853 555.336 156.147 557.902C136.089 560.808 118.407 558.04 103.586 549.678C88.6988 541.277 76.274 527.222 66.6555 507.903C56.9221 488.352 50.2111 463.696 46.7096 434.62C46.5494 433.27 46.3925 431.889 46.2429 430.519C43.8861 408.775 43.0204 385.64 42.183 363.268C41.8812 355.207 41.5694 346.872 41.1925 338.752C39.6691 305.495 37.1089 279.01 33.1361 255.401C32.6145 252.302 32.0532 249.181 31.4688 246.129C20.8342 190.606 0.30044 144.066 -27.9127 111.533C-61.6991 72.7145 -102.1 56.1636 -141.677 64.9305C-183.033 74.2416 -234.492 123.806 -248.407 197.326L-248.552 197.33C-245.21 179.67 -239.532 162.651 -231.677 146.744C-224.455 132.119 -215.522 118.666 -205.126 106.754C-185.945 84.7787 -162.808 69.4441 -141.646 64.6812C-120.795 60.0634 -99.8541 62.3536 -79.4058 71.4886C-61.0079 79.7089 -43.6457 93.1069 -27.7996 111.314C0.429534 143.864 20.9747 190.434 31.6186 245.984C32.2037 249.038 32.765 252.159 33.2874 255.261C37.2613 278.883 39.8233 305.379 41.3463 338.648C41.7227 346.771 42.0359 355.106 42.3376 363.167C43.1748 385.534 44.0404 408.663 46.3955 430.397C46.5437 431.767 46.7012 433.145 46.8614 434.496C53.8664 492.668 73.5122 532.414 103.674 549.437C131.603 565.198 169.211 560.924 215.456 536.73C219.295 534.719 223.273 532.522 227.282 530.199C260.28 511.087 294.899 483.083 328.377 456C337.084 448.956 346.086 441.675 354.946 434.64C376.429 417.638 401.347 398.176 425.198 382.365C450.147 365.827 472.026 354.551 492.086 347.892C504.727 343.651 515.317 342.029 524.458 342.937C535.986 344.08 545.514 349.396 552.782 358.735C559.082 366.866 564.574 378.438 569.57 394.115C573.983 407.957 577.469 423.176 580.841 437.892C582.794 446.418 584.64 454.473 586.625 462.13C605.557 535.178 624.304 613.622 643.937 701.95L643.793 702.096Z" fill="#FFE492"/>
<path d="M642.893 699.55C623.88 610.391 606.02 531.213 588.294 457.49C586.416 449.684 584.692 441.411 582.867 432.654C576.508 402.164 569.935 370.635 555.897 352.806C542.768 336.189 522.545 334.104 494.072 346.432C454.295 363.544 414.438 395.999 372.238 430.363C366.984 434.642 361.552 439.065 356.155 443.429C354.041 445.143 351.924 446.861 349.809 448.577C309.636 481.177 268.097 514.887 228.3 535.167C224.276 537.219 220.268 539.142 216.385 540.881C194.732 550.569 174.709 555.839 156.872 556.543C136.899 557.329 119.468 552.38 105.067 541.832C90.9336 531.479 79.1961 515.465 70.1805 494.233C61.442 473.653 55.2713 448.221 51.8404 418.638C51.685 417.285 51.5329 415.902 51.3867 414.53C49.1538 393.475 48.0847 371.239 47.0486 349.736C46.6299 341.028 46.1956 332.022 45.6923 323.245C43.7957 289.958 41.0012 263.665 36.8932 240.503C36.3472 237.425 35.763 234.332 35.155 231.305C24.0936 176.244 3.17282 130.297 -25.3502 98.4318C-59.5892 60.294 -100.322 44.5746 -140.046 54.1766C-180.853 64.1586 -232.372 114.181 -247.473 187.228L-247.619 187.227C-243.976 169.608 -238.103 152.637 -230.163 136.785C-222.835 122.158 -213.867 108.693 -203.506 96.7647C-184.369 74.732 -161.229 59.1209 -140.018 53.9319C-119.077 48.8707 -98.0048 50.7235 -77.3854 59.4423C-58.8418 67.2785 -41.2966 80.3234 -25.237 98.2122C3.30131 130.097 24.2361 176.069 35.3005 231.159C35.9085 234.186 36.4943 237.285 37.0403 240.362C41.1495 263.537 43.9476 289.839 45.844 323.138C46.3486 331.916 46.781 340.924 47.2011 349.632C48.2356 371.13 49.3059 393.361 51.5379 414.409C51.6841 415.78 51.8354 417.161 51.9908 418.513C58.9678 478.665 77.3547 521.224 105.165 541.592C132.617 561.7 170.04 561.377 216.394 540.636C220.274 538.897 224.281 536.976 228.302 534.926C268.085 514.654 309.617 480.951 349.781 448.356C351.898 446.637 354.013 444.921 356.128 443.208C361.524 438.844 366.956 434.42 372.211 430.143C414.418 395.773 454.286 363.31 494.082 346.19C506.945 340.62 517.779 338.016 527.201 338.223C538.994 338.484 548.688 343.319 556.014 352.589C562.301 360.574 567.68 372.179 572.457 388.068C576.671 402.087 579.896 417.553 583.015 432.509C584.841 441.263 586.564 449.534 588.441 457.337C606.168 531.062 624.029 610.244 643.041 699.405L642.893 699.55Z" fill="#FFE492"/>
<path d="M641.983 697.006C625.029 614.033 607.572 531.834 590.095 452.695C588.304 444.681 586.687 436.116 584.974 427.05C579.403 397.556 573.089 364.129 559.113 346.663C545.783 330.043 525.159 329.41 496.063 344.727C461.485 362.866 427.615 391.974 391.755 422.791C380.525 432.441 368.912 442.423 357.322 451.995C337.082 468.746 315.3 486.418 293.159 502.182C269.446 519.067 248.556 531.402 229.294 539.899C225.247 541.683 221.211 543.331 217.297 544.791C195.642 552.864 175.558 556.344 157.603 555.134C137.728 553.791 120.544 546.678 106.53 533.982C80.7102 510.3 64.029 466.115 56.9512 402.653C56.8006 401.298 56.6533 399.913 56.5099 398.542C54.4233 378.423 53.1826 357.336 51.9833 336.942C51.4184 327.344 50.8353 317.417 50.1702 307.743C47.8956 274.409 44.8637 248.31 40.6284 225.609C40.058 222.554 39.4501 219.486 38.8193 216.486C27.3413 161.88 6.03233 116.531 -22.8 85.3316C-57.4924 47.872 -98.556 32.9895 -138.427 43.4238C-179.693 54.3089 -230.085 103.731 -246.554 177.131L-246.696 177.12C-242.752 159.539 -236.683 142.617 -228.658 126.821C-221.224 112.189 -212.221 98.7127 -201.898 86.7691C-192.173 75.5164 -181.597 65.975 -170.465 58.4078C-159.658 51.0631 -148.87 45.9379 -138.401 43.1763C-117.372 37.6741 -96.1666 39.0898 -75.3753 47.3898C-56.6879 54.8494 -38.962 67.5383 -22.689 85.1091C6.16064 116.326 27.4817 161.703 38.9674 216.335C39.5976 219.338 40.2077 222.409 40.7781 225.464C45.0145 248.178 48.0482 274.287 50.3245 307.632C50.989 317.309 51.572 327.235 52.1364 336.836C53.3363 357.228 54.5762 378.312 56.6619 398.423C56.8033 399.796 56.9526 401.179 57.1017 402.533C64.1745 465.946 80.8399 510.096 106.635 533.753C133.266 557.879 171.538 561.613 217.313 544.547C221.225 543.087 225.26 541.442 229.303 539.659C272.368 520.666 316.145 485.832 357.292 451.778C368.882 442.206 380.493 432.226 391.723 422.576C427.59 391.753 461.468 362.638 496.062 344.491C525.204 329.15 545.867 329.788 559.228 346.446C565.488 354.269 570.741 365.876 575.289 381.927C579.299 396.08 582.258 411.754 585.122 426.909C586.835 435.976 588.452 444.538 590.242 452.547C607.72 531.688 625.177 613.888 642.131 696.863L641.983 697.006Z" fill="#FFE492"/>
<path d="M641.084 694.462C624.795 611.139 608.25 528.184 591.908 447.901C590.252 439.822 588.78 431.131 587.22 421.931C582.118 391.836 576.336 357.724 562.342 340.516C548.803 323.892 527.778 324.712 498.066 343.019C466.945 362.166 435.534 391.002 405.157 418.892C389.925 432.876 374.174 447.336 358.503 460.56C333.763 481.455 313.412 497.182 294.455 510.056C271.079 525.931 250.095 537.24 230.305 544.63C226.242 546.148 222.177 547.517 218.224 548.7C197.63 554.86 178.457 556.72 161.182 554.241C160.222 554.103 159.271 553.951 158.324 553.787C138.496 550.344 121.568 541.038 108.01 526.131C101.473 518.901 95.5139 510.061 90.2982 499.853C85.3954 490.26 80.9972 479.157 77.2252 466.855C70.4384 444.723 65.4829 418.491 62.0772 386.667C61.9318 385.297 61.7884 383.926 61.6491 382.55C59.7473 363.788 58.392 344.266 57.0822 325.387C56.3252 314.49 55.5439 303.219 54.6653 292.233C51.9658 258.384 48.795 233.24 44.3794 210.707C43.7853 207.677 43.1538 204.633 42.4993 201.658C30.5996 147.518 8.90437 102.764 -20.2372 72.2302C-55.3823 35.4515 -96.7769 21.4032 -136.795 32.6699C-177.494 44.1722 -227.942 94.0173 -245.619 167.03L-245.76 167.012C-237.527 133.004 -221.797 101.8 -200.275 76.7752C-190.547 65.464 -179.994 55.8398 -168.906 48.1638C-158.117 40.6959 -147.306 35.3999 -136.77 32.4224C-115.652 26.4766 -94.315 27.4575 -73.3519 35.3388C-54.5201 42.4192 -36.6126 54.7549 -20.127 72.0051C9.03268 102.559 30.7399 147.34 42.6476 201.513C43.3015 204.49 43.9352 207.537 44.5293 210.567C48.9461 233.113 52.1192 258.265 54.8184 292.127C55.6963 303.116 56.4791 314.386 57.2347 325.283C58.5451 344.16 59.8996 363.679 61.8013 382.436C61.9406 383.812 62.0825 385.183 62.2286 386.55C69.465 454.178 84.4766 499.763 108.121 525.911C140.911 561.964 186.106 558.072 218.247 548.458C222.197 547.274 226.258 545.907 230.32 544.388C275.836 527.391 322.716 490.546 358.472 460.348C374.14 447.129 389.89 432.669 405.119 418.687C435.503 390.793 466.921 361.947 498.058 342.792C511.353 334.6 522.675 330.023 532.668 328.803C544.993 327.297 555.015 331.167 562.456 340.305C568.723 348.01 573.879 359.691 578.22 376.012C582.044 390.392 584.751 406.358 587.368 421.801C588.928 430.999 590.4 439.687 592.055 447.761C608.397 528.044 624.943 610.999 641.233 694.322L641.084 694.462Z" fill="#FFE492"/>
<path d="M640.181 691.916L593.715 443.106C592.198 434.981 590.872 426.186 589.468 416.877C584.837 386.155 579.586 351.335 565.565 334.375C552.005 317.975 529.968 320.311 500.064 341.317C471.316 361.511 442.638 389.737 414.904 417.035C396.826 434.829 378.133 453.227 359.678 469.132C304.209 516.936 259.555 543.462 219.147 552.615C202.385 556.41 186.574 557.261 171.973 555.164C167.547 554.528 163.235 553.621 159.039 552.445C139.251 546.895 122.578 535.401 109.484 518.284C97.3487 502.418 87.9445 481.13 80.7392 453.201C74.9849 430.9 70.6821 404.68 67.1992 370.685C65.3605 352.745 63.8821 334.167 62.4526 316.201C59.2159 275.544 55.8696 233.503 48.1285 195.813C36.2536 138.006 13.4968 90.7412 -17.6815 59.1282C-53.2784 23.0331 -95.0036 9.81651 -135.17 21.9156C-174.057 33.6293 -224.917 80.8751 -244.693 156.932L-244.832 156.906C-235.992 122.911 -220.026 91.7461 -198.659 66.7808C-179.34 44.2077 -156.784 28.1873 -135.146 21.6704C-113.94 15.2836 -92.4697 15.8273 -71.3362 23.2896C-52.3594 29.9885 -34.2709 41.9733 -17.5719 58.9056C-2.14442 74.5479 11.3169 94.1551 22.4394 117.184C33.6547 140.406 42.3482 166.81 48.2761 195.665C56.0211 233.368 59.3691 275.42 62.6061 316.087C64.0363 334.051 65.5152 352.626 67.3532 370.564C72.4338 420.165 81.8291 481.753 109.604 518.066C141.457 559.708 186.772 559.701 219.178 552.363C259.565 543.217 304.2 516.701 359.647 468.915C378.094 453.017 396.786 434.619 414.861 416.829C442.601 389.527 471.286 361.294 500.048 341.089C530.003 320.047 552.087 317.713 565.681 334.156C571.958 341.75 577.02 353.512 581.154 370.118C584.792 384.736 587.247 401.009 589.619 416.745C591.023 426.054 592.348 434.844 593.865 442.967L640.331 691.776L640.181 691.916Z" fill="#FFE492"/>
<path d="M643.836 673.827C633.397 604.909 623.681 548.806 613.261 497.272C608.208 472.239 602.829 447.541 597.274 423.863C595.594 416.701 594.051 409.118 592.419 401.089C588.316 380.908 584.074 360.042 577.19 344.019C573.497 335.402 569.46 329.032 564.848 324.545C550.717 310.66 528.878 315.361 499.938 338.521C484.964 350.486 470.555 364.48 458.434 376.591C445.601 389.412 432.531 403.706 419.889 417.529C401.72 437.399 382.932 457.944 363.951 475.18C352.392 485.703 341.029 494.957 330.176 502.687C308.463 518.152 286.278 530.278 264.237 538.729C250.639 543.874 237.402 547.337 224.898 549.022C214.123 550.463 203.636 550.682 193.726 549.671C178.893 548.161 165.16 543.822 152.91 536.77C139.885 529.27 128.444 518.642 118.905 505.179C110.399 493.173 103.185 478.56 96.8521 460.499C85.0449 426.87 78.3978 388.992 73.9265 359.749C71.7458 345.32 69.7646 330.64 67.8483 316.443C62.3324 275.559 57.1217 236.944 47.2983 201.803C39.2428 173.316 28.2144 148.148 14.5161 126.992C3.98964 110.733 -8.42144 96.8904 -22.3711 85.8461C-25.6946 83.2182 -29.1263 80.7208 -32.569 78.4294C-47.3944 68.5769 -64.9708 61.0231 -84.8081 55.977C-104.796 50.8401 -123.037 50.1809 -140.572 53.9678C-150.479 56.0821 -160.59 60.1791 -170.628 66.1425C-206.068 87.1973 -235.379 126.878 -249.038 172.29L-249.207 172.237C-245.565 160.131 -240.835 148.371 -235.147 137.279C-229.743 126.744 -223.44 116.74 -216.414 107.545C-203.14 90.1759 -187.31 75.7579 -170.636 65.8518C-160.582 59.8779 -150.454 55.7754 -140.532 53.6582C-122.979 49.8688 -104.723 50.5276 -84.7194 55.6693C-64.8709 60.7171 -47.2859 68.2772 -32.4505 78.1363C-29.0042 80.4307 -25.571 82.9283 -22.2454 85.5591C-8.28435 96.6102 4.13687 110.465 14.6714 126.737C28.3793 147.907 39.4168 173.098 47.4749 201.603C57.3046 236.765 62.5157 275.391 68.0347 316.286C69.9496 330.482 71.9313 345.159 74.1112 359.585C78.5801 388.815 85.2245 426.675 97.0255 460.283C103.351 478.325 110.557 492.924 119.053 504.916C137.722 531.264 162.869 546.218 193.798 549.361C203.699 550.371 214.18 550.151 224.945 548.711C237.441 547.025 250.668 543.565 264.256 538.424C286.283 529.979 308.454 517.861 330.154 502.405C340.999 494.681 352.355 485.431 363.905 474.917C382.876 457.69 401.659 437.149 419.822 417.286C432.466 403.461 445.539 389.162 458.377 376.337C470.504 364.219 484.921 350.221 499.904 338.247C512.79 327.935 524.45 321.208 534.564 318.249C546.987 314.615 557.222 316.639 564.982 324.264C569.608 328.766 573.657 335.153 577.359 343.79C584.253 359.837 588.498 380.717 592.604 400.91C594.236 408.937 595.779 416.52 597.457 423.677C603.014 447.357 608.394 472.058 613.448 497.096C623.868 548.636 633.584 604.744 644.024 673.667L643.836 673.827Z" fill="#FFE492"/>
<path d="M647.493 655.733C639.278 585.994 629.881 527.273 618.763 476.218C613.351 451.282 607.319 427.193 600.835 404.62C599.114 398.631 597.488 392.43 595.766 385.867C590.607 366.212 585.274 345.888 577.274 331.207C573.242 323.766 568.944 318.371 564.132 314.712C545.707 300.694 518.987 318.398 499.814 335.717C486.24 347.947 473.098 362.093 459.711 376.721C447.993 389.525 436.496 403.458 424.324 418.207C406.259 440.101 387.577 462.741 368.225 481.223C356.724 492.257 345.271 501.58 334.184 508.933C313.531 522.633 292.199 532.511 268.968 539.134C255.967 542.84 243.073 544.958 230.645 545.426C220.164 545.799 209.994 545.01 200.416 543.073C186.165 540.201 172.937 534.589 161.098 526.396C148.664 517.789 137.637 506.239 128.323 492.067C120.163 479.652 113.032 464.679 106.522 446.293C94.6876 412.945 86.479 376.68 80.6516 348.811C78.4944 338.494 76.4252 328.128 74.4239 318.1C66.4538 278.168 58.9268 240.448 46.4688 207.792C37.1583 183.385 25.159 162.155 10.8067 144.694C-0.0526434 131.481 -12.4383 120.972 -27.0559 112.564C-30.4301 110.626 -33.9036 108.817 -37.3783 107.188C-52.647 100.055 -69.7655 95.7277 -90.5564 90.8087C-105.526 87.1948 -125.353 83.3832 -145.977 86.0138C-155.733 87.2116 -165.647 90.3015 -175.445 95.192C-209.945 112.416 -239.08 146.978 -253.385 187.647L-253.578 187.556C-249.785 176.771 -244.964 166.351 -239.253 156.583C-233.81 147.276 -227.524 138.505 -220.569 130.507C-207.355 115.313 -191.75 102.978 -175.441 94.8364C-165.624 89.9357 -155.691 86.8409 -145.918 85.6403C-125.274 83.0049 -105.433 86.8212 -90.4529 90.4365C-69.655 95.3566 -52.5309 99.6848 -37.2517 106.821C-33.7747 108.454 -30.2985 110.263 -26.9201 112.202C-12.2889 120.619 0.10898 131.138 10.9807 144.365C25.3475 161.844 37.3571 183.091 46.6774 207.522C59.1439 240.202 66.6755 277.934 74.6475 317.881C76.6479 327.907 78.7172 338.272 80.8749 348.587C86.7021 376.445 94.9068 412.697 106.733 446.029C113.235 464.395 120.359 479.352 128.509 491.753C146.823 519.619 171.051 536.758 200.517 542.698C210.087 544.631 220.247 545.422 230.718 545.047C243.135 544.58 256.017 542.465 269.006 538.761C292.218 532.144 313.532 522.274 334.168 508.587C345.241 501.242 356.679 491.932 368.167 480.91C387.502 462.443 406.175 439.813 424.234 417.93C436.41 403.174 447.909 389.239 459.634 376.428C473.028 361.79 486.176 347.641 499.763 335.397C512.192 324.169 523.611 316.448 533.705 312.443C545.945 307.588 556.233 308.233 564.285 314.357C569.114 318.031 573.427 323.444 577.471 330.908C585.484 345.616 590.822 365.958 595.985 385.629C597.707 392.19 599.335 398.388 601.053 404.374C607.54 426.955 613.573 451.053 618.987 475.997C630.106 527.065 639.506 585.796 647.722 655.551L647.493 655.733Z" fill="#FFE492"/>
<path d="M651.149 637.639C645.025 566.129 636.232 506.441 624.265 455.167C618.491 430.328 611.807 406.849 604.396 385.379C602.813 380.789 601.216 375.93 599.672 371.233C593.295 351.826 586.702 331.759 577.361 318.398C572.986 312.09 568.426 307.667 563.421 304.879C544.212 294.177 518.162 314.217 499.693 332.911C487.189 345.525 474.994 360.107 463.2 374.21L460.991 376.851C450.285 389.644 439.693 403.841 428.477 418.873C410.618 442.809 392.152 467.558 372.5 487.266C361.042 498.826 349.499 508.218 338.191 515.181C318.476 527.321 297.98 535.061 273.695 539.539C261.137 541.855 248.587 542.625 236.392 541.827C226.205 541.13 216.352 539.331 207.104 536.472C179.101 527.839 155.764 508.487 137.74 478.955C129.948 466.189 122.899 450.86 116.192 432.087C104.826 400.38 95.7249 368.16 87.3784 337.876C86.2586 333.816 85.155 329.785 84.0594 325.785C72.6909 284.296 61.954 245.107 45.6425 213.789C34.9937 193.343 22.0243 176.054 7.09712 162.401C-3.86226 152.378 -16.5665 144.817 -31.739 139.285C-35.1596 138.043 -38.6741 136.92 -42.186 135.949C-51.0255 133.526 -60.6517 131.956 -70.8437 130.295C-79.0299 128.96 -87.4941 127.58 -96.3063 125.645C-113.299 121.802 -132.558 117.449 -151.386 118.067C-161.1 118.387 -170.817 120.467 -180.267 124.251C-213.805 137.684 -242.766 167.131 -257.739 203.022L-257.947 202.871C-254 193.408 -249.091 184.33 -243.357 175.887C-237.874 167.813 -231.605 160.27 -224.725 153.469C-211.567 140.461 -196.185 130.213 -180.245 123.829C-170.774 120.035 -161.037 117.95 -151.304 117.63C-132.458 117.013 -113.189 121.37 -96.1894 125.214C-87.3822 127.145 -78.9186 128.527 -70.7352 129.862C-60.539 131.524 -50.91 133.094 -42.0626 135.521C-38.5486 136.495 -35.0299 137.618 -31.6065 138.861C-16.415 144.398 -3.69574 151.969 7.27877 162.007C22.2238 175.675 35.2072 192.984 45.8679 213.452C62.1943 244.798 72.9366 284.006 84.3092 325.513C85.4048 329.513 86.5104 333.542 87.6282 337.604C95.9732 367.883 105.071 400.095 116.433 431.791C123.134 450.543 130.175 465.857 137.958 478.607C155.958 508.102 179.265 527.426 207.231 536.049C216.469 538.904 226.312 540.702 236.488 541.398C248.67 542.194 261.209 541.424 273.753 539.112C298.014 534.638 318.485 526.907 338.175 514.784C349.458 507.836 360.979 498.461 372.418 486.921C392.045 467.238 410.5 442.502 428.349 418.58C439.569 403.541 450.167 389.338 460.881 376.535L463.09 373.894C474.89 359.784 487.092 345.194 499.61 332.566C518.138 313.811 544.275 293.714 563.574 304.466C568.602 307.267 573.18 311.705 577.57 318.039C586.932 331.428 593.533 351.516 599.915 370.945C601.458 375.642 603.055 380.501 604.638 385.088C612.051 406.569 618.74 430.061 624.516 454.914C636.488 506.209 645.284 565.917 651.41 637.451L651.149 637.639Z" fill="#FFE492"/>
<path d="M654.806 619.541C650.84 547.274 642.417 484.887 629.768 434.117C623.633 409.377 616.296 386.507 607.96 366.142C606.756 363.201 605.533 360.151 604.349 357.203C596.528 337.724 588.441 317.579 577.454 305.594C572.749 300.404 567.928 296.956 562.715 295.049C542.717 287.737 517.342 310.076 499.575 330.103C488.56 342.471 477.911 356.454 467.613 369.977C465.831 372.318 464.051 374.654 462.272 376.979C452.498 389.755 442.735 404.194 432.399 419.478C414.827 445.463 396.658 472.33 376.775 493.313C365.099 505.633 353.789 514.831 342.196 521.435C317.949 535.246 296.35 538.544 278.419 539.952C266.292 540.902 254.085 540.327 242.135 538.237C232.248 536.471 222.711 533.658 213.79 529.879C187.332 518.694 164.913 497.152 147.157 465.85C139.768 452.828 132.803 437.14 125.861 417.89C118.838 398.487 112.429 379.867 106.23 361.86C102.018 349.62 98.0378 338.06 94.106 326.952C79.2441 284.964 65.2765 247.918 44.8196 219.793C32.8364 203.32 18.8981 189.968 3.39073 180.11C-7.72353 173.043 -20.3741 168.563 -36.4182 166.005C-39.8815 165.461 -43.4386 165.024 -46.9897 164.709C-52.3886 164.249 -58.0545 164.094 -64.0515 163.932C-75.56 163.62 -88.6063 163.266 -102.057 160.483C-107.179 159.422 -112.374 158.217 -117.398 157.049C-130.32 154.047 -143.682 150.944 -156.796 150.119C-166.427 149.514 -175.948 150.587 -185.091 153.308C-217.641 163 -246.428 187.335 -262.098 218.404L-262.31 218.176C-258.207 210.04 -253.21 202.304 -247.458 195.182C-241.933 188.342 -235.682 182.03 -228.88 176.422C-215.774 165.616 -200.617 157.456 -185.047 152.82C-175.882 150.092 -166.34 149.014 -156.688 149.621C-143.559 150.446 -130.192 153.553 -117.263 156.556C-112.24 157.723 -107.045 158.928 -101.925 159.989C-88.4865 162.77 -75.4506 163.125 -63.9478 163.437C-57.9479 163.599 -52.2807 163.754 -46.8762 164.215C-43.3208 164.531 -39.761 164.968 -36.2934 165.513C-20.2262 168.072 -7.5579 172.562 3.57556 179.639C19.1014 189.51 33.0592 202.878 45.0571 219.373C54.2981 232.076 62.9644 247.734 71.5522 267.239C79.2406 284.699 86.2392 303.601 94.3836 326.61C98.3148 337.72 102.294 349.28 106.508 361.52C112.706 379.525 119.116 398.145 126.136 417.545C133.071 436.776 140.029 452.448 147.409 465.455C165.14 496.716 187.527 518.228 213.948 529.397C222.859 533.171 232.384 535.98 242.26 537.744C254.195 539.833 266.39 540.408 278.503 539.457C296.41 538.053 317.981 534.759 342.186 520.972C353.747 514.387 365.027 505.213 376.672 492.924C396.521 471.977 414.676 445.131 432.234 419.167C442.576 403.874 452.344 389.428 462.129 376.638C463.908 374.313 465.687 371.977 467.468 369.639C477.773 356.106 488.429 342.113 499.458 329.73C511.017 316.701 521.964 306.972 531.994 300.815C543.874 293.522 554.26 291.42 562.863 294.568C568.102 296.484 572.946 299.948 577.671 305.159C588.687 317.176 596.784 337.345 604.615 356.849C605.799 359.797 607.022 362.847 608.225 365.785C616.567 386.167 623.91 409.058 630.05 433.817C636.765 460.775 642.337 491.191 646.607 524.22C650.382 553.411 653.24 585.416 655.103 619.342L654.806 619.541Z" fill="#FFE492"/>
<path d="M658.463 601.442C656.581 527.42 648.778 464.042 635.27 413.07C628.774 388.429 620.784 366.17 611.525 346.908C611.085 345.991 610.644 345.074 610.203 344.155C600.581 324.102 590.631 303.366 577.55 292.795C572.482 288.699 567.399 286.224 562.013 285.224C541.235 281.374 516.528 305.979 499.461 327.297C489.438 339.763 479.84 353.625 470.558 367.031C468.263 370.346 465.889 373.773 463.559 377.109C454.681 389.814 445.727 404.423 436.248 419.891C419.005 448.028 401.177 477.12 381.055 499.36C369.413 512.227 358.014 521.494 346.204 527.692C322.938 539.902 302.146 540.998 283.144 540.366C271.427 539.974 259.562 538.05 247.879 534.647C238.294 531.809 229.076 527.985 220.477 523.285C195.612 509.717 174.111 485.984 156.576 452.744C149.553 439.435 142.866 423.848 135.534 403.694C121.576 365.485 110.876 338.449 100.842 316.033C80.8832 271.449 63.8856 244.464 44.0083 225.804C30.7007 213.311 15.7928 203.898 -0.3035 197.823C-11.4712 193.61 -24.0491 192.036 -41.0866 192.729C-44.5797 192.878 -48.1779 193.128 -51.7827 193.474C-55.1909 193.812 -58.6787 194.26 -62.3718 194.732C-76.0081 196.477 -91.4648 198.455 -107.803 195.324C-116.415 193.674 -125.04 191.305 -133.38 189.015C-142.86 186.413 -152.661 183.721 -162.206 182.176C-171.777 180.627 -181.102 180.692 -189.916 182.374C-221.442 188.383 -250.059 207.611 -266.464 233.806L-266.66 233.478C-262.399 226.672 -257.314 220.279 -251.547 214.477C-245.979 208.873 -239.749 203.793 -233.027 199.374C-219.968 190.786 -205.034 184.713 -189.84 181.818C-181.003 180.134 -171.657 180.067 -162.064 181.619C-152.51 183.166 -142.703 185.859 -133.22 188.464C-124.882 190.754 -116.262 193.122 -107.657 194.771C-91.3477 197.895 -75.9077 195.92 -62.2867 194.177C-58.5916 193.703 -55.1016 193.259 -51.6914 192.918C-48.0823 192.573 -44.4814 192.323 -40.9849 192.172C-23.9214 191.48 -11.3219 193.054 -0.130781 197.279C15.9881 203.362 30.9174 212.789 44.2438 225.3C64.1484 243.984 81.1636 270.997 101.14 315.619C111.178 338.044 121.882 365.088 135.843 403.307C143.17 423.446 149.85 439.016 156.865 452.312C174.377 485.504 195.845 509.204 220.673 522.752C229.26 527.446 238.469 531.262 248.039 534.098C259.709 537.497 271.559 539.419 283.261 539.811C302.235 540.442 322.991 539.35 346.203 527.169C357.968 520.995 369.328 511.758 380.929 498.937C401.008 476.745 418.818 447.683 436.042 419.577C445.528 404.099 454.487 389.479 463.379 376.755C465.709 373.422 468.082 369.995 470.377 366.679C479.666 353.262 489.271 339.39 499.311 326.904C510.449 312.991 521.16 302.259 531.147 295.004C542.845 286.506 553.279 283.034 562.156 284.676C567.573 285.68 572.682 288.169 577.774 292.284C590.898 302.892 600.863 323.655 610.498 343.738C610.939 344.658 611.38 345.577 611.82 346.491C621.089 365.776 629.088 388.061 635.593 412.729C649.111 463.747 656.92 527.174 658.804 601.248L658.463 601.442Z" fill="#FFE492"/>
<path d="M290.196 541.111C289.409 540.998 288.633 540.884 287.872 540.767C276.547 539.054 265.024 535.784 253.626 531.045C244.347 527.136 235.446 522.302 227.168 516.681C215.338 508.661 204.128 497.967 193.846 484.896C183.918 472.274 174.549 457.046 166.001 439.631C157.624 422.569 150.49 403.873 145.212 389.491C132.839 355.924 120.178 327.535 107.582 305.109C87.1792 268.79 66.7241 245.497 43.2056 231.807C29.0174 223.548 12.9744 217.962 -3.23633 215.634C-3.48752 215.598 -3.7373 215.562 -3.98911 215.528C-17.9364 213.612 -32.3013 216.275 -45.7452 219.44C-49.2467 220.273 -52.8873 221.208 -56.5673 222.225C-58.586 222.791 -60.6137 223.382 -62.7591 224.007C-77.8933 228.423 -95.047 233.426 -113.544 230.156C-124.809 228.164 -135.888 224.425 -146.601 220.807C-153.519 218.47 -160.671 216.056 -167.611 214.221C-177.152 211.7 -186.277 210.758 -194.737 211.427C-225.199 213.829 -253.646 227.952 -270.834 249.209L-270.996 248.763C-262.18 237.861 -250.798 228.961 -237.166 222.307C-224.147 215.954 -209.437 211.976 -194.629 210.81C-186.147 210.141 -176.997 211.081 -167.435 213.611C-160.488 215.447 -153.332 217.864 -146.412 220.201C-135.705 223.818 -124.634 227.556 -113.384 229.544C-94.934 232.806 -77.8094 227.81 -62.7007 223.403C-60.5534 222.775 -58.5256 222.185 -56.5055 221.619C-52.8227 220.602 -49.1786 219.665 -45.6744 218.833C-32.2076 215.663 -17.8183 212.996 -3.83677 214.915C12.6576 217.179 28.9998 222.817 43.43 231.219C55.5676 238.286 66.6877 247.719 77.423 260.058C87.7619 271.942 97.7314 286.518 107.899 304.622C120.506 327.064 133.175 355.475 145.556 389.064C150.829 403.437 157.957 422.119 166.326 439.162C183.673 474.499 204.223 500.385 227.403 516.102C235.67 521.717 244.56 526.544 253.825 530.448C265.209 535.18 276.715 538.447 288.025 540.156C305.722 542.831 326.572 544.734 350.224 533.355C362.196 527.595 373.633 518.3 385.19 504.942C405.486 481.481 422.899 450.129 439.741 419.808C448.405 404.212 456.587 389.48 464.631 376.865C467.208 372.824 469.831 368.656 472.368 364.625C480.939 351.004 489.8 336.923 499.163 324.075C509.89 309.288 520.367 297.549 530.3 289.184C541.818 279.486 552.296 274.639 561.444 274.779C567.091 274.865 572.465 276.377 577.873 279.405C592.334 287.495 603.882 306.625 615.413 327.19C625.466 345.121 634.361 367.405 641.134 391.634C648.674 418.475 654.305 449.502 657.867 483.852C661.041 514.454 662.601 547.862 662.503 583.149L662.12 583.35C662.33 507.57 655.15 443.2 640.774 392.031C634.011 367.837 625.132 345.586 615.092 327.685C603.582 307.156 592.056 288.063 577.65 280.001C572.271 276.99 566.927 275.487 561.315 275.401C544.504 275.147 522.497 292.579 499.348 324.491C490.002 337.316 481.149 351.386 472.586 364.992C470.048 369.026 467.423 373.196 464.846 377.237C456.817 389.828 448.64 404.548 439.986 420.13C431.723 435.007 423.178 450.393 414.12 465.061C403.852 481.69 394.438 494.887 385.336 505.409C373.728 518.826 362.24 528.162 350.212 533.95C339.604 539.055 328.866 541.893 317.383 542.633C307.661 543.249 298.296 542.275 290.196 541.111Z" fill="#FFE492"/>
<path d="M312.381 545.58C305.225 544.553 298.54 542.813 292.582 541.168C281.627 538.144 270.447 533.526 259.356 527.442C250.388 522.465 241.803 516.623 233.841 510.074C212.03 492.169 192.916 464.834 175.407 426.513C167.77 409.803 161.074 392.042 154.873 375.285C142.607 342.29 128.961 315.004 114.309 294.183C92.7609 263.561 69.9103 245.645 42.3956 237.802C26.7184 233.333 9.40188 231.75 -7.68286 233.223C-21.9829 234.455 -36.633 240.282 -50.4147 246.141C-53.8651 247.616 -57.5488 249.24 -61.3614 250.966C-62.315 251.401 -63.278 251.844 -64.2535 252.291C-80.2811 259.658 -98.4166 267.993 -118.296 265.137C-118.631 265.089 -118.964 265.039 -119.301 264.983C-132.69 262.811 -145.573 257.454 -158.032 252.27C-162.972 250.215 -168.081 248.092 -173.033 246.256C-182.707 242.672 -191.388 240.776 -199.575 240.467C-229.353 239.342 -256.93 248.136 -275.233 264.601L-275.331 264.025C-266.283 255.887 -254.519 249.382 -241.314 245.214C-228.325 241.115 -213.841 239.238 -199.428 239.783C-191.218 240.093 -182.515 241.992 -172.82 245.584C-167.862 247.421 -162.752 249.547 -157.811 251.6C-145.362 256.777 -132.491 262.129 -119.127 264.298C-98.9263 267.579 -80.4942 259.104 -64.2347 251.63C-63.2606 251.183 -62.2961 250.74 -61.3419 250.303C-57.5259 248.575 -53.8408 246.951 -50.3876 245.476C-36.5826 239.605 -21.906 233.772 -7.56707 232.535C9.54416 231.061 26.8893 232.645 42.5926 237.12C56.228 241.006 68.5718 247.332 80.3296 256.454C92.4389 265.85 103.662 278 114.639 293.602C129.308 314.452 142.973 341.77 155.252 374.798C161.451 391.55 168.142 409.3 175.772 425.994C193.258 464.263 212.343 491.558 234.119 509.434C242.07 515.972 250.643 521.807 259.598 526.777C270.674 532.853 281.837 537.466 292.777 540.483C311.186 545.563 331.093 549.673 354.234 539.522C366.411 534.178 377.927 524.826 389.437 510.928C409.942 486.172 427.674 450.934 443.319 419.844C451.191 404.2 458.626 389.425 465.868 376.959C468.481 372.462 471.143 367.807 473.717 363.307C481.77 349.225 490.097 334.665 499.001 321.228C509.332 305.569 519.574 292.822 529.443 283.34C540.778 272.452 551.302 266.233 560.718 264.861C566.605 264.002 572.245 264.54 577.958 266.499C593.922 271.978 607.115 289.617 618.994 307.864C629.963 324.711 639.53 346.376 646.664 370.516C654.618 397.296 660.278 428.63 663.487 463.641C666.356 494.951 667.267 529.06 666.194 565.027L665.773 565.221C668.055 488.769 661.311 421.594 646.273 370.957C639.154 346.863 629.604 325.239 618.657 308.425C606.806 290.221 593.648 272.626 577.751 267.169C572.071 265.22 566.467 264.687 560.618 265.539C543.23 268.073 521.43 287.998 499.233 321.646C490.345 335.054 482.028 349.601 473.983 363.668C471.408 368.171 468.746 372.825 466.131 377.328C458.905 389.765 451.477 404.526 443.613 420.152C427.942 451.29 410.182 486.586 389.609 511.424C378.035 525.398 366.455 534.802 354.21 540.177C343.583 544.838 332.868 546.883 321.451 546.419C318.361 546.309 315.332 546.004 312.381 545.58Z" fill="#FFE492"/>
<path d="M325.842 550.289C325.739 550.275 325.638 550.26 325.536 550.245C315.435 548.748 306.053 545.14 297.309 541.572C286.698 537.244 275.864 531.276 265.103 523.84C256.449 517.801 248.182 510.946 240.533 503.47C220.247 483.672 202.548 455.054 184.833 413.402C178.452 398.405 172.488 382.387 166.719 366.899C165.998 364.96 165.275 363.024 164.552 361.087C152.183 328.085 137.549 301.901 121.058 283.266C98.4765 257.75 72.4886 244.841 41.6088 243.802C24.6765 243.233 6.36247 245.696 -11.3534 250.923C-25.3318 255.049 -38.8455 262.948 -55.061 272.846C-58.3503 274.862 -61.8698 277.043 -66.1351 279.711L-66.3734 279.861C-74.6125 285.05 -83.9507 290.93 -93.7938 295.006C-105.098 299.688 -115.32 301.255 -125.04 299.823C-140.195 297.577 -154.43 290.375 -168.194 283.407C-171.567 281.7 -175.055 279.935 -178.441 278.306C-188.153 273.637 -196.645 270.764 -204.401 269.525C-232.961 264.961 -260.381 268.784 -279.628 280.01L-279.643 279.315C-270.215 273.815 -258.389 269.952 -245.442 268.141C-232.472 266.326 -218.214 266.549 -204.211 268.785C-196.433 270.028 -187.919 272.907 -178.187 277.586C-174.798 279.216 -171.309 280.981 -167.935 282.688C-154.187 289.646 -139.971 296.84 -124.853 299.081C-124.786 299.09 -124.717 299.1 -124.65 299.11C-103.001 302.219 -82.714 289.446 -66.4021 279.175L-66.1624 279.025C-61.8951 276.355 -58.3756 274.174 -55.0849 272.158C-38.842 262.244 -25.3043 254.33 -11.2822 250.192C6.46395 244.954 24.8079 242.488 41.7689 243.058C56.8799 243.568 70.4479 246.783 83.25 252.892C97.0456 259.475 109.524 269.195 121.397 282.612C137.919 301.283 152.578 327.508 164.968 360.565C165.691 362.502 166.413 364.441 167.134 366.379C172.9 381.862 178.862 397.875 185.237 412.86C202.93 454.46 220.602 483.039 240.854 502.804C248.492 510.271 256.748 517.113 265.39 523.145C276.135 530.572 286.954 536.529 297.548 540.85C316.523 548.594 335.446 554.794 358.261 545.726C370.642 540.804 382.234 531.393 393.699 516.953C414.409 490.868 431.622 453.074 446.811 419.727C453.922 404.115 460.638 389.367 467.121 377.095C469.616 372.373 472.156 367.483 474.614 362.753C482.297 347.965 490.241 332.675 498.856 318.42C508.805 301.883 518.813 288.126 528.6 277.531C539.757 265.456 550.323 257.869 560.004 254.984C566.007 253.196 571.791 252.735 577.67 253.579C577.798 253.597 577.926 253.616 578.054 253.637C596.291 256.431 611.433 273.775 622.589 288.573C634.471 304.339 644.714 325.383 652.21 349.432C660.579 376.154 666.269 407.792 669.122 443.469C671.681 475.486 671.944 510.299 669.897 546.947L669.439 547.13C672.483 492.6 671.888 414.125 651.784 349.927C644.307 325.932 634.087 304.938 622.233 289.209C611.111 274.451 596.016 257.157 577.867 254.379C571.892 253.457 566.028 253.901 559.935 255.717C541.997 261.064 520.403 283.482 499.128 318.841C490.533 333.063 482.598 348.336 474.923 363.108C472.465 367.84 469.922 372.732 467.427 377.457C460.961 389.698 454.252 404.427 447.15 420.022C431.935 453.429 414.689 491.295 393.898 517.481C382.357 532.018 370.686 541.492 358.221 546.446C347.658 550.642 337.061 551.901 325.842 550.289Z" fill="#FFE492"/>
<path d="M336.198 555.389C334.02 555.077 331.826 554.633 329.609 554.058C319.905 551.544 311.024 546.908 302.025 541.976C291.594 536.258 281.393 529.149 270.841 520.241C262.504 513.143 254.555 505.28 247.215 496.867C228.587 475.551 212.252 445.765 194.25 400.291C189.779 388.998 185.436 377.204 181.236 365.796C178.95 359.588 176.587 353.166 174.225 346.888C161.669 313.648 146.05 288.571 127.802 272.35C103.691 250.915 75.2401 243.537 40.8194 249.795C22.6341 253.101 3.32244 259.609 -15.0258 268.613C-29.7655 275.847 -43.8115 286.961 -58.6825 298.728L-59.7107 299.541C-62.0353 301.386 -64.3869 303.258 -66.7673 305.151C-68.1386 306.244 -69.5188 307.342 -70.9113 308.45C-79.6038 315.396 -88.9194 322.606 -98.8225 327.763C-110.32 333.75 -120.774 336.007 -130.785 334.661C-147.45 332.416 -162.704 323.166 -177.453 314.213C-179.557 312.935 -181.736 311.614 -183.855 310.354C-193.79 304.441 -201.854 300.702 -209.234 298.58C-236.468 290.755 -263.73 289.597 -284.032 295.406L-283.954 294.612C-263.598 288.788 -236.279 289.943 -208.998 297.784C-201.597 299.911 -193.513 303.661 -183.559 309.584C-181.439 310.847 -179.261 312.167 -177.155 313.446C-162.586 322.288 -147.526 331.426 -131.118 333.783C-130.941 333.808 -130.764 333.833 -130.585 333.857C-109.315 336.717 -90.2604 323.136 -70.9951 307.745C-69.6026 306.638 -68.2224 305.539 -66.8511 304.447C-64.4701 302.551 -62.1205 300.682 -59.7938 298.835L-58.7657 298.021C-43.8694 286.235 -29.7996 275.101 -15.0118 267.844C3.37012 258.821 22.715 252.303 40.9322 248.991C75.4397 242.718 103.967 250.117 128.143 271.609C146.436 287.873 162.091 313.007 174.676 346.319C177.037 352.6 179.402 359.02 181.688 365.231C185.885 376.635 190.227 388.427 194.696 399.712C212.677 445.134 228.989 474.878 247.583 496.158C254.913 504.557 262.85 512.411 271.175 519.497C281.712 528.392 291.898 535.492 302.314 541.2C318.126 549.866 337.804 560.654 362.284 551.908C374.869 547.413 386.537 537.943 397.955 522.958C418.871 495.511 435.512 455.072 450.196 419.396C456.574 403.897 462.599 389.257 468.366 377.218C470.613 372.527 472.904 367.671 475.12 362.973C482.551 347.218 490.235 330.927 498.702 315.6C508.286 298.175 518.059 283.407 527.75 271.706C538.73 258.447 549.339 249.495 559.28 245.097C565.66 242.273 571.829 240.855 578.141 240.759C586.593 240.63 594.898 243.259 603.53 248.784C610.833 253.463 618.241 260.161 626.177 269.265C638.975 283.948 649.892 304.374 657.748 328.333C666.533 354.994 672.252 386.941 674.748 423.283C676.997 456.008 676.609 491.525 673.594 528.851L673.099 529.016C679.462 450.213 673.848 379.135 657.289 328.877C649.454 304.982 638.568 284.615 625.807 269.976C608.708 250.361 593.514 241.332 577.981 241.567C571.712 241.661 565.586 243.07 559.25 245.872C535.599 256.334 513.443 289.791 499.022 316.012C490.576 331.302 482.901 347.573 475.479 363.309C473.262 368.009 470.97 372.868 468.722 377.562C462.973 389.565 456.955 404.188 450.584 419.667C435.87 455.421 419.192 495.944 398.182 523.516C386.673 538.619 374.912 548.165 362.226 552.697C353.627 555.768 345.055 556.661 336.198 555.389Z" fill="#FFE492"/>
<path d="M344.925 560.777C330.085 558.645 317.502 549.873 306.737 542.37C296.609 535.312 286.743 526.892 276.573 516.632C268.556 508.482 260.924 499.609 253.891 490.256C232.801 462.245 217.286 424.159 203.662 387.172C200.88 379.621 198.105 371.851 195.423 364.337C191.699 353.903 187.847 343.115 183.893 332.683C171.11 299.101 154.507 275.126 134.546 261.424C108.723 243.702 77.8066 241.852 40.0292 255.773C20.5785 262.94 0.270648 273.493 -18.6997 286.292C-33.3307 296.16 -46.9157 309.322 -61.2976 323.256C-62.3167 324.243 -63.3385 325.234 -64.3646 326.225L-64.9216 326.765C-68.4187 330.156 -72.0344 333.661 -75.6904 337.176C-84.4606 345.638 -93.9611 354.329 -103.995 360.57C-115.642 367.815 -126.285 370.733 -136.536 369.492C-154.529 367.315 -170.545 355.825 -186.032 344.714C-187.118 343.935 -188.198 343.159 -189.275 342.392C-199.496 335.095 -207.144 330.541 -214.072 327.624C-239.818 316.784 -266.925 310.645 -288.443 310.782L-288.269 309.912C-266.715 309.773 -239.568 315.921 -213.788 326.775C-206.841 329.701 -199.176 334.264 -188.936 341.574C-187.86 342.342 -186.779 343.117 -185.693 343.899C-170.235 354.988 -154.249 366.45 -136.326 368.625C-114.065 371.32 -93.4306 353.437 -75.8373 336.463C-72.1814 332.948 -68.5656 329.443 -65.0691 326.054L-64.5121 325.514C-63.4855 324.521 -62.4643 323.532 -61.4451 322.545C-47.0382 308.587 -33.4301 295.403 -18.75 285.5C0.255281 272.679 20.601 262.108 40.0855 254.928C57.9953 248.329 74.0148 245.335 89.0579 245.773C105.838 246.263 121.254 251.253 134.879 260.606C154.904 274.35 171.556 298.394 184.376 332.068C188.333 342.505 192.186 353.296 195.91 363.733C198.593 371.247 201.365 379.014 204.146 386.563C217.757 423.509 233.252 461.553 254.304 489.513C261.328 498.852 268.948 507.713 276.953 515.851C287.108 526.096 296.959 534.503 307.072 541.552C322.599 552.374 341.923 565.844 366.295 558.092C379.084 554.023 390.828 544.496 402.2 528.965C423.321 500.115 439.336 456.951 453.466 418.865C459.144 403.563 464.505 389.11 469.6 377.341C471.485 372.988 473.41 368.486 475.271 364.132C482.554 347.102 490.085 329.49 498.537 312.779C507.768 294.453 517.307 278.669 526.886 265.873C537.695 251.434 548.346 241.116 558.544 235.206C565.166 231.369 571.599 228.974 578.214 227.881C587.125 226.411 596.252 227.814 605.342 232.052C613.302 235.764 621.515 241.786 629.751 249.953C643.463 263.552 655.056 283.358 663.277 307.229C672.477 333.832 678.227 366.083 680.366 403.091C682.299 436.524 681.261 472.748 677.282 510.753L676.753 510.898C685.187 430.367 680.227 358.247 662.787 307.825C654.592 284.032 643.038 264.291 629.373 250.737C611.658 233.17 594.883 225.974 578.089 228.748C571.522 229.832 565.134 232.211 558.56 236.019C534.297 250.079 512.728 285.737 498.906 313.178C490.476 329.846 482.955 347.434 475.682 364.442C473.82 368.796 471.894 373.3 470.008 377.658C464.93 389.389 459.574 403.822 453.904 419.105C447.106 437.428 439.403 458.193 430.939 477.484C421.241 499.585 411.925 516.616 402.458 529.548C396.983 537.026 391.288 543.241 385.529 548.023C379.336 553.164 372.84 556.84 366.221 558.945C358.647 561.356 351.559 561.73 344.925 560.777Z" fill="#FFE492"/>
<path d="M352.604 566.418C347.698 565.714 342.769 564.134 337.76 561.674C327.896 556.83 319.165 549.358 311.459 542.768C301.748 534.46 291.942 524.452 282.316 513.024C274.624 503.834 267.31 493.951 260.579 483.644C241.254 454.089 227.637 416.527 213.085 374.056C211.792 370.281 210.482 366.433 209.218 362.709C204.233 348.051 199.08 332.895 193.572 318.483C180.539 284.493 162.953 261.623 141.3 250.505C113.988 236.48 79.6525 240.263 39.2501 261.754C18.518 272.781 -2.78689 287.377 -22.3613 303.966C-37.0998 316.457 -50.4892 331.757 -64.6651 347.956C-66.1055 349.602 -67.5513 351.253 -69.0046 352.91C-72.6229 357.04 -76.5159 361.471 -80.4564 365.901C-88.7285 375.225 -98.6084 385.784 -109.154 393.376C-120.959 401.877 -131.793 405.46 -142.273 404.327C-161.459 402.255 -178.037 388.37 -194.071 374.943L-194.681 374.432C-202.532 367.86 -210.9 361.157 -218.896 356.669C-243.271 342.989 -269.53 332.15 -292.835 326.15L-292.571 325.229C-269.241 331.236 -242.958 342.083 -218.562 355.776C-210.543 360.278 -202.16 366.991 -194.297 373.572L-193.687 374.083C-177.688 387.48 -161.142 401.332 -142.05 403.395C-120.001 405.778 -99.5158 386.44 -80.6627 365.187C-76.7228 360.76 -72.8326 356.328 -69.215 352.2C-67.7623 350.546 -66.3159 348.892 -64.8761 347.249C-50.6759 331.022 -37.2622 315.696 -22.4755 303.163C-2.86371 286.54 18.4815 271.917 39.2521 260.87C58.2074 250.789 75.9473 244.514 91.9752 242.223C110.289 239.607 126.994 242.088 141.628 249.601C163.363 260.761 181.015 283.713 194.091 317.819C199.603 332.245 204.759 347.407 209.746 362.072C211.012 365.794 212.321 369.642 213.614 373.416C228.152 415.848 241.754 453.369 261.045 482.872C267.766 493.163 275.07 503.032 282.75 512.21C292.363 523.62 302.152 533.613 311.849 541.909C327.049 554.914 345.967 571.096 370.328 564.279C383.322 560.642 395.141 551.058 406.463 534.978C427.794 504.681 443.794 456.696 456.652 418.138C461.659 403.119 466.388 388.934 470.853 377.477C472.259 373.864 473.7 370.142 475.092 366.541C482.324 347.832 489.805 328.485 498.391 309.971C511.708 281.153 532.828 243.077 557.824 225.333C564.725 220.434 571.425 217.06 578.305 215.018C596.331 209.567 614.849 214.828 633.344 230.652C647.97 243.168 660.239 262.352 668.824 286.134C678.441 312.677 684.222 345.235 686.002 382.912C686.82 400.193 686.777 418.519 685.877 437.381C685.017 455.397 683.371 473.998 680.986 492.667L680.423 492.786C690.936 410.524 686.632 337.363 668.302 286.78C659.749 263.087 647.527 243.975 632.957 231.506C614.549 215.754 596.131 210.514 578.218 215.931C571.39 217.957 564.741 221.306 557.891 226.168C533.067 243.788 512.062 281.67 498.811 310.347C490.246 328.812 482.778 348.133 475.553 366.817C474.161 370.418 472.722 374.144 471.313 377.758C466.864 389.176 462.14 403.342 457.141 418.339C450.671 437.741 443.339 459.732 435.073 480.294C425.574 503.921 416.31 522.007 406.752 535.583C401.299 543.328 395.593 549.701 389.797 554.523C383.552 559.719 376.969 563.31 370.235 565.193C364.322 566.851 358.478 567.262 352.604 566.418Z" fill="#FFE492"/>
<path d="M359.516 572.208C353.636 571.363 347.772 569.129 341.823 565.483C332.184 559.579 323.673 550.857 316.163 543.16C306.709 533.471 297.248 522.118 288.042 509.412C280.674 499.19 273.678 488.297 267.249 477.03C249.554 446.049 237.342 407.641 224.412 366.981C223.772 364.969 223.133 362.955 222.491 360.94C216.473 342.051 210.252 322.517 203.233 304.284C189.937 269.849 171.367 248.08 148.041 239.583C118.741 228.907 81.8711 238.378 38.4541 267.727C16.737 282.407 -6.16749 301.554 -26.0404 321.638C-41.0461 336.802 -54.4349 354.367 -68.6102 372.966C-70.2885 375.167 -71.9716 377.376 -73.6643 379.588C-77.0475 384.016 -81.0682 389.265 -85.2433 394.625C-92.9828 404.579 -103.282 417.161 -114.325 426.154C-126.287 435.896 -137.313 440.154 -148.031 439.165C-156.828 438.299 -165.835 434.552 -175.57 427.707C-183.928 421.831 -191.629 414.614 -200.112 406.475C-207.837 398.97 -216.024 391.189 -223.748 385.716C-246.626 369.506 -271.357 354.637 -297.25 341.516L-296.905 340.558C-270.996 353.684 -246.253 368.565 -223.361 384.783C-215.617 390.27 -207.418 398.064 -199.683 405.575C-185.465 419.221 -167.771 436.21 -147.799 438.174C-124.929 440.279 -104.348 418.152 -85.5141 393.925C-81.3417 388.57 -77.323 383.323 -73.9418 378.898C-72.2491 376.685 -70.5661 374.476 -68.8897 372.277C-54.6909 353.649 -41.2786 336.054 -26.2242 320.84C-6.31073 300.715 16.6381 281.532 38.3968 266.825C81.9451 237.387 118.94 227.895 148.352 238.61C159.628 242.718 169.899 249.974 178.874 260.173C188.506 271.115 196.886 285.722 203.784 303.581C210.811 321.834 217.037 341.378 223.057 360.281C223.699 362.298 224.34 364.31 224.98 366.322C237.897 406.946 250.099 445.318 267.76 476.24C274.18 487.489 281.165 498.369 288.523 508.574C297.716 521.26 307.162 532.598 316.602 542.272C331.439 557.476 349.905 576.397 374.336 570.471C387.57 567.261 399.467 557.619 410.7 540.998C432.269 509.266 447.478 458.246 459.7 417.251C464.072 402.589 468.2 388.741 472.079 377.62C472.879 375.325 473.683 373.018 474.489 370.699C481.776 349.751 489.313 328.087 498.22 307.168C510.991 277.075 531.569 236.737 557.078 215.466C564.194 209.531 571.157 205.18 578.369 202.16C588.404 197.914 598.701 196.719 608.974 198.605C618.353 200.327 627.752 204.617 636.911 211.354C652.45 222.78 665.395 241.344 674.344 265.038C684.38 291.517 690.19 324.387 691.613 362.73C692.267 380.323 691.973 398.99 690.738 418.212C689.557 436.621 687.514 455.587 684.664 474.584L684.069 474.673C696.487 391.893 692.741 315.738 673.792 265.738C664.879 242.147 651.991 223.66 636.519 212.279C617.442 198.245 597.319 195.078 578.323 203.115C571.167 206.111 564.256 210.43 557.195 216.318C531.863 237.443 511.397 277.574 498.689 307.518C489.806 328.381 482.281 350.013 475.003 370.934C474.196 373.254 473.392 375.563 472.592 377.858C468.727 388.937 464.604 402.768 460.239 417.408C447.982 458.521 432.728 509.689 411.021 541.623C405.606 549.635 399.894 556.171 394.045 561.044C387.752 566.287 381.083 569.789 374.222 571.454C369.27 572.65 364.388 572.907 359.516 572.208Z" fill="#FFE492"/>
<path d="M365.909 578.114C359.21 577.152 352.591 574.222 345.902 569.289C336.44 562.308 328.173 552.342 320.881 543.551C311.666 532.44 302.548 519.737 293.781 505.8C286.739 494.561 280.062 482.654 273.932 470.416C258.836 440.288 248.439 404.542 237.431 366.695C235.632 360.508 233.77 354.112 231.91 347.819C225.37 325.707 219.635 307.425 212.907 290.082C199.338 255.177 179.787 234.51 154.797 228.655C123.395 221.297 83.9879 236.45 37.6713 273.693C14.6618 292.196 -9.26704 315.494 -29.7071 339.298C-45.1056 357.23 -58.6383 377.215 -72.965 398.373C-74.7398 400.994 -76.5212 403.624 -78.3103 406.256C-81.4992 410.953 -85.7129 417.14 -90.0138 423.333C-108.13 449.46 -129.874 475.914 -153.774 473.993C-154.518 473.93 -155.26 473.844 -155.995 473.738C-174.373 471.098 -189.921 455.58 -205.528 438.505L-206.5 437.432C-214.215 428.911 -221.503 420.864 -228.583 414.751C-255.266 391.714 -281.644 371.715 -301.643 356.867L-301.226 355.879C-281.222 370.733 -254.837 390.735 -228.144 413.781C-221.044 419.909 -213.749 427.968 -206.024 436.498L-205.052 437.571C-188.874 455.271 -172.761 471.302 -153.532 472.941C-129.897 474.839 -108.33 448.588 -90.3488 422.657C-86.0506 416.469 -81.8409 410.286 -78.6526 405.592C-76.8629 402.957 -75.0835 400.329 -73.3088 397.708C-58.9594 376.518 -45.4053 356.5 -29.9577 338.511C-9.4759 314.656 14.501 291.312 37.5561 272.771C58.9541 255.565 79.2189 242.904 97.7879 235.136C119.094 226.223 138.373 223.691 155.089 227.607C180.208 233.492 199.858 254.26 213.491 289.327C220.229 306.697 225.969 324.998 232.516 347.129C234.377 353.423 236.238 359.821 238.039 366.009C249.036 403.817 259.423 439.529 274.491 469.597C280.611 481.821 287.278 493.708 294.31 504.93C303.064 518.85 312.168 531.533 321.37 542.626C335.815 560.042 353.794 581.716 378.361 576.65C391.791 573.881 403.76 564.183 414.953 547.005C436.74 513.718 451.113 459.583 462.662 416.085C466.431 401.893 469.991 388.486 473.322 377.75L473.398 377.505C480.86 353.464 488.576 328.607 498.063 304.35C506.318 283.189 515.148 264.366 524.305 248.4C534.63 230.4 545.41 215.995 556.347 205.582C563.663 198.616 570.893 193.284 578.447 189.286C598.876 178.407 620.331 179.357 640.493 192.037C648.608 197.139 656.108 204.181 662.79 212.964C669.51 221.799 675.261 232.219 679.884 243.931C690.339 270.35 696.18 303.527 697.243 342.541C698.2 377.608 695.128 417.012 688.361 456.491L687.735 456.547C702.219 372.051 699.146 294.83 679.301 244.685C670.03 221.202 656.474 203.342 640.099 193.046C620.051 180.439 598.733 179.487 578.447 190.291C570.951 194.259 563.78 199.547 556.52 206.458C536.101 225.9 516.068 259.864 498.584 304.678C489.121 328.872 481.417 353.695 473.965 377.701L473.889 377.947C470.569 388.643 467.014 402.031 463.251 416.203C451.665 459.834 437.248 514.132 415.308 547.653C409.912 555.936 404.189 562.63 398.302 567.546C391.953 572.848 385.199 576.264 378.224 577.704C374.07 578.559 369.974 578.698 365.909 578.114Z" fill="#FFE492"/>
<path d="M-161.981 508.57C-170.199 507.389 -178.44 503.281 -187.095 496.065C-195.695 488.896 -203.637 479.563 -210.941 470.547C-212.262 468.907 -213.57 467.271 -214.87 465.646C-221.339 457.558 -227.45 449.918 -233.415 443.794C-257.204 419.381 -280.155 397.214 -302.353 375.78L-306.03 372.227L-305.547 371.217L-301.87 374.77C-279.672 396.209 -256.717 418.377 -232.924 442.795C-226.942 448.935 -220.823 456.583 -214.347 464.683C-213.048 466.307 -211.74 467.944 -210.42 469.581C-195.427 488.089 -179.129 506.278 -159.262 507.719C-134.819 509.405 -112.175 478.505 -95.18 451.4C-90.8292 444.468 -86.5772 437.548 -83.3592 432.294C-81.584 429.399 -79.8166 426.505 -78.0537 423.618C-63.4364 399.688 -49.6298 377.084 -33.6861 356.192C-12.642 328.62 12.3615 301.109 36.7197 278.732C59.3181 257.97 80.8506 242.095 100.721 231.548C123.512 219.45 144.072 214.427 161.828 216.616C188.589 219.737 209.242 239.411 223.203 275.084C230.937 294.881 237.034 315.971 241.98 333.991C244.67 343.797 247.304 353.831 249.852 363.535C258.868 397.889 268.192 433.409 281.224 462.967C287.045 476.173 293.396 489.071 300.1 501.3C308.404 516.403 317.164 530.432 326.141 542.994C340.173 562.63 357.634 587.066 382.389 582.84C396.013 580.514 408.057 570.76 419.208 553.022C441.221 518.117 454.695 460.775 465.519 414.699C468.721 401.074 471.744 388.202 474.569 377.896C480.936 354.662 488.517 327.686 497.912 301.547C505.86 279.397 514.451 259.558 523.446 242.584C533.622 223.384 544.447 207.616 555.619 195.717C563.022 187.832 570.73 181.345 578.528 176.431C589.663 169.392 601.127 165.607 612.603 165.184C623.35 164.788 633.939 167.329 644.077 172.735C652.626 177.295 660.522 183.91 667.544 192.398C674.609 200.938 680.626 211.179 685.425 222.834C690.962 236.256 695.255 251.783 698.183 268.985C700.958 285.284 702.536 303.243 702.875 322.362C703.51 358.132 699.77 398.263 692.059 438.411L691.402 438.432C707.96 352.216 705.557 273.93 684.812 223.646C675.317 200.591 660.711 182.894 643.682 173.811C622.626 162.582 600.112 163.844 578.573 177.46C570.837 182.334 563.19 188.772 555.846 196.593C534.795 219.012 515.494 254.42 498.482 301.837C489.111 327.905 481.545 354.834 475.188 378.031C472.374 388.3 469.354 401.152 466.158 414.76C460.817 437.49 454.764 463.256 447.234 487.922C438.496 516.544 429.457 538.054 419.601 553.681C414.225 562.234 408.492 569.087 402.564 574.049C396.162 579.41 389.32 582.741 382.231 583.95C378.654 584.562 375.229 584.58 371.947 584.108C352.291 581.285 337.682 560.839 325.602 543.934C316.612 531.352 307.838 517.304 299.524 502.178C292.81 489.933 286.45 477.016 280.621 463.79C267.562 434.172 258.228 398.615 249.202 364.229C246.655 354.528 244.023 344.496 241.334 334.695C236.395 316.697 230.307 295.637 222.587 275.878C208.702 240.394 188.17 220.835 161.56 217.725C119.835 212.583 70.7349 248.565 36.8916 279.659C12.5823 301.992 -12.37 329.444 -33.3698 356.961C-49.2659 377.79 -63.052 400.358 -77.6467 424.251C-79.4096 427.138 -81.1784 430.031 -82.9542 432.929C-86.1742 438.185 -90.4289 445.11 -94.7829 452.049C-101.917 463.428 -112.774 479.924 -124.644 491.753C-130.409 497.497 -136.101 501.844 -141.563 504.676C-147.653 507.834 -153.694 509.232 -159.513 508.829C-160.338 508.775 -161.161 508.687 -161.981 508.57Z" fill="#FFE492"/>
<path d="M-167.977 543.389C-176.204 542.208 -184.373 537.884 -192.864 530.236C-201.656 522.319 -209.676 511.811 -216.36 502.574C-218.413 499.731 -220.452 496.855 -222.424 494.072C-227.936 486.296 -233.143 478.947 -238.254 472.825C-256.608 450.836 -274.923 429.312 -292.635 408.494C-298.495 401.608 -304.552 394.489 -310.421 387.576L-309.877 386.545C-304.009 393.457 -297.951 400.577 -292.092 407.462C-274.379 428.28 -256.062 449.807 -237.707 471.799C-232.583 477.938 -227.369 485.293 -221.851 493.08C-219.88 495.863 -217.841 498.737 -215.791 501.579C-201.926 520.729 -185.423 541.263 -165 542.487C-139.913 543.942 -117.095 509.927 -100.016 480.132C-95.6395 472.499 -91.3333 464.823 -88.0715 458.988C-86.3966 455.994 -84.7279 453.001 -83.0625 450.016C-68.0881 423.164 -53.945 397.802 -37.4196 373.869C-15.9267 342.742 10.105 311.069 35.8769 284.686C71.7243 248.118 123.842 204.719 168.558 205.623C197.018 206.107 218.669 224.683 232.906 260.84C239.301 277.092 245.015 295.599 251.433 320.854C254.677 333.616 257.765 346.804 260.752 359.555C268.522 392.729 276.555 427.034 287.949 456.341C293.468 470.542 299.501 484.448 305.881 497.673C313.61 513.673 322.029 529.047 330.902 543.368C344.562 565.25 361.56 592.486 386.405 589.036C400.007 587.222 412.471 577.131 423.451 559.048C445.705 522.455 458.74 459.231 468.256 413.068C470.927 400.112 473.449 387.876 475.805 378.051C481.038 356.215 488.261 327.471 497.749 298.754C514.176 248.989 533.398 211.005 554.881 185.861C562.422 176.999 570.403 169.505 578.599 163.584C590.261 155.15 602.305 150.08 614.398 148.518C625.791 147.048 636.977 148.703 647.649 153.44C656.639 157.495 664.925 163.693 672.279 171.86C679.704 180.109 685.987 190.162 690.957 201.742C696.703 215.122 701.108 230.716 704.048 248.094C706.834 264.564 708.33 282.762 708.496 302.19C708.806 338.664 704.397 379.519 695.746 420.34L695.062 420.321C713.701 332.382 711.97 253.029 690.315 202.611C680.499 179.739 665.207 162.683 647.258 154.589C625.092 144.753 601.383 148.23 578.691 164.643C570.562 170.514 562.647 177.949 555.165 186.74C533.825 211.717 514.717 249.487 498.372 299.007C488.909 327.646 481.702 356.334 476.478 378.127C474.132 387.918 471.612 400.139 468.944 413.077C464.025 436.939 458.448 463.988 451.209 490.137C442.779 520.584 433.841 543.346 423.881 559.723C418.517 568.557 412.775 575.576 406.811 580.584C400.346 586.015 393.42 589.254 386.224 590.215C375.049 591.765 364.528 587.419 354.06 576.926C344.961 567.804 337.177 555.335 330.311 544.337C321.424 529.996 312.994 514.6 305.253 498.577C298.864 485.333 292.822 471.408 287.295 457.188C275.876 427.821 267.834 393.479 260.056 360.27C257.072 347.522 253.984 334.342 250.743 321.591C244.335 296.381 238.631 277.909 232.252 261.695C218.101 225.745 196.589 207.281 168.309 206.8C123.785 205.902 71.8373 249.17 36.0975 285.628C10.3769 311.957 -15.6003 343.563 -37.0479 374.624C-53.5272 398.49 -67.6497 423.816 -82.601 450.628C-84.267 453.616 -85.9357 456.609 -87.6106 459.603C-90.875 465.442 -95.1845 473.126 -99.5659 480.765C-116.795 510.826 -139.833 545.143 -165.265 543.666C-166.169 543.611 -167.075 543.519 -167.977 543.389Z" fill="#FFE492"/>
<path d="M-173.919 578.226C-196.399 574.997 -213.887 547.265 -229.389 522.679C-234.154 515.125 -238.653 507.989 -243.093 501.863L-314.81 402.932L-314.211 401.882L-242.494 500.813C-238.042 506.954 -233.537 514.099 -228.767 521.664C-212.666 547.199 -194.414 576.143 -170.738 577.263C-145.031 578.482 -122.024 541.353 -104.853 508.875C-99.2371 498.252 -93.671 487.422 -88.2871 476.948C-73.563 448.304 -58.3383 418.683 -41.1545 391.548C-27.5099 370.003 -11.66 347.629 4.68034 326.848C22.6065 304.049 40.8597 283.391 58.9293 265.45C78.8524 245.67 98.0722 229.701 116.052 217.989C135.94 205.035 154.261 197.345 170.511 195.129C203.064 190.693 227.322 208.006 242.608 246.592C255.312 278.655 263.281 317.193 270.988 354.462C277.696 386.903 284.633 420.445 294.673 449.708C306.271 483.507 320.062 515.142 335.666 543.731C348.813 567.82 365.174 597.802 390.427 595.219C411.754 593.038 429.281 571.04 444.009 527.965C456.536 491.326 464.492 446.871 470.885 411.153C473.063 398.98 475.121 387.482 477.044 378.195C487.643 326.996 499.542 285.184 513.419 250.371C522.077 228.651 531.609 209.55 541.748 193.599C553.073 175.781 565.497 161.355 578.672 150.724C590.07 141.526 601.865 135.351 613.732 132.37C625.028 129.532 636.147 129.635 646.78 132.675C667.692 138.652 685.346 155.686 696.487 180.635C702.444 193.971 706.961 209.635 709.913 227.189C712.711 243.827 714.126 262.268 714.118 282.004C714.102 319.181 709.023 360.764 699.431 402.251L698.719 402.192C719.143 313.843 718.058 231.363 695.814 181.561C672.192 128.671 622.983 116.156 578.804 151.807C535.041 187.122 501.99 261.177 477.765 378.204C475.848 387.461 473.793 398.944 471.617 411.102C465.211 446.898 457.239 491.448 444.654 528.253C437.799 548.3 430.157 564.104 421.942 575.23C417.322 581.485 412.403 586.433 407.32 589.932C401.911 593.656 396.157 595.852 390.218 596.46C387.79 596.709 385.395 596.664 383.033 596.325C374.427 595.089 366.221 589.935 358.124 580.718C349.003 570.334 341.249 556.127 335.019 544.713C319.395 516.082 305.583 484.406 293.969 450.558C283.905 421.232 276.962 387.651 270.246 355.176C262.549 317.954 254.59 279.464 241.918 247.482C226.734 209.159 202.644 191.96 170.315 196.367C104.92 205.281 15.0763 304.175 -40.726 392.287C-57.8632 419.346 -73.0676 448.926 -87.772 477.532C-93.1585 488.011 -98.7279 498.848 -104.349 509.481C-115.749 531.043 -125.484 546.257 -134.984 557.355C-140.914 564.28 -146.789 569.568 -152.447 573.069C-158.737 576.961 -164.984 578.791 -171.016 578.507C-171.989 578.457 -172.959 578.364 -173.919 578.226Z" fill="#FFE492"/>
</g>
</svg>
