<svg width="320" height="1172" viewBox="0 0 320 1172" fill="none" xmlns="http://www.w3.org/2000/svg">
<g opacity="0.3">
<path d="M-8.72855 824.787C-12.2876 822.783 -15.4709 820.334 -18.24 817.465C-24.0466 811.447 -28.0842 803.53 -30.2404 793.934C-32.5594 783.622 -32.7233 771.258 -30.7301 757.185C-26.7228 728.898 -15.6129 698.577 -4.86859 669.253C-2.75935 663.495 -0.578082 657.541 1.49816 651.741C15.6428 612.208 25.6189 576.22 31.9982 541.722C44.7232 472.903 44.6573 408.019 31.8058 354.084C16.9421 291.71 -12.3616 248.307 -50.7089 231.871C-73.2482 222.213 -113.646 228.306 -147.25 258.641C-167.192 276.644 -181.662 300.937 -189.092 328.89L-189.276 328.923C-185.378 314.263 -179.596 300.623 -172.088 288.381C-165.2 277.151 -156.859 267.08 -147.296 258.446C-132.085 244.715 -114.273 234.983 -95.7834 230.303C-78.6987 225.979 -62.6452 226.447 -50.5775 231.619C-30.5101 240.222 -12.953 256.094 1.60402 278.798C14.7991 299.38 25.0254 324.651 31.9977 353.91C44.8574 407.877 44.9246 472.797 32.1912 541.656C25.8064 576.177 15.8247 612.185 1.67319 651.739C-0.40167 657.54 -2.58433 663.496 -4.69496 669.254C-15.4323 698.556 -26.5339 728.856 -30.5343 757.101C-34.4048 784.42 -30.2128 804.65 -18.0756 817.228C-1.26823 834.647 30.3849 835.834 66.5965 820.398C118.779 798.155 171.804 752.867 223.083 709.073C232.072 701.397 241.365 693.459 250.429 685.845C273.964 666.071 305.011 640.758 336.464 620.343C368.614 599.477 396.595 586.601 422.008 580.978C437.562 577.536 452.033 577.465 465.018 580.766C477.012 583.815 488.129 589.845 498.062 598.685C515.1 613.851 529.292 637.582 541.454 671.231C565.397 737.492 584.467 812.291 598.131 893.554C611.118 970.791 619.348 1054.55 622.593 1142.5L622.397 1142.62C615.671 960.317 588.376 801.781 541.269 671.418C514.654 597.767 476.74 569.109 421.947 581.232C366.204 593.563 306.588 638.894 250.467 686.044C241.406 693.657 232.113 701.595 223.124 709.271C171.829 753.082 118.787 798.383 66.5685 820.641C49.6936 827.834 33.1724 831.553 18.7928 831.395C11.1965 831.312 4.25529 830.145 -1.84055 827.929C-4.27421 827.053 -6.57113 826.002 -8.72855 824.787Z" fill="#A1A1A1"/>
<path d="M2.49419 812.996C-6.58159 807.886 -13.2532 800.07 -17.3417 789.758C-21.9008 778.259 -23.2129 763.68 -21.2443 746.427C-21.0693 744.899 -20.8667 743.331 -20.6406 741.764C-16.5936 713.633 -5.88796 683.559 4.46728 654.475C6.55882 648.597 8.72378 642.517 10.7823 636.595C23.0381 601.328 31.9765 569.195 38.1038 538.364C38.8576 534.569 39.5783 530.745 40.2424 526.999C52.3977 458.513 51.7548 394.125 38.3841 340.796C22.8523 278.968 -7.04258 236.344 -45.7952 220.78C-68.4637 211.711 -108.934 218.236 -142.429 248.253C-162.486 266.228 -177.238 290.427 -185.092 318.236L-185.274 318.263C-181.157 303.687 -175.196 290.115 -167.556 277.929C-160.539 266.736 -152.101 256.686 -142.476 248.059C-127.224 234.389 -109.43 224.625 -91.0196 219.822C-74.0036 215.383 -57.8987 215.633 -45.6693 220.527C-25.3779 228.678 -7.55403 244.128 7.30687 266.447C20.7672 286.664 31.2863 311.621 38.5718 340.624C51.9508 393.983 52.5922 458.409 40.4314 526.934C39.7659 530.682 39.0451 534.509 38.29 538.307C32.1585 569.159 23.2159 601.308 10.9532 636.594C8.89606 642.517 6.7311 648.597 4.63816 654.478C-5.70875 683.544 -16.4075 713.595 -20.4489 741.688C-20.6736 743.249 -20.8762 744.817 -21.0512 746.342C-25.1241 782.003 -15.0254 803.131 2.53687 813.02C2.63326 813.075 2.72827 813.128 2.82464 813.182C2.71588 813.118 2.60433 813.058 2.49419 812.996ZM6.3372 814.934C23.5065 822.633 46.6546 820.931 70.4805 812.426C121.958 793.932 175.719 750.87 227.711 709.226C229.853 707.509 231.992 705.797 234.131 704.085C238.828 700.327 244.391 695.879 250.029 691.413C275.316 671.384 305.234 648.359 335.402 629.458C367.501 609.345 395.374 596.703 420.613 590.805C436.116 587.191 450.64 586.674 463.782 589.269C475.958 591.672 487.351 596.83 497.644 604.595C515.423 618.012 530.586 639.459 543.998 670.166C557.09 700.077 566.702 726.707 574.247 753.97C584.922 792.617 592.305 834.376 598.12 870.128C611.546 953.41 619.723 1044 622.425 1139.38L622.23 1139.5C619.529 1044.14 611.353 953.557 597.928 870.285C592.114 834.537 584.733 792.785 574.059 754.149C566.515 726.893 556.906 700.271 543.816 670.367C514.598 603.474 475.43 578.272 420.552 591.061C363.574 604.372 302.671 649.948 250.058 691.623C244.418 696.089 238.858 700.534 234.16 704.295C232.022 706.005 229.881 707.719 227.739 709.437C175.731 751.093 121.951 794.17 70.436 812.679C57.6838 817.23 45.4675 819.671 34.126 819.93C23.5715 820.166 14.2443 818.488 6.3372 814.934Z" fill="#A1A1A1"/>
<path d="M13.8979 801.719C12.8061 801.104 11.7447 800.451 10.7164 799.759C2.05126 793.939 -4.2512 785.504 -8.01221 774.684C-12.1256 762.85 -13.188 748.156 -11.1673 731.007C-10.9854 729.48 -10.7786 727.911 -10.5498 726.346C-6.4659 698.384 3.83688 668.565 13.8003 639.733C15.8769 633.723 18.0242 627.507 20.0637 621.451C31.9736 586.132 40.6017 554.122 46.4391 523.59C47.1597 519.815 47.8487 516.008 48.4825 512.278C60.0666 444.127 58.8468 380.236 44.9567 327.513C28.7584 266.231 -1.72645 224.385 -40.8858 209.691C-62.9618 201.467 -102.636 206.768 -137.576 237.837C-157.763 255.787 -172.812 279.907 -181.096 307.586L-181.275 307.605C-176.935 293.103 -170.789 279.597 -163.011 267.458C-155.858 256.294 -147.316 246.265 -137.621 237.644C-122.331 224.047 -104.564 214.261 -86.2381 209.34C-69.2963 204.791 -53.1456 204.827 -40.7613 209.441C-20.2458 217.142 -2.15381 232.167 13.0096 254.1C26.7352 273.955 37.547 298.596 45.1444 327.341C59.0413 380.096 60.2611 444.023 48.6714 512.213C48.0363 515.946 47.3487 519.753 46.6253 523.533C40.7837 554.082 32.15 586.111 20.2332 621.45C18.1923 627.508 16.045 633.724 13.9684 639.734C4.01193 668.551 -6.2839 698.347 -10.3636 726.276C-10.5925 727.841 -10.8006 729.406 -10.9797 730.928C-19.1901 800.611 25.9704 818.063 74.3659 804.45C125.355 789.865 180.258 748.82 233.353 709.127L233.898 708.72C239.043 704.871 244.361 700.894 249.632 696.977C305.236 655.658 364.135 614.182 419.224 600.626C434.679 596.839 449.257 595.878 462.552 597.766C474.918 599.523 486.586 603.808 497.232 610.501C515.793 622.168 531.924 641.335 546.55 669.096C561.951 698.216 572.084 722.716 579.404 748.54C589.807 785.381 595.976 828.006 601.419 865.614C613.361 949.662 620.374 1040.72 622.266 1136.24L622.072 1136.37C620.179 1040.85 613.166 949.804 601.227 865.765C595.784 828.163 589.616 785.545 579.216 748.716C571.9 722.901 561.77 698.408 546.374 669.298C514.672 609.123 474.252 587.381 419.167 600.875C364.114 614.422 305.24 655.88 249.656 697.185C244.386 701.102 239.066 705.081 233.922 708.927L233.377 709.335C206.918 729.115 179.559 749.568 152.876 766.573C122.89 785.683 97.1928 798.153 74.3144 804.696C50.4546 811.406 29.1871 810.328 13.8979 801.719Z" fill="#A1A1A1"/>
<path d="M621.917 1133.23C620.832 1037.56 614.982 946.05 604.528 861.246C604.074 857.673 603.625 854.085 603.172 850.487C598.577 813.873 593.825 776.014 584.377 743.284C575.179 711.588 561.3 687.558 548.935 668.233C514.894 614.728 473.221 596.446 417.786 610.69C360.82 625.418 298.961 668.296 249.257 702.751C246.273 704.819 243.29 706.893 240.303 708.969C238.098 710.502 235.891 712.034 233.686 713.563C205.369 733.209 179.849 750.659 154.269 765.29C125.046 782.004 100.163 792.284 78.1923 796.718C57.6019 800.875 39.2372 798.867 25.4679 791.117C22.9594 789.704 20.6056 788.104 18.4161 786.312C10.422 779.77 4.66488 770.794 1.30555 759.635C-2.36067 747.458 -3.16798 732.639 -1.0964 715.587C-0.908999 714.059 -0.696718 712.491 -0.463761 710.924C3.65705 683.141 13.5542 653.596 23.1257 625.024C25.1874 618.871 27.3198 612.504 29.3444 606.3C40.9085 570.919 49.2263 539.029 54.7765 508.807C55.4668 505.047 56.1213 501.26 56.7247 497.548C67.7363 429.731 65.9409 366.337 51.5343 314.219C34.6693 253.484 3.59324 212.42 -35.9687 198.589C-63.0634 189.22 -102.831 201.06 -132.676 227.376C-153.008 245.306 -168.365 269.355 -177.09 296.922L-177.268 296.935C-172.7 282.501 -166.365 269.049 -158.44 256.951C-151.143 245.813 -142.489 235.797 -132.719 227.18C-117.396 213.667 -99.6594 203.864 -81.4282 198.835C-64.5662 194.182 -48.3778 194.004 -35.8456 198.338C-15.1046 205.587 3.25271 220.19 18.7186 241.737C32.7081 261.23 43.814 285.557 51.7248 314.042C66.141 366.191 67.9363 429.62 56.9178 497.479C56.3144 501.194 55.6585 504.984 54.9682 508.744C49.4152 538.983 41.0918 570.889 29.5236 606.288C27.4976 612.494 25.3666 618.858 23.3035 625.014C13.7375 653.57 3.8473 683.096 -0.269316 710.846C-0.500865 712.41 -0.713152 713.975 -0.900561 715.5C-9.81204 788.849 36.1736 804.955 78.2589 796.461C128.472 786.326 184.361 747.553 233.674 713.343C235.88 711.811 238.085 710.278 240.291 708.749C243.277 706.672 246.261 704.599 249.245 702.531C277.616 682.864 305.394 663.869 333.298 647.665C365.388 629.028 393.043 616.852 417.844 610.438C433.258 606.477 447.888 605.069 461.329 606.257C473.892 607.365 485.834 610.779 496.828 616.4C516.215 626.315 533.316 643.201 549.109 668.021C561.476 687.354 575.362 711.394 584.564 743.109C594.018 775.851 598.77 813.72 603.367 850.341C603.818 853.939 604.269 857.527 604.723 861.1C615.178 945.911 621.028 1037.43 622.113 1133.11L621.917 1133.23Z" fill="#A1A1A1"/>
<path d="M621.763 1130.1C621.479 1032.45 616.793 940.475 607.832 856.729C607.295 851.718 606.763 846.564 606.247 841.582C602.55 805.894 598.728 768.992 589.54 737.854C580.326 706.831 565.141 684.712 551.499 667.167C515.297 620.274 472.37 605.447 416.407 620.507C362.959 634.994 307.356 670.726 253.584 705.281L247.68 709.074C243.017 712.071 238.196 715.168 233.455 718.199C179.816 752.457 127.879 783.627 82.0772 788.738C70.9627 789.978 60.6207 789.351 51.3321 786.879C41.3589 784.222 32.8819 779.491 26.1367 772.815C18.8109 765.562 13.5963 756.058 10.6386 744.565C7.41952 732.058 6.86328 717.119 8.98566 700.166C9.17998 698.633 9.39774 697.064 9.63346 695.502C13.7856 667.915 23.277 638.658 32.4566 610.364C34.5049 604.051 36.6224 597.521 38.6335 591.154C49.8477 555.705 57.8579 523.936 63.1209 494.031C63.7781 490.295 64.4022 486.523 64.9739 482.825C75.4143 415.343 73.0433 352.447 58.1175 300.932C40.5817 240.747 8.91581 200.46 -31.0528 187.496C-58.2328 178.804 -97.9885 190.89 -127.731 216.889C-148.224 234.802 -163.908 258.793 -173.088 286.269L-173.264 286.276C-168.462 271.9 -161.93 258.494 -153.853 246.433C-146.406 235.315 -137.633 225.309 -127.777 216.695C-112.422 203.274 -94.7268 193.467 -76.6002 188.333C-59.8235 183.581 -43.6058 183.196 -30.9339 187.246C-9.96885 194.046 8.65524 208.223 24.425 229.385C38.6797 248.517 50.0784 272.527 58.3025 300.755C73.2379 352.297 75.6088 415.233 65.1628 482.754C64.5898 486.454 63.9656 490.229 63.3084 493.966C58.0441 523.886 50.0296 555.672 38.8086 591.14C36.7974 597.506 34.6785 604.039 32.6303 610.352C23.4562 638.63 13.969 667.873 9.82237 695.428C9.58804 696.984 9.37167 698.55 9.17597 700.082C0.138379 772.271 40.9461 793.08 82.1507 788.482C127.915 783.376 179.832 752.216 233.447 717.975C238.188 714.943 243.009 711.847 247.673 708.849L253.576 705.057C279.971 688.096 307.264 670.555 334.714 655.398C365.803 638.232 392.543 626.736 416.46 620.252C431.84 616.113 446.525 614.261 460.104 614.748C472.872 615.205 485.091 617.745 496.421 622.298C516.694 630.445 534.762 645.05 551.665 666.943C565.312 684.498 580.507 706.626 589.725 737.674C598.919 768.825 602.743 805.738 606.44 841.435C606.956 846.418 607.49 851.569 608.025 856.582C616.988 940.336 621.675 1032.32 621.958 1129.97L621.763 1130.1Z" fill="#A1A1A1"/>
<path d="M621.608 1126.96C622.147 1028.7 618.623 936.258 611.133 852.214C610.569 845.898 610.03 839.356 609.508 833.031C606.631 798.168 603.655 762.117 594.697 732.429C585.389 701.795 568.932 681.712 554.059 666.106C515.917 625.739 471.737 614.372 415.023 630.328C365.454 644.386 314.058 674.927 264.354 704.461C259.123 707.569 253.715 710.781 248.46 713.885C242.289 717.531 237.587 720.294 233.218 722.839C209.824 736.461 182.419 751.882 156.531 762.968C129.098 774.713 106.013 780.534 85.9547 780.764C75.4073 780.885 65.6872 779.234 57.0645 775.853C47.8055 772.224 39.9943 766.661 33.8512 759.318C27.195 751.363 22.5244 741.331 19.9656 729.5C17.1909 716.671 16.8885 701.612 19.063 684.747C19.2628 683.22 19.4848 681.65 19.7246 680.084C23.9053 652.714 32.991 623.762 41.7759 595.763C43.8135 589.269 45.9203 582.556 47.9193 576.008C58.785 540.478 66.4849 508.832 71.4606 479.254C72.0861 475.535 72.6771 471.784 73.2184 468.101C83.0877 400.954 80.1397 338.554 64.696 287.643C46.4935 228.007 14.235 188.503 -26.1363 176.402C-49.1644 169.618 -87.9663 176.251 -122.739 206.361C-143.413 224.262 -159.44 248.209 -169.084 275.611L-169.256 275.611C-164.214 261.282 -157.479 247.917 -149.238 235.884C-141.631 224.778 -132.731 214.778 -122.78 206.163C-107.401 192.846 -89.7536 183.045 -71.7411 177.814C-55.0538 172.969 -38.8165 172.379 -26.0159 176.15C-4.8268 182.5 14.0654 196.252 30.1364 217.028C44.6549 235.797 56.3463 259.494 64.8823 287.464C80.3357 338.402 83.285 400.838 73.4101 468.025C72.8688 471.707 72.2764 475.464 71.6495 479.186C66.671 508.778 58.9669 540.442 48.0971 575.988C46.0981 582.539 43.9913 589.253 41.9537 595.747C33.1716 623.731 24.0928 652.667 19.9163 680.008C19.6778 681.572 19.4559 683.138 19.2575 684.662C11.4438 745.242 36.4115 781.071 86.0461 780.502C130.995 779.988 183.401 751.617 233.226 722.604C237.595 720.058 242.295 717.295 248.466 713.649C253.721 710.545 259.129 707.333 264.36 704.225C288.829 689.685 314.13 674.651 339.487 661.51C368.162 646.649 392.89 636.365 415.08 630.072C430.436 625.752 445.173 623.453 458.882 623.244C471.867 623.044 484.36 624.714 496.016 628.202C517.237 634.557 536.277 646.879 554.222 665.871C569.102 681.487 585.573 701.582 594.888 732.242C603.851 761.95 606.827 798.01 609.705 832.884C610.227 839.209 610.767 845.751 611.33 852.066C618.819 936.119 622.345 1028.57 621.806 1126.84L621.608 1126.96Z" fill="#A1A1A1"/>
<path d="M621.445 1123.82C622.813 1024.94 620.452 932.029 614.428 847.692C613.914 840.518 613.455 833.032 613.009 825.793C610.885 791.308 608.69 755.652 599.852 726.994C590.399 696.584 572.692 678.609 556.616 665.036C517.357 631.555 470.586 623.412 413.635 640.14C368.213 653.594 321.256 679.368 275.845 704.295C266.673 709.33 257.188 714.538 248.053 719.447C242.464 722.454 237.532 725.08 232.974 727.474C211.79 738.589 184.083 752.534 157.651 761.797C131.093 771.102 108.906 774.696 89.8249 772.783C69.0127 770.697 52.3218 761.369 41.5558 745.812C35.5707 737.161 31.4412 726.603 29.2827 714.428C26.9523 701.283 26.9022 686.108 29.1291 669.327C29.3344 667.8 29.5619 666.231 29.8045 664.666C34.0095 637.536 42.6853 608.913 51.0755 581.235C53.1051 574.539 55.2041 567.617 57.1925 560.863C67.7068 525.245 75.0992 493.717 79.7891 464.479C80.3828 460.778 80.9421 457.044 81.4517 453.379C90.7498 386.567 87.2276 324.662 71.2632 274.361C52.3928 215.276 19.543 176.551 -21.2322 165.313C-48.9394 157.828 -87.7114 170.079 -117.708 195.796C-138.582 213.692 -154.967 237.608 -165.092 264.959L-165.261 264.951C-159.971 250.659 -153.023 237.322 -144.613 225.313C-136.84 214.214 -127.8 204.215 -117.747 195.596C-102.349 182.393 -84.757 172.606 -66.8726 167.29C-50.2843 162.361 -34.0315 161.566 -21.1132 165.056C0.299912 170.957 19.4589 184.288 35.8337 204.675C50.6175 223.082 62.6017 246.465 71.451 274.175C87.4236 324.507 90.9485 386.446 81.6448 453.301C81.1352 456.965 80.5745 460.702 79.9808 464.406C75.2867 493.661 67.8916 525.204 57.3731 560.838C55.3847 567.593 53.2844 574.517 51.2547 581.213C42.8687 608.877 34.197 637.486 29.9961 664.59C29.7536 666.154 29.5275 667.718 29.3222 669.245C21.3454 729.313 44.0011 767.921 89.926 772.526C131.794 776.722 183.428 753.239 232.987 727.239C237.543 724.844 242.475 722.221 248.063 719.214C257.197 714.303 266.681 709.098 275.852 704.063C321.273 679.132 368.239 653.35 413.682 639.892C429.031 635.383 443.821 632.642 457.644 631.74C470.864 630.88 483.632 631.677 495.595 634.109C517.841 638.632 537.85 648.673 556.764 664.802C572.85 678.385 590.575 696.372 600.035 726.816C608.88 755.494 611.076 791.164 613.2 825.661C613.646 832.901 614.107 840.384 614.621 847.558C620.646 931.902 623.007 1024.82 621.639 1123.71L621.445 1123.82Z" fill="#A1A1A1"/>
<path d="M621.291 1120.69C623.495 1021.17 622.296 927.805 617.73 843.177C617.311 835.4 616.976 827.227 616.654 819.324C615.247 784.962 613.795 749.429 605.012 721.566C595.383 691.27 576.439 675.451 559.178 663.972C518.625 636.687 470.566 632.102 412.254 649.959C371.287 662.61 329.053 684.036 288.21 704.754C274.166 711.88 260.9 718.609 247.655 725.014C242.266 727.623 237.387 729.946 232.74 732.112C202.768 746.068 179.267 755.129 158.783 760.623C133.085 767.517 111.798 768.886 93.7067 764.804C86.6891 763.22 80.201 760.747 74.3262 757.439C63.9122 751.574 55.4172 743.091 49.2733 732.304C38.1546 712.781 34.7688 686.405 39.2094 653.906C39.423 652.367 39.6546 650.8 39.9 649.244C44.1239 622.379 52.3869 594.119 60.3796 566.786C62.4041 559.861 64.4979 552.704 66.4812 545.713C76.6443 509.996 83.725 478.589 88.1331 449.7C88.6951 446.017 89.2227 442.301 89.7005 438.654C98.4275 372.176 94.3283 310.767 77.846 261.07C58.3062 202.54 24.8679 164.593 -16.3113 154.217C-44.4605 147.282 -82.258 159.435 -112.603 185.182C-133.696 203.077 -150.459 226.978 -161.083 254.301L-161.251 254.287C-155.703 240.02 -148.535 226.704 -139.944 214.71C-131.991 203.607 -122.807 193.606 -112.641 184.982C-97.2307 171.907 -79.7063 162.146 -61.9596 156.753C-45.4746 151.742 -29.2227 150.753 -16.1951 153.962C5.44212 159.414 24.8692 172.319 41.5452 192.32C56.5929 210.368 68.8684 233.437 78.0338 260.885C94.5243 310.612 98.6261 372.055 89.895 438.572C89.4158 442.222 88.8882 445.938 88.3262 449.625C83.9167 478.529 76.8318 509.952 66.6646 545.684C64.6813 552.674 62.5874 559.835 60.5616 566.759C52.573 594.078 44.3128 622.327 40.093 649.168C39.8491 650.722 39.6161 652.289 39.4039 653.825C31.109 714.515 50.9432 754.872 93.8216 764.546C134.639 773.754 186.962 753.195 232.765 731.867C237.411 729.701 242.288 727.38 247.678 724.772C260.921 718.366 274.185 711.639 288.229 704.513C329.08 683.789 371.322 662.361 412.304 649.705C427.666 645.001 442.509 641.814 456.423 640.233C469.899 638.702 482.944 638.626 495.192 640.009C518.55 642.649 539.528 650.407 559.323 663.727C576.6 675.215 595.56 691.049 605.2 721.381C613.991 749.265 615.443 784.813 616.85 819.188C617.173 827.093 617.507 835.265 617.926 843.039C622.492 927.673 623.69 1021.05 621.486 1120.57L621.291 1120.69Z" fill="#A1A1A1"/>
<path d="M621.129 1117.56C624.217 1016 624.183 924.767 621.025 838.659C620.723 830.443 620.553 822.13 620.372 813.329C619.666 778.925 618.934 743.353 610.164 716.137C600.278 685.705 579.088 671.704 561.732 662.907C520.342 641.631 470.992 640.607 410.862 659.778C374.72 671.399 337.555 688.865 301.612 705.759C282.722 714.638 264.882 723.021 247.246 730.582C242.009 732.83 237.183 734.846 232.495 736.75C203.454 748.518 180.39 755.728 159.906 759.444C135.044 763.954 114.657 763.097 97.5789 756.824C88.8043 753.6 80.9572 748.858 74.2551 742.73C67.1594 736.241 61.3483 728.186 56.9825 718.791C47.3063 697.966 44.7141 670.95 49.2787 638.489C49.4979 636.95 49.735 635.382 49.9831 633.827C54.2174 607.27 62.0663 579.403 69.6559 552.455C71.6809 545.265 73.7752 537.83 75.7576 530.571C85.5653 494.743 92.3385 463.458 96.4634 434.927C96.9923 431.26 97.4881 427.562 97.937 423.934C106.093 357.791 101.418 296.88 84.4179 247.787C68.6621 202.59 44.5016 170.032 14.9159 153.372C6.55189 148.662 -2.23884 145.225 -11.4027 143.127C-39.5338 136.846 -77.2351 149.173 -107.454 174.531C-128.784 192.433 -145.948 216.334 -157.089 243.65L-157.254 243.628C-151.442 229.374 -144.042 216.069 -135.262 204.084C-127.123 192.973 -117.779 182.962 -107.492 174.329C-92.0764 161.392 -74.6293 151.668 -57.0326 146.207C-40.4219 141.051 -24.604 139.898 -11.292 142.873C10.5693 147.875 30.2631 160.358 47.243 179.97C62.556 197.654 75.1269 220.407 84.6043 247.598C101.614 296.718 106.293 357.665 98.1329 423.847C97.6854 427.476 97.1895 431.177 96.6593 434.847C92.5316 463.392 85.7556 494.692 75.9437 530.536C73.9613 537.795 71.8684 545.232 69.842 552.424C62.2552 579.361 54.4091 607.216 50.1775 633.753C49.9308 635.305 49.6937 636.872 49.4746 638.408C40.9399 699.109 58.5201 742.174 97.7075 756.57C137.362 771.135 190.591 753.495 232.534 736.5C237.222 734.597 242.046 732.579 247.282 730.334C264.914 722.778 282.754 714.391 301.642 705.514C337.588 688.619 374.76 671.147 410.915 659.524C441.873 649.653 469.304 645.202 494.779 645.914C519.348 646.601 541.295 652.078 561.873 662.656C573.65 668.625 582.535 674.78 589.838 682.022C599.266 691.373 605.977 702.47 610.356 715.95C619.134 743.191 619.865 778.782 620.572 813.203C620.752 822.003 620.925 830.314 621.224 838.528C624.382 924.64 624.416 1015.87 621.328 1117.44L621.129 1117.56Z" fill="#A1A1A1"/>
<path d="M620.972 1114.42C624.92 1012.21 626.016 920.534 624.326 834.14C624.16 825.593 624.154 816.881 624.149 807.659C624.128 773.104 624.109 737.37 615.324 710.705C605.219 680.266 582.745 668.601 564.296 661.837C522.67 646.317 472.029 648.854 409.482 669.591C378.608 679.909 346.934 693.778 316.303 707.191C292.088 717.793 269.218 727.81 246.85 736.14C241.793 738.027 236.884 739.789 232.262 741.378C204.421 750.937 181.126 756.456 161.044 758.251C136.998 760.4 117.508 757.322 101.462 748.836C93.2985 744.518 86.0747 738.742 79.9986 731.67C73.6295 724.255 68.4842 715.372 64.7068 705.264C56.462 683.201 54.662 655.544 59.359 623.06C59.5836 621.528 59.8248 619.959 60.0784 618.398C64.315 592.194 71.7427 564.773 78.9249 538.255C80.9574 530.752 83.0592 522.991 85.0463 515.414C94.4987 479.464 100.962 448.302 104.807 420.141C105.305 416.492 105.769 412.811 106.186 409.201C113.77 343.393 108.519 282.978 91.0006 234.49C70.122 177.072 35.4998 140.683 -6.48455 132.026C-34.5658 126.384 -72.1488 138.865 -102.229 163.82C-123.82 181.733 -141.404 205.65 -153.085 232.988L-153.246 232.959C-147.158 218.708 -139.517 205.403 -130.535 193.415C-122.196 182.288 -112.685 172.261 -102.265 163.615C-86.8546 150.83 -69.4944 141.155 -52.0603 135.634C-35.5708 130.413 -19.7731 129.077 -6.37246 131.769C15.7129 136.325 35.6749 148.381 52.9558 167.606C68.5313 184.933 81.3936 207.372 91.1856 234.299C108.716 282.815 113.969 343.266 106.379 409.113C105.963 412.724 105.499 416.408 105 420.059C101.153 448.235 94.6862 479.412 85.231 515.376C83.2453 522.954 81.1421 530.714 79.1097 538.22C71.9302 564.726 64.5052 592.136 60.2715 618.322C60.0193 619.881 59.778 621.45 59.5534 622.979C50.6003 684.902 65.5303 729.515 101.6 748.584C130.866 764.061 172.4 761.689 232.308 741.123C236.928 739.533 241.835 737.772 246.892 735.886C269.254 727.555 292.122 717.544 316.333 706.94C346.969 693.526 378.648 679.654 409.531 669.334C441.067 658.877 468.817 653.148 494.371 651.811C520.258 650.459 543.174 653.652 564.426 661.577C582.896 668.346 605.394 680.029 615.515 710.515C624.308 737.21 624.328 772.961 624.349 807.532C624.353 816.754 624.36 825.463 624.526 834.007C626.217 920.405 625.12 1012.09 621.171 1114.3L620.972 1114.42Z" fill="#A1A1A1"/>
<path d="M620.812 1111.28C625.625 1008.43 627.854 916.295 627.623 829.623C627.6 820.824 627.771 811.791 627.953 802.228C628.615 767.439 629.298 731.467 620.481 705.275C610.141 674.795 586.391 665.48 566.856 660.769C525.242 650.514 474.796 656.437 408.095 679.407C383.035 688.1 357.378 698.669 332.567 708.89C302.432 721.302 273.966 733.029 246.445 741.704C241.485 743.27 236.632 744.721 232.022 746.013C204.885 753.607 182.038 757.221 162.177 757.058C151.053 756.967 140.764 755.646 131.597 753.132C121.819 750.45 112.984 746.319 105.337 740.855C89.8221 729.767 78.7491 713.242 72.4259 691.74C65.5973 668.518 64.5894 640.224 69.434 607.64C69.6669 606.099 69.9137 604.531 70.1659 602.978C74.3934 577.189 81.3917 550.277 88.1595 524.253C90.2078 516.374 92.3269 508.228 94.327 500.268C103.42 464.183 109.574 433.141 113.142 405.364C113.609 401.73 114.04 398.067 114.425 394.477C121.44 329.002 115.613 269.084 97.5741 221.204C76.026 164.344 40.8139 128.735 -1.57438 120.935C-47.0754 112.785 -116.41 149.234 -149.087 222.334L-149.245 222.296C-141.071 204.01 -130.486 187.422 -117.783 172.986C-106.181 159.803 -93.0423 148.646 -78.7335 139.83C-65.4291 131.631 -51.7238 125.802 -37.9996 122.503C-24.9468 119.366 -12.3119 118.733 -1.46505 120.676C20.8444 124.782 41.0731 136.416 58.6566 155.255C74.4959 172.223 87.651 194.348 97.7563 221.016C115.803 268.926 121.635 328.878 114.617 394.391C114.232 397.984 113.801 401.647 113.334 405.284C109.764 433.074 103.606 464.133 94.5103 500.232C92.5102 508.193 90.3912 516.338 88.3415 524.219C81.5764 550.235 74.5809 577.136 70.3562 602.911C70.1026 604.462 69.8545 606.03 69.623 607.568C60.3145 670.191 73.0511 717.439 105.482 740.616C132.94 760.234 174.347 761.919 232.073 745.764C236.682 744.471 241.533 743.022 246.493 741.456C274.007 732.783 302.468 721.057 332.599 708.646C357.413 698.424 383.073 687.853 408.137 679.159C474.865 656.178 525.333 650.255 566.97 660.513C580.097 663.679 590.047 667.93 598.283 673.897C608.813 681.524 616.133 691.725 620.666 705.088C629.494 731.309 628.81 767.303 628.148 802.111C627.967 811.671 627.795 820.703 627.818 829.499C628.049 916.178 625.819 1008.31 621.005 1111.18L620.812 1111.28Z" fill="#A1A1A1"/>
<path d="M620.659 1108.15C626.348 1004.64 629.705 912.052 630.929 825.106C631.055 816.11 631.409 806.812 631.786 796.964C633.125 761.884 634.51 725.609 625.644 699.845C614.938 668.952 588.43 662.139 569.423 659.701C517.952 652.876 458.291 670.794 406.717 689.227C388.15 695.905 369.179 703.37 350.831 710.588C314.024 725.068 279.26 738.745 246.05 747.272C241.165 748.528 236.368 749.666 231.79 750.654C205.274 756.352 182.877 758.059 163.322 755.869C141.153 753.388 122.952 745.654 109.222 732.878C95.1177 719.752 85.338 701.362 80.1575 678.217C74.7227 653.943 74.507 625.012 79.5147 592.225C79.7531 590.687 80.0039 589.118 80.2617 587.562C84.4621 562.275 91.021 535.963 97.3634 510.514C99.4428 502.175 101.59 493.553 103.616 485.125C112.47 448.389 118.147 418.352 121.486 390.592C121.921 386.975 122.321 383.333 122.674 379.758C129.114 314.618 122.71 255.197 104.154 207.919C81.9356 151.619 46.1337 116.787 3.34277 109.843C-42.8226 102.554 -110.962 138.652 -145.083 211.682L-145.237 211.637C-136.771 193.518 -125.999 177.058 -113.221 162.713C-101.512 149.571 -88.3348 138.416 -74.0549 129.564C-60.738 121.308 -47.0311 115.38 -33.3107 111.94C-20.2467 108.663 -7.53434 107.851 3.45211 109.584C25.987 113.242 46.481 124.452 64.3671 142.903C80.4703 159.512 93.9181 181.323 104.338 207.728C122.906 255.032 129.313 314.487 122.866 379.666C122.511 383.243 122.112 386.889 121.678 390.506C118.339 418.279 112.657 448.332 103.799 485.083C101.774 493.511 99.6248 502.135 97.5454 510.474C91.2058 535.915 84.6496 562.219 80.4492 587.493C80.1915 589.049 79.9406 590.615 79.7022 592.153C69.9686 655.887 80.5065 705.781 109.375 732.644C135.267 756.738 175.329 762.543 231.852 750.398C236.428 749.412 241.223 748.277 246.106 747.019C279.307 738.493 314.066 724.82 350.867 710.34C369.215 703.122 388.189 695.655 406.758 688.976C441.438 676.583 469.017 668.53 493.547 663.629C522.425 657.862 547.277 656.493 569.527 659.443C583.121 661.186 593.911 664.585 602.514 669.837C613.591 676.598 621.218 686.352 625.829 699.658C634.708 725.455 633.321 761.752 631.981 796.854C631.605 806.699 631.249 815.996 631.124 824.987C629.902 911.937 626.542 1004.53 620.855 1108.04L620.659 1108.15Z" fill="#A1A1A1"/>
<path d="M620.503 1105.01C627.07 1000.84 631.56 907.802 634.229 820.584C634.509 811.438 635.051 801.916 635.626 791.833C637.642 756.414 639.728 719.789 630.803 694.413C619.838 663.432 591.985 659.153 571.986 658.631C522.692 657.168 467.347 676.067 405.334 699.042C394.133 703.215 382.711 707.6 371.663 711.843C329.175 728.159 285.243 745.03 245.649 752.834C240.838 753.786 236.094 754.61 231.551 755.286C205.949 759.082 183.378 758.873 164.463 754.667C143.035 749.903 125.756 739.885 113.098 724.893C100.384 709.833 91.9001 689.576 87.8817 664.683C83.8157 639.492 84.3881 609.925 89.5838 576.803C89.8277 575.266 90.0842 573.696 90.3447 572.142C94.4985 547.476 100.6 521.882 106.5 497.132C108.626 488.214 110.824 478.994 112.891 469.981C121.376 433.079 126.754 403.158 129.815 375.817C130.217 372.227 130.585 368.599 130.908 365.036C136.785 300.226 129.806 241.303 110.729 194.63C87.8406 138.891 51.4488 104.839 8.25396 98.7477C-36.928 92.5464 -104.621 126.283 -141.084 201.023L-141.235 200.971C-132.476 183.018 -121.518 166.688 -108.666 152.433C-96.8492 139.329 -83.6333 128.18 -69.3836 119.291C-43.0946 102.895 -14.7582 95.3129 8.36054 98.4876C31.1181 101.698 51.8803 112.484 70.0702 130.546C86.4359 146.798 100.176 168.292 110.911 194.435C129.999 241.134 136.981 300.094 131.105 364.937C130.782 368.503 130.414 372.131 130.012 375.724C126.948 403.08 121.569 433.013 113.08 469.929C111.012 478.944 108.815 488.165 106.689 497.083C100.79 521.827 94.6901 547.416 90.5377 572.07C90.2759 573.623 90.0208 575.19 89.7769 576.728C79.3814 642.994 87.5025 694.149 113.261 724.665C137.114 752.92 176.934 763.135 231.621 755.027C236.162 754.351 240.901 753.527 245.71 752.578C285.29 744.775 329.216 727.908 371.696 711.594C382.744 707.351 394.166 702.965 405.368 698.793C432.514 688.736 463.921 677.353 493.133 669.533C523.69 661.354 549.511 657.704 572.074 658.374C586.306 658.746 597.645 661.167 606.736 665.775C618.202 671.585 626.357 681.157 630.982 694.226C634.981 705.594 637.111 720.398 637.494 739.486C637.834 756.341 636.808 774.331 635.817 791.728C635.243 801.807 634.701 811.329 634.421 820.472C631.751 907.694 627.262 1000.73 620.694 1104.91L620.503 1105.01Z" fill="#A1A1A1"/>
<path d="M620.346 1101.88C627.799 997.039 633.42 903.549 637.529 816.068C637.963 806.805 638.695 797.092 639.47 786.812C642.167 751.016 644.956 714.001 635.96 688.986C627.529 665.654 607.439 655.377 574.545 657.566C528.624 660.504 477.986 680.157 424.372 700.966C417.696 703.558 410.795 706.236 403.947 708.864C401.264 709.898 398.576 710.936 395.891 711.972C344.886 731.658 292.146 752.015 245.248 758.403C240.506 759.051 235.818 759.564 231.314 759.925C206.205 761.932 184.098 759.761 165.612 753.471C144.912 746.426 128.549 734.127 116.981 716.915C105.629 700.023 98.4411 677.899 95.6182 651.157C92.882 625.237 94.2425 595.036 99.6638 561.389C99.9132 559.851 100.175 558.281 100.44 556.726C104.512 532.861 110.134 508.168 115.568 484.287C117.77 474.616 120.045 464.615 122.181 454.836C130.293 417.753 135.372 387.949 138.16 361.042C138.53 357.467 138.866 353.86 139.158 350.315C144.458 285.839 136.904 227.41 117.307 181.344C93.7495 126.169 56.7665 92.8931 13.1691 87.6552C-31.6535 82.4033 -99.5456 116.616 -137.083 190.37L-137.231 190.312C-128.177 172.523 -117.034 156.322 -104.11 142.163C-92.1851 129.097 -78.9292 117.948 -64.7111 109.029C-38.4495 92.5528 -10.0271 84.6697 13.2715 87.3992C36.2545 90.1612 57.2834 100.522 75.7745 118.197C92.4054 134.088 106.44 155.269 117.49 181.149C137.096 227.243 144.657 285.705 139.351 350.213C139.059 353.758 138.724 357.372 138.353 360.947C135.563 387.868 130.484 417.683 122.368 454.78C120.234 464.56 117.956 474.563 115.756 484.234C110.321 508.109 104.703 532.797 100.631 556.653C100.367 558.208 100.105 559.774 99.8555 561.312C88.8332 629.728 94.8149 683.456 117.154 716.692C139.205 749.502 177.643 763.958 231.398 759.662C235.898 759.298 240.583 758.787 245.323 758.141C292.204 751.757 344.935 731.404 395.93 711.719C398.618 710.681 401.303 709.645 403.987 708.611C410.834 705.984 417.735 703.305 424.41 700.716C478.035 679.903 528.686 660.245 574.629 657.306C589.49 656.316 601.375 657.76 610.966 661.715C622.969 666.667 631.44 675.779 636.145 688.796C640.174 700 642.179 714.795 642.274 734.028C642.357 750.997 640.989 769.154 639.666 786.712C638.893 796.99 638.16 806.699 637.726 815.959C633.617 903.444 627.996 996.936 620.542 1101.78L620.346 1101.88Z" fill="#A1A1A1"/>
<path d="M620.186 1098.74C627.88 1001.47 634.825 904.844 640.826 811.549C641.412 802.094 642.342 792.105 643.326 781.531C646.528 747.136 650.156 708.152 641.114 683.557C632.478 660.142 611.54 651.291 577.104 656.496C536.199 662.612 492.706 680.981 446.658 700.427C432.238 706.516 417.325 712.816 402.56 718.678C376.764 728.953 349.11 739.622 321.663 748.068C292.269 757.114 267.141 762.312 244.84 763.964C240.155 764.31 235.523 764.512 231.071 764.557C206.447 764.8 184.82 760.651 166.791 752.225C146.833 742.895 131.377 728.332 120.855 708.928C101.556 672.864 97.8132 618.036 109.732 545.966C109.987 544.428 110.255 542.858 110.522 541.305C114.462 518.52 119.56 495.013 124.492 472.279C126.813 461.578 129.214 450.513 131.455 439.69C139.194 402.407 143.971 372.721 146.49 346.267C146.828 342.706 147.132 339.117 147.392 335.593C152.128 271.449 143.995 213.519 123.881 168.057C99.6539 113.443 62.0795 80.9499 18.0795 76.5622C-27.4859 72.1143 -94.0422 106.119 -133.087 179.716L-133.23 179.649C-123.878 162.02 -112.548 145.951 -99.5555 131.885C-87.5187 118.856 -74.2242 107.709 -60.0406 98.7579C-46.6779 90.3238 -32.9608 84.0943 -19.27 80.2396C-5.97912 76.4994 6.62114 75.174 18.1806 76.3022C41.3877 78.6179 62.6847 88.5538 81.4783 105.84C98.3704 121.377 112.698 142.241 124.062 167.858C144.189 213.347 152.325 271.312 147.589 335.487C147.328 339.013 147.025 342.607 146.687 346.168C144.166 372.636 139.387 402.334 131.647 439.63C129.404 450.455 127.003 461.521 124.681 472.223C119.75 494.955 114.652 518.459 110.714 541.235C110.444 542.79 110.179 544.358 109.923 545.896C98.0132 617.909 101.751 672.692 121.032 708.721C141.028 745.592 179.11 764.811 231.161 764.297C235.61 764.251 240.241 764.052 244.922 763.706C294.78 760.016 350.152 739.317 402.595 718.43C417.36 712.567 432.27 706.269 446.69 700.18C492.748 680.729 536.251 662.356 577.174 656.238C611.664 651.025 632.641 659.897 641.298 683.366C645.348 694.381 647.223 709.129 647.034 728.448C646.867 745.483 645.164 763.762 643.52 781.437C642.537 792.01 641.606 801.996 641.022 811.446C635.021 904.744 628.076 1001.37 620.38 1098.65L620.186 1098.74Z" fill="#A1A1A1"/>
<path d="M620.033 1095.61C628.514 998.218 636.622 901.126 644.13 807.031C644.875 797.559 645.992 787.49 647.172 776.83C651.037 741.964 655.417 702.443 646.278 678.123C637.429 654.621 615.641 647.196 579.672 655.421C542.003 664.006 501.112 683.051 461.565 701.473C441.736 710.709 421.231 720.259 401.182 728.492C369.524 741.509 343.923 750.622 320.612 757.172C291.868 765.25 266.953 769.29 244.446 769.525C239.825 769.575 235.247 769.461 230.84 769.188C207.881 767.762 187.676 762.205 170.726 752.664C169.784 752.134 168.856 751.592 167.935 751.038C148.662 739.434 134.13 722.578 124.742 700.942C120.229 690.465 116.794 678.458 114.534 665.253C112.409 652.841 111.257 638.982 111.109 624.062C110.841 597.22 113.688 566.628 119.812 530.544C120.077 528.992 120.344 527.438 120.617 525.881C124.336 504.65 128.845 482.806 133.206 461.681C135.722 449.487 138.326 436.877 140.745 424.537C148.204 386.524 152.551 357.824 154.833 331.483C155.14 327.94 155.413 324.368 155.641 320.862C159.804 257.06 151.096 199.627 130.464 154.769C105.567 100.718 67.4014 69.005 22.9989 65.4674C-22.1713 61.918 -88.913 96.3611 -129.079 169.059L-129.218 168.984C-110.509 135.122 -84.9689 107.287 -55.3597 88.4893C-41.9763 79.9925 -28.2576 73.6636 -14.579 69.6728C-1.26994 65.7908 11.4064 64.2883 23.1 65.2074C46.5311 67.0738 68.0949 76.5874 87.191 93.4847C104.346 108.665 118.966 129.215 130.644 154.566C151.289 199.454 160.001 256.922 155.837 320.762C155.607 324.271 155.336 327.847 155.029 331.39C152.744 357.745 148.397 386.455 140.934 424.482C138.514 436.824 135.911 449.435 133.393 461.628C129.034 482.751 124.525 504.591 120.808 525.817C120.535 527.374 120.266 528.927 120.003 530.476C106.988 607.154 108.597 662.85 124.923 700.746C147.626 753.073 195.104 766.709 230.937 768.932C235.341 769.204 239.915 769.318 244.535 769.268C296.301 768.726 355.459 747.061 401.214 728.248C421.259 720.019 441.763 710.468 461.589 701.234C501.144 682.81 542.045 663.758 579.731 655.17C595.827 651.489 608.809 650.974 619.416 653.597C632.497 656.83 641.596 665.019 646.459 677.937C650.552 688.828 652.306 703.617 651.823 723.149C651.397 740.359 649.348 758.856 647.364 776.747C646.183 787.404 645.067 797.469 644.324 806.936C636.815 901.031 628.708 998.123 620.227 1095.52L620.033 1095.61Z" fill="#A1A1A1"/>
<path d="M619.875 1092.47L647.429 802.515C648.33 793.046 649.628 782.921 651.002 772.205C655.537 736.84 660.677 696.757 651.435 672.697C642.496 649.432 619.213 643.26 582.231 654.356C546.678 665.021 508.771 684.483 472.111 703.304C448.215 715.573 423.507 728.257 399.795 738.314C328.527 768.543 274.765 779.826 230.602 773.827C212.283 771.337 195.827 766.01 181.502 757.943C177.159 755.498 173.016 752.802 169.073 749.857C150.476 735.97 136.866 716.827 128.622 692.963C120.982 670.843 117.778 643.886 118.832 610.551C119.674 583.933 123.186 553.611 129.886 515.129C133.422 494.819 137.519 473.957 141.482 453.781C150.447 408.124 159.718 360.912 163.173 316.712C168.469 248.916 159.432 188.323 137.039 141.481C111.473 87.9977 72.7173 57.0615 27.9122 54.3741C-15.4667 51.7719 -81.8448 83.2151 -125.08 158.405L-125.215 158.322C-105.89 124.714 -80.1178 97.016 -50.6864 78.2212C-24.0752 61.2274 3.87297 52.6666 28.0105 54.1158C51.6657 55.5359 73.4976 64.6249 92.8948 81.1323C110.313 95.9531 125.225 116.192 137.218 141.281C148.299 164.459 156.167 191.187 160.606 220.724C165.081 250.508 166.012 282.768 163.368 316.608C159.914 360.826 150.641 408.049 141.673 453.718C137.712 473.891 133.616 494.751 130.081 515.057C120.303 571.206 111.324 642.147 128.811 692.772C148.865 750.828 195.293 768.752 230.71 773.565C274.849 779.564 328.588 768.283 399.829 738.065C423.531 728.012 448.238 715.327 472.13 703.062C508.797 684.238 546.713 664.773 582.284 654.101C619.33 642.986 642.659 649.177 651.62 672.504C655.757 683.277 657.39 698.118 656.609 717.879C655.921 735.274 653.519 754.007 651.196 772.121C649.822 782.837 648.525 792.956 647.625 802.422L620.071 1092.38L619.875 1092.47Z" fill="#A1A1A1"/>
<path d="M629.079 1074.18C639.203 994.821 646.196 929.741 651.088 869.369C653.472 840.046 655.422 810.96 656.883 782.918C657.326 774.436 658.036 765.549 658.789 756.139C660.682 732.489 662.639 708.034 660.426 687.822C659.246 676.955 657.034 668.405 653.664 661.682C643.381 640.936 619.587 637.426 582.941 651.252C563.987 658.388 544.996 667.96 528.92 676.383C511.9 685.299 494.191 695.729 477.065 705.814C452.448 720.312 426.994 735.303 402.34 746.605C387.32 753.517 372.883 759.121 359.429 763.264C332.512 771.552 306.12 776.009 280.987 776.512C265.501 776.746 250.894 775.289 237.574 772.18C226.1 769.49 215.29 765.578 205.442 760.554C190.702 753.036 177.943 742.867 167.523 730.321C156.444 716.982 147.933 700.854 142.227 682.384C137.139 665.915 134.163 647.11 133.13 624.891C131.192 583.513 135.824 539.539 140.077 505.852C142.202 489.24 144.606 472.433 146.931 456.179C153.63 409.372 159.957 365.162 160.508 322.919C160.86 288.639 157.164 256.804 149.52 228.292C143.647 206.381 135.114 186.36 124.158 168.786C121.547 164.602 118.786 160.518 115.951 156.655C103.738 140.035 88.0128 124.835 69.2136 111.478C50.2879 97.962 31.7988 90.0245 12.6899 87.2192C1.90167 85.6069 -9.69513 86.0778 -21.7807 88.6147C-64.4485 97.5727 -106.465 129.285 -134.176 173.447L-134.333 173.323C-126.946 161.55 -118.547 150.586 -109.369 140.73C-100.65 131.369 -91.1711 122.944 -81.1953 115.688C-62.3491 101.982 -41.7753 92.5091 -21.7002 88.2946C-9.59531 85.7524 2.0194 85.2819 12.8241 86.8971C31.9523 89.7067 50.4566 97.6495 69.3975 111.177C88.2077 124.541 103.94 139.751 116.161 156.382C118.998 160.25 121.761 164.335 124.374 168.522C135.339 186.109 143.879 206.146 149.756 228.075C157.405 256.607 161.104 288.469 160.749 322.77C160.198 365.039 153.869 409.261 147.17 456.081C144.843 472.333 142.44 489.138 140.316 505.747C136.064 539.419 131.435 583.372 133.373 624.724C134.404 646.919 137.377 665.706 142.459 682.156C153.626 718.302 174.872 744.575 205.609 760.244C215.449 765.264 226.252 769.171 237.716 771.859C251.028 774.964 265.624 776.421 281.098 776.186C306.216 775.685 332.591 771.231 359.491 762.947C372.936 758.808 387.364 753.206 402.372 746.3C427.012 735.003 452.461 720.016 477.069 705.522C494.199 695.436 511.912 685.002 528.939 676.083C545.023 667.655 564.022 658.081 582.99 650.94C599.306 644.784 613.284 642.055 624.54 642.828C638.365 643.777 648.24 650.035 653.887 661.429C657.266 668.173 659.485 676.747 660.668 687.639C662.884 707.881 660.926 732.352 659.033 756.017C658.28 765.424 657.57 774.311 657.127 782.787C655.667 810.833 653.718 839.922 651.332 869.251C646.439 929.629 639.444 994.715 629.32 1074.08L629.079 1074.18Z" fill="#A1A1A1"/>
<path d="M638.293 1055.87C650.943 976.503 659.053 908.692 663.086 848.567C665.073 819.208 666.171 790.528 666.346 763.324C666.392 756.106 666.6 748.695 666.818 740.85C667.47 717.355 668.145 693.061 664.384 673.872C662.501 664.155 659.727 656.566 655.902 650.667C641.26 628.077 608.537 636.827 583.663 648.144C566.062 656.122 548.325 666.361 530.191 677.03C514.318 686.37 498.33 697.028 481.405 708.31C456.283 725.059 430.305 742.377 404.896 754.893C389.78 762.385 375.23 768.03 361.65 771.668C336.353 778.449 311.514 780.79 285.712 778.827C271.274 777.727 257.424 774.937 244.55 770.53C233.7 766.791 223.518 761.905 214.291 756C200.558 747.226 188.701 735.867 179.046 722.239C168.908 707.925 161.099 690.955 155.839 671.801C151.228 655.022 148.446 635.857 147.33 613.213C145.279 572.131 147.824 529.3 150.273 496.575C151.179 484.461 152.19 472.328 153.169 460.591C157.066 413.852 160.749 369.702 157.85 329.129C155.684 298.805 149.804 270.885 140.374 246.147C133.24 227.428 123.725 211.056 111.289 196.095C108.418 192.645 105.406 189.296 102.338 186.143C88.8497 172.316 72.6189 160.819 52.8044 147.223C38.5593 137.355 19.398 125.349 -2.5262 120.06C-12.8828 117.507 -23.9733 116.956 -35.4892 118.417C-76.0374 123.566 -116.327 149.76 -143.268 188.49L-143.437 188.314C-136.293 178.043 -128.207 168.578 -119.405 160.176C-111.017 152.171 -101.928 145.085 -92.3868 139.107C-74.2587 127.753 -54.5447 120.463 -35.3769 118.031C-23.8389 116.566 -12.7277 117.119 -2.35325 119.675C19.593 124.967 38.7681 136.984 53.0228 146.857C72.8442 160.457 89.0805 171.958 102.578 185.793C105.647 188.951 108.662 192.301 111.538 195.754C123.985 210.731 133.509 227.118 140.652 245.857C150.091 270.62 155.977 298.562 158.145 328.917C161.046 369.52 157.364 413.683 153.464 460.44C152.486 472.174 151.474 484.307 150.569 496.419C148.124 529.132 145.579 571.947 147.626 613.008C148.74 635.628 151.52 654.772 156.124 671.532C166.469 709.194 186.114 737.489 214.508 755.631C223.728 761.528 233.899 766.411 244.74 770.145C257.601 774.549 271.438 777.338 285.865 778.434C311.644 780.397 336.462 778.058 361.738 771.284C375.301 767.649 389.832 762.013 404.931 754.528C430.318 742.022 456.285 724.711 481.396 707.972C498.328 696.684 514.319 686.024 530.201 676.68C548.345 666.004 566.089 655.762 583.708 647.775C599.833 640.437 613.865 636.529 625.416 636.152C639.422 635.695 649.767 640.47 656.166 650.34C660.004 656.262 662.788 663.877 664.676 673.623C668.443 692.848 667.767 717.163 667.114 740.677C666.896 748.519 666.691 755.929 666.644 763.143C666.469 790.356 665.37 819.045 663.382 848.414C659.347 908.554 651.237 976.378 638.582 1055.77L638.293 1055.87Z" fill="#A1A1A1"/>
<path d="M647.509 1037.57C662.836 957.096 671.857 888.469 675.086 827.769C676.674 798.372 676.917 770.1 675.811 743.733C675.576 738.097 675.407 732.162 675.244 726.424C674.574 702.718 673.88 678.207 668.347 659.927C665.77 651.31 662.434 644.678 658.148 639.655C641.701 620.372 608.96 631.939 584.391 645.035C567.77 653.855 550.872 664.945 534.528 675.672L531.468 677.68C516.635 687.408 501.495 698.712 485.463 710.681C459.936 729.741 433.541 749.447 407.454 763.182C392.223 771.266 377.56 776.95 363.872 780.075C340.006 785.524 316.671 785.862 290.437 781.141C276.872 778.699 263.781 774.574 251.528 768.877C241.303 764.086 231.751 758.222 223.14 751.443C197.059 730.939 178.996 700.582 169.451 661.217C165.325 644.199 162.733 624.679 161.533 601.535C159.466 562.43 159.875 523.66 160.472 487.303C160.551 482.429 160.638 477.592 160.724 472.792C161.609 423.009 162.447 375.987 155.196 335.349C150.463 308.818 142.398 284.816 131.229 264.007C123.029 248.731 112.297 235.451 98.424 223.409C95.2949 220.699 92.0333 218.083 88.7287 215.634C80.4044 209.491 71.0166 203.969 61.0766 198.123C53.093 193.427 44.8381 188.571 36.3944 182.973C20.146 172.054 1.72951 159.682 -17.7457 152.906C-27.7947 149.411 -38.3776 147.837 -49.2025 148.228C-87.6202 149.619 -126.187 170.3 -152.368 203.55L-152.536 203.303C-145.633 194.536 -137.861 186.57 -129.437 179.624C-121.38 172.981 -112.679 167.229 -103.576 162.527C-86.1663 153.536 -67.312 148.437 -49.0528 147.776C-38.2031 147.382 -27.5981 148.959 -17.53 152.462C1.96458 159.245 20.3893 171.625 36.6446 182.548C45.0842 188.141 53.3377 192.999 61.3185 197.693C71.2626 203.542 80.6533 209.066 88.9844 215.215C92.2903 217.669 95.5561 220.287 98.6879 222.998C112.579 235.053 123.323 248.35 131.534 263.649C142.717 284.481 150.79 308.511 155.529 335.071C162.787 375.744 161.949 422.79 161.062 472.595C160.976 477.394 160.891 482.229 160.81 487.105C160.213 523.456 159.803 562.215 161.869 601.307C163.07 624.426 165.657 643.927 169.779 660.923C179.311 700.239 197.352 730.554 223.399 751.032C232 757.803 241.542 763.661 251.757 768.446C263.997 774.136 277.075 778.257 290.625 780.697C316.833 785.413 340.141 785.076 363.975 779.635C377.634 776.516 392.27 770.842 407.474 762.773C433.528 749.055 459.907 729.359 485.42 710.311C501.458 698.336 516.607 687.027 531.45 677.292L534.511 675.284C550.863 664.552 567.771 653.455 584.41 644.625C609.057 631.486 641.906 619.893 658.43 639.264C662.735 644.311 666.084 650.967 668.67 659.618C674.216 677.936 674.91 702.474 675.581 726.206C675.743 731.943 675.911 737.878 676.146 743.511C677.253 769.891 677.009 798.179 675.42 827.591C672.19 888.317 663.165 956.968 647.833 1037.47L647.509 1037.57Z" fill="#A1A1A1"/>
<path d="M656.72 1019.26C674.487 938.816 684.703 867.389 687.081 806.969C688.269 777.538 687.66 749.673 685.272 724.146C684.927 720.459 684.595 716.647 684.272 712.96C682.143 688.604 679.943 663.416 672.308 645.987C669.055 638.461 665.158 632.79 660.393 628.645C642.114 612.751 609.369 627.093 585.117 641.923C570.096 651.063 554.962 662.111 540.326 672.797C537.794 674.647 535.264 676.492 532.739 678.326C518.866 688.404 504.502 700.3 489.296 712.893C463.445 734.302 436.714 756.438 410.006 771.472C394.322 780.3 379.957 785.864 366.085 788.485C337.071 793.966 313.946 789.018 295.151 783.46C282.44 779.698 270.107 774.24 258.496 767.23C248.9 761.39 239.979 754.546 231.98 746.892C208.253 724.214 191.792 691.83 183.056 650.638C179.42 633.501 177.023 613.622 175.726 589.864C174.392 565.907 173.45 543.048 172.538 520.939C171.92 505.913 171.335 491.72 170.662 478.041C168.12 426.331 165 380.368 152.538 341.576C145.237 318.854 134.99 298.765 122.081 281.869C112.829 269.758 101.222 259.862 85.5572 250.721C82.1732 248.757 78.6608 246.873 75.1179 245.124C69.7257 242.485 63.9678 240.074 57.8726 237.525C46.1765 232.63 32.9174 227.081 19.9775 218.721C15.0507 215.536 10.0926 212.165 5.29823 208.903C-7.03383 200.513 -19.7857 191.838 -32.9722 185.748C-42.6569 181.278 -52.735 178.681 -62.924 178.034C-99.199 175.733 -136.043 190.903 -161.482 218.614L-161.63 218.281C-154.969 211.025 -147.513 204.558 -139.468 199.06C-131.742 193.781 -123.431 189.364 -114.769 185.935C-98.0767 179.327 -80.0835 176.417 -62.7316 177.518C-52.5177 178.167 -42.4162 180.767 -32.7108 185.249C-19.5092 191.344 -6.75318 200.024 5.58576 208.418C10.3787 211.679 15.3369 215.05 20.2623 218.235C33.1898 226.588 46.4379 232.133 58.1285 237.025C64.2264 239.576 69.9857 241.988 75.3834 244.63C78.9304 246.381 82.4455 248.267 85.8337 250.233C101.522 259.384 113.144 269.298 122.413 281.428C135.337 298.346 145.599 318.46 152.908 341.212C158.538 358.734 162.687 379.253 165.594 403.94C168.196 426.04 169.656 449.441 171.05 477.778C171.721 491.459 172.307 505.652 172.926 520.679C173.838 542.784 174.779 565.644 176.112 589.596C177.408 613.331 179.802 633.189 183.433 650.307C192.156 691.444 208.594 723.782 232.288 746.428C240.278 754.074 249.188 760.908 258.772 766.742C270.369 773.745 282.689 779.198 295.386 782.952C314.157 788.506 337.251 793.446 366.214 787.975C380.047 785.362 394.375 779.813 410.018 771.007C436.681 755.999 463.391 733.88 489.221 712.488C504.437 699.888 518.808 687.986 532.696 677.898C535.221 676.063 537.749 674.218 540.28 672.37C554.926 661.677 570.07 650.621 585.109 641.469C600.887 631.821 615.041 625.534 627.177 622.782C641.552 619.523 652.827 621.339 660.69 628.179C665.479 632.343 669.395 638.041 672.661 645.598C680.318 663.074 682.52 688.292 684.651 712.679C684.974 716.366 685.306 720.178 685.651 723.861C688.041 749.408 688.648 777.299 687.46 806.753C686.197 838.835 682.717 874.238 677.115 911.978C672.164 945.334 665.424 981.398 657.084 1019.16L656.72 1019.26Z" fill="#A1A1A1"/>
<path d="M665.932 1000.95C686.365 919.415 697.515 847.152 699.074 786.171C699.861 756.705 698.4 729.249 694.733 704.56C694.558 703.385 694.384 702.21 694.21 701.032C690.409 675.337 686.479 648.768 676.271 632.053C672.316 625.577 667.857 620.864 662.64 617.642C642.516 605.217 609.771 622.298 585.847 638.812C571.812 648.453 557.791 659.785 544.232 670.744C540.88 673.455 537.412 676.256 534.017 678.975C521.084 689.329 507.498 701.732 493.114 714.865C466.949 738.752 439.896 763.452 412.562 779.764C396.749 789.202 382.27 794.805 368.299 796.898C340.775 801.018 319.142 793.988 299.865 785.778C287.979 780.715 276.405 773.919 265.463 765.582C256.501 758.692 248.211 750.871 240.822 742.338C219.446 717.689 204.588 683.278 196.663 640.059C193.489 622.752 191.346 603.094 189.923 578.194C187.164 530.967 184.369 497.223 180.86 468.785C173.88 412.225 164.617 376.046 149.89 347.813C140.029 328.912 127.6 312.738 112.944 299.739C102.775 290.721 90.3646 284.026 72.7002 278.041C69.0764 276.821 65.3147 275.67 61.5169 274.621C57.923 273.642 54.2146 272.75 50.2885 271.804C35.7908 268.313 19.3577 264.356 3.56493 254.474C-4.75957 249.266 -12.8801 243.267 -20.7336 237.467C-29.6592 230.876 -38.8877 224.059 -48.1999 218.595C-57.5369 213.118 -67.1101 209.499 -76.6482 207.847C-110.763 201.931 -145.889 211.595 -170.609 233.696L-170.711 233.26C-164.29 227.517 -157.149 222.551 -149.487 218.5C-142.09 214.587 -134.173 211.508 -125.951 209.343C-109.979 205.137 -92.8439 204.418 -76.4033 207.27C-66.8403 208.93 -57.2451 212.554 -47.8861 218.044C-38.5656 223.513 -29.3316 230.332 -20.4032 236.929C-12.5525 242.727 -4.43613 248.723 3.88149 253.928C19.6467 263.792 36.062 267.745 50.5431 271.233C54.4719 272.177 58.1817 273.073 61.7784 274.051C65.5803 275.102 69.3448 276.255 72.9727 277.473C90.6633 283.47 103.096 290.174 113.285 299.213C127.962 312.231 140.409 328.427 150.283 347.356C165.031 375.626 174.304 411.843 181.291 468.452C184.801 496.901 187.598 530.655 190.356 577.895C191.78 602.775 193.919 622.412 197.09 639.7C205.005 682.859 219.84 717.222 241.184 741.833C248.564 750.355 256.845 758.164 265.794 765.047C276.723 773.374 288.282 780.161 300.153 785.219C319.401 793.416 340.995 800.437 368.456 796.327C382.375 794.243 396.803 788.657 412.562 779.253C439.836 762.975 466.862 738.302 492.997 714.44C507.391 701.3 520.987 688.887 533.94 678.518C537.333 675.801 540.8 673 544.153 670.289C557.723 659.32 571.753 647.98 585.812 638.324C601.425 627.545 615.64 620.07 628.063 616.103C642.615 611.456 654.354 611.796 662.953 617.1C668.199 620.339 672.681 625.078 676.655 631.584C686.896 648.356 690.833 674.962 694.638 700.694C694.812 701.873 694.986 703.051 695.161 704.223C698.832 728.939 700.295 756.429 699.507 785.927C697.946 846.961 686.787 919.281 666.341 1000.88L665.932 1000.95Z" fill="#A1A1A1"/>
<path d="M306.859 789.38C306.086 788.945 305.326 788.514 304.581 788.084C293.497 781.733 282.679 773.604 272.433 763.921C264.108 755.984 256.449 747.185 249.666 737.774C239.968 724.339 231.714 708.231 225.129 689.896C218.77 672.19 213.772 651.862 210.274 629.471C206.846 607.533 205.185 584.304 204.122 566.518C201.586 524.985 197.19 488.988 191.059 459.527C181.128 411.811 167.207 378.293 147.248 354.044C135.207 339.415 120.458 326.971 104.553 318.015C104.307 317.876 104.062 317.738 103.814 317.602C90.1037 309.992 74.5821 307.214 59.8528 305.349C56.0141 304.872 52.0016 304.453 47.9242 304.107C45.685 303.926 43.4292 303.768 41.0425 303.601C24.2033 302.433 5.11797 301.106 -12.845 290.218C-23.7841 283.586 -34.0046 275.121 -43.888 266.933C-50.2692 261.645 -56.8677 256.18 -63.4235 251.431C-72.4361 244.904 -81.5003 240.265 -90.3697 237.648C-122.304 228.215 -155.715 232.374 -179.745 248.774L-179.776 248.224C-167.451 239.813 -153.101 234.602 -137.125 232.733C-121.868 230.951 -105.596 232.43 -90.0723 237.016C-81.1808 239.643 -72.0905 244.29 -63.0586 250.834C-56.496 255.587 -49.8946 261.057 -43.5107 266.346C-33.6342 274.53 -23.4206 282.992 -12.4952 289.613C5.4209 300.474 24.4745 301.797 41.2848 302.965C43.6742 303.13 45.93 303.288 48.1706 303.469C52.2508 303.817 56.2674 304.235 60.1089 304.714C74.863 306.583 90.4108 309.366 104.155 316.992C120.37 325.99 135.41 338.611 147.656 353.491C157.956 366.008 166.499 380.704 173.77 398.419C180.772 415.482 186.583 435.337 191.531 459.12C197.668 488.604 202.066 524.628 204.603 566.188C205.664 583.963 207.323 607.175 210.749 629.088C217.847 674.523 231.081 710.908 250.082 737.236C256.855 746.635 264.505 755.421 272.817 763.349C283.051 773.018 293.852 781.137 304.923 787.478C322.245 797.4 343.032 807.728 370.701 804.666C384.706 803.116 399.231 797.497 415.107 787.49C442.987 769.914 470.297 742.584 496.712 716.153C510.299 702.558 523.132 689.716 535.183 679.13C539.044 675.739 542.991 672.228 546.807 668.831C559.703 657.356 573.035 645.493 586.508 635.175C601.965 623.279 616.245 614.611 628.948 609.412C643.678 603.384 655.877 602.24 665.207 606.013C670.966 608.341 676.015 612.118 680.641 617.562C693.012 632.115 699.065 657.565 704.666 684.574C709.549 708.124 711.93 735.965 711.55 765.091C711.167 797.372 707.564 833.465 700.838 872.367C694.845 907.025 686.351 944.107 675.592 982.584L675.139 982.651C698.245 900.021 710.333 826.921 711.062 765.382C711.442 736.298 709.066 708.498 704.188 684.987C698.597 658.025 692.556 632.625 680.232 618.124C675.631 612.71 670.61 608.955 664.886 606.64C647.74 599.712 619.928 610.03 586.572 635.702C573.123 646.002 559.803 657.855 546.92 669.318C543.102 672.717 539.152 676.23 535.291 679.621C523.262 690.187 510.438 703.018 496.865 716.602C483.905 729.57 470.503 742.981 456.793 755.407C441.25 769.495 427.618 780.174 415.115 788.057C399.17 798.109 384.58 803.753 370.509 805.311C358.099 806.685 346.24 805.534 334.252 801.798C324.106 798.623 314.805 793.854 306.859 789.38Z" fill="#A1A1A1"/>
<path d="M328.248 803.043C321.228 799.09 314.905 794.546 309.297 790.393C298.987 782.757 288.928 773.293 279.403 762.263C271.719 753.283 264.688 743.51 258.509 733.21C241.572 705.037 230.247 667.638 223.884 618.883C221.108 597.622 219.614 575.587 218.322 554.842C215.723 513.975 209.984 478.794 201.263 450.27C188.437 408.32 170.438 379.723 144.618 360.275C129.907 349.193 112.644 340.614 94.6954 335.461C79.6728 331.148 62.9036 331.71 47.0143 332.652C43.0337 332.897 38.7691 333.212 34.3417 333.587C33.2335 333.684 32.1128 333.787 30.9784 333.889C12.3328 335.587 -8.76494 337.509 -28.2685 326.526C-28.5976 326.341 -28.9238 326.154 -29.2515 325.96C-42.3125 318.291 -53.893 307.347 -65.0924 296.759C-69.5323 292.561 -74.1249 288.222 -78.6437 284.258C-87.4723 276.518 -95.7935 271.014 -104.088 267.437C-134.256 254.426 -165.165 253.113 -188.89 263.841L-188.817 263.174C-177.089 257.871 -163.071 255.426 -148.283 256.103C-133.738 256.768 -118.333 260.45 -103.731 266.748C-95.4133 270.336 -87.07 275.852 -78.2222 283.609C-73.6979 287.576 -69.1053 291.918 -64.6627 296.115C-53.4729 306.691 -41.9034 317.626 -28.8671 325.28C-9.16205 336.855 12.2817 334.899 31.1974 333.175C32.3305 333.072 33.4525 332.97 34.5621 332.871C38.9936 332.494 43.2596 332.18 47.243 331.937C63.1598 330.991 79.958 330.432 95.022 334.756C112.998 339.918 130.29 348.51 145.026 359.609C157.822 369.246 168.557 381.034 177.847 395.644C187.415 410.691 195.243 428.393 201.776 449.767C210.507 478.328 216.254 513.553 218.858 554.461C220.148 575.199 221.641 597.221 224.416 618.461C230.77 667.15 242.078 704.494 258.987 732.623C265.158 742.905 272.179 752.666 279.852 761.633C289.364 772.649 299.407 782.101 309.704 789.723C327.029 802.551 346.183 814.915 372.958 812.992C387.047 811.978 401.67 806.326 417.661 795.711C446.147 776.805 474.957 745.359 500.378 717.615C513.167 703.655 525.248 690.47 536.434 679.73C540.469 675.854 544.602 671.828 548.599 667.934C561.103 655.75 574.032 643.153 587.214 632.01C602.528 619.006 616.872 609.146 629.846 602.702C644.748 595.302 657.408 592.679 667.47 594.907C673.761 596.299 679.376 599.118 684.638 603.517C699.338 615.814 707.526 640.287 714.184 664.903C720.333 687.633 723.59 715.065 723.607 744.237C723.666 776.614 720 813.054 712.711 852.538C706.193 887.848 696.823 925.438 684.859 964.272L684.369 964.316C709.801 881.772 723.184 805.783 723.073 744.564C723.057 715.448 719.805 688.066 713.669 665.383C707.027 640.824 698.861 616.412 684.224 604.166C678.993 599.792 673.412 596.992 667.163 595.607C648.583 591.493 620.23 604.615 587.324 632.558C574.169 643.676 561.254 656.262 548.762 668.433C544.764 672.329 540.631 676.356 536.591 680.235C525.431 690.951 513.362 704.124 500.585 718.068C475.125 745.854 446.267 777.351 417.687 796.321C401.608 806.993 386.904 812.676 372.735 813.697C360.44 814.58 348.844 812.572 337.288 807.548C334.155 806.204 331.144 804.674 328.248 803.043Z" fill="#A1A1A1"/>
<path d="M340.611 813.505C340.51 813.449 340.411 813.393 340.311 813.336C330.414 807.706 321.893 800.055 314.012 792.7C304.448 783.777 295.151 772.976 286.374 760.603C279.331 750.587 272.932 739.833 267.354 728.647C252.552 699.01 243.064 660.771 237.496 608.298C235.489 589.404 234.218 569.561 232.986 550.373C232.833 547.972 232.677 545.572 232.522 543.172C229.818 502.256 222.735 467.886 211.469 441.021C196.042 404.235 173.317 379.861 141.994 366.508C124.818 359.187 105.312 354.629 85.5826 353.324C70.0152 352.296 53.7841 355.571 34.1814 359.958C30.2024 360.857 25.938 361.845 20.7621 363.069L20.4726 363.139C10.4641 365.542 -0.878986 368.264 -12.1948 368.819C-25.1907 369.456 -36.1361 367.122 -45.6621 361.712C-60.5092 353.264 -72.9175 339.771 -84.9146 326.719C-87.8541 323.521 -90.8953 320.214 -93.8721 317.096C-102.412 308.158 -110.243 301.662 -117.815 297.24C-145.697 280.957 -174.944 274.28 -198.053 278.917L-197.859 278.153C-186.538 275.881 -173.255 276.343 -159.444 279.489C-145.608 282.64 -131.068 288.526 -117.398 296.508C-109.804 300.942 -101.952 307.453 -93.394 316.411C-90.4145 319.531 -87.3732 322.838 -84.4324 326.037C-72.4491 339.071 -60.0572 352.549 -45.2459 360.976C-45.1798 361.014 -45.1124 361.052 -45.0463 361.089C-23.8066 373.049 0.836104 367.135 20.6503 362.379L20.9412 362.31C26.1198 361.084 30.3843 360.096 34.3647 359.197C54.0005 354.803 70.2605 351.522 85.8762 352.555C105.64 353.859 125.178 358.426 142.382 365.76C157.71 372.296 170.639 381.174 181.91 392.907C194.055 405.551 203.903 421.099 212.013 440.441C223.301 467.357 230.397 501.783 233.105 542.767C233.261 545.166 233.415 547.569 233.568 549.97C234.799 569.151 236.07 588.988 238.074 607.867C243.634 660.273 253.107 698.46 267.884 728.046C273.454 739.219 279.845 749.954 286.876 759.958C295.642 772.315 304.926 783.099 314.475 792.007C331.576 807.968 349.09 822.222 375.203 821.352C389.374 820.879 404.093 815.195 420.201 803.97C449.299 783.694 478.35 749.253 503.985 718.865C515.985 704.639 527.321 691.199 537.67 680.369C541.652 676.202 545.732 671.871 549.679 667.68C562.017 654.579 574.775 641.034 587.907 628.884C603.095 614.771 617.504 603.715 630.732 596.023C645.809 587.258 658.926 583.158 669.716 583.84C676.406 584.263 682.471 586.049 688.24 589.297C688.365 589.368 688.49 589.438 688.616 589.512C706.456 599.778 716.729 624.7 723.688 645.266C731.099 667.177 735.237 694.2 735.652 723.414C736.153 755.892 732.426 792.676 724.571 832.747C717.522 868.705 707.275 906.807 694.108 945.998L693.583 946.016C713.173 887.703 736.269 801.813 735.065 723.786C734.653 694.637 730.525 667.678 723.132 645.82C716.195 625.311 705.954 600.462 688.199 590.248C682.356 586.877 676.214 585.041 669.424 584.613C649.431 583.351 620.536 599.275 588.059 629.451C574.957 641.573 562.213 655.103 549.888 668.19C545.941 672.383 541.858 676.716 537.874 680.885C527.552 691.688 516.23 705.109 504.243 719.321C478.563 749.764 449.456 784.271 420.245 804.625C404.03 815.925 389.211 821.648 374.945 822.122C362.855 822.523 351.618 819.704 340.611 813.505Z" fill="#A1A1A1"/>
<path d="M349.682 823.168C347.546 821.964 345.431 820.612 343.334 819.107C334.151 812.524 326.453 803.949 318.724 795.005C309.764 784.636 301.46 772.84 293.34 758.942C286.943 747.895 281.175 736.168 276.196 724.08C263.551 693.444 255.813 654.469 251.106 597.711C249.937 583.616 249.05 569.024 248.194 554.911C247.726 547.23 247.246 539.286 246.722 531.498C243.899 490.249 235.472 456.698 221.677 431.771C203.451 398.836 176.531 379.525 139.376 372.735C119.747 369.148 97.9958 368.609 76.4779 371.177C59.1919 373.24 41.4444 379.813 22.6544 386.772L21.3553 387.253C18.4164 388.347 15.4417 389.459 12.4312 390.584C10.6963 391.234 8.95034 391.887 7.18924 392.544C-3.81462 396.686 -15.5366 400.87 -27.2403 402.581C-40.8285 404.566 -52.2203 402.892 -62.07 397.462C-78.4652 388.417 -91.2988 372.285 -103.705 356.677C-105.474 354.449 -107.307 352.146 -109.098 349.931C-117.49 339.546 -124.622 332.274 -131.542 327.039C-157.079 307.72 -184.66 295.669 -207.215 293.976L-206.895 293.141C-184.281 294.838 -156.641 306.91 -131.059 326.263C-124.12 331.512 -116.971 338.804 -108.562 349.208C-106.771 351.426 -104.938 353.729 -103.167 355.958C-90.9126 371.373 -78.244 387.306 -62.1452 396.372C-61.9718 396.469 -61.7983 396.567 -61.6221 396.663C-40.6944 408.202 -17.0706 400.918 7.31607 391.743C9.07718 391.085 10.8231 390.432 12.558 389.782C15.57 388.655 18.5419 387.544 21.4835 386.449L22.7826 385.968C41.6044 378.997 59.3822 372.412 76.7247 370.342C98.2826 367.768 120.071 368.308 139.735 371.902C176.983 378.709 203.974 398.073 222.25 431.098C236.078 456.088 244.526 489.716 247.356 531.056C247.878 538.846 248.361 546.789 248.827 554.473C249.682 568.581 250.569 583.17 251.738 597.255C256.439 653.948 264.165 692.868 276.787 723.453C281.76 735.521 287.519 747.233 293.908 758.262C302.016 772.141 310.306 783.92 319.254 794.272C332.836 809.988 349.737 829.549 377.459 829.689C391.71 829.763 406.525 824.044 422.749 812.206C452.468 790.524 481.734 752.97 507.554 719.841C518.77 705.448 529.365 691.853 538.91 680.994C542.629 676.763 546.444 672.369 550.132 668.118C562.505 653.862 575.299 639.121 588.603 625.742C603.685 610.515 618.159 598.264 631.621 589.327C646.877 579.2 660.449 573.626 671.963 572.759C679.352 572.202 686.101 573.095 692.596 575.488C701.295 578.692 709.008 584.847 716.183 594.293C722.252 602.29 727.818 612.532 733.198 625.609C741.875 646.699 746.889 673.314 747.701 702.574C748.647 735.151 744.856 772.283 736.435 812.937C728.853 849.546 717.727 888.159 703.364 927.708L702.807 927.692C733.13 844.196 748.849 764.394 747.066 702.986C746.257 673.805 741.256 647.266 732.604 626.238C721.012 598.064 708.172 582.196 692.188 576.306C685.737 573.928 679.035 573.042 671.698 573.593C644.307 575.654 611.501 603.404 588.806 626.319C575.535 639.665 562.756 654.388 550.399 668.627C546.707 672.88 542.892 677.276 539.171 681.51C529.655 692.336 519.072 705.915 507.87 720.29C481.994 753.492 452.667 791.124 422.813 812.905C406.46 824.836 391.527 830.6 377.161 830.527C367.424 830.477 358.371 828.06 349.682 823.168Z" fill="#A1A1A1"/>
<path d="M357.001 832.509C342.441 824.31 332.2 809.757 323.438 797.308C315.194 785.596 307.629 772.502 300.309 757.279C294.557 745.212 289.419 732.507 285.039 719.514C271.893 680.596 267.502 632.886 264.717 587.125C264.148 577.782 263.653 568.203 263.175 558.941C262.511 546.078 261.824 532.779 260.924 519.828C257.972 478.116 248.204 445.377 231.893 422.523C210.791 392.961 179.675 378.709 136.766 378.956C114.674 379.082 90.6808 382.565 67.3795 389.027C49.4089 394.01 31.5151 403 12.5716 412.518C11.2295 413.191 9.88317 413.869 8.53273 414.544L7.79887 414.914C3.19163 417.231 -1.57147 419.626 -6.37869 422.016C-17.9202 427.782 -30.2788 433.509 -42.4435 436.351C-56.5647 439.649 -68.3504 438.623 -78.4772 433.212C-96.2538 423.716 -109.191 404.838 -121.702 386.582C-122.579 385.302 -123.451 384.028 -124.323 382.764C-132.59 370.756 -139.05 362.759 -145.266 356.833C-168.369 334.814 -194.286 317.387 -216.373 309.021L-215.932 308.141C-193.808 316.519 -167.852 333.97 -144.719 356.019C-138.485 361.961 -132.011 369.976 -123.729 382.006C-122.857 383.269 -121.985 384.543 -121.108 385.826C-108.621 404.047 -95.7052 422.883 -78.0002 432.349C-56.0076 444.099 -29.4657 432.745 -6.31379 421.179C-1.50658 418.79 3.25651 416.395 7.86238 414.08L8.59624 413.71C9.94805 413.032 11.293 412.357 12.6351 411.684C31.6117 402.149 49.5358 393.143 67.5671 388.143C90.9112 381.669 114.949 378.182 137.08 378.055C157.422 377.94 174.738 381.01 190.018 387.441C207.061 394.616 221.347 406.163 232.481 421.762C248.845 444.687 258.643 477.52 261.604 519.348C262.506 532.306 263.193 545.608 263.856 558.474C264.334 567.736 264.829 577.312 265.398 586.651C268.181 632.363 272.564 680.019 285.686 718.867C290.061 731.84 295.191 744.527 300.935 756.577C308.243 771.778 315.796 784.852 324.028 796.547C336.666 814.503 352.395 836.852 379.706 838.034C394.038 838.654 408.948 832.902 425.289 820.451C455.643 797.319 485.089 756.542 511.07 720.564C521.509 706.108 531.368 692.455 540.143 681.625C543.389 677.619 546.721 673.467 549.943 669.451C562.548 653.745 575.585 637.501 589.291 622.606C604.284 606.255 618.825 592.803 632.505 582.627C647.94 571.143 661.969 564.096 674.202 561.681C682.146 560.113 689.46 560.044 696.567 561.469C706.141 563.39 715.067 568.533 723.1 576.756C730.134 583.957 736.728 593.779 742.699 605.953C752.639 626.222 758.534 652.427 759.745 681.734C761.135 714.412 757.284 751.889 748.296 793.129C740.177 830.386 728.172 869.513 712.614 909.421L712.028 909.369C744.995 824.808 761.7 744.128 759.064 682.191C757.855 652.979 751.981 626.86 742.075 606.659C729.233 580.475 714.22 565.983 696.177 562.365C689.122 560.95 681.859 561.019 673.973 562.574C644.868 568.32 611.999 598.706 589.549 623.188C575.877 638.045 562.859 654.265 550.27 669.952C547.048 673.968 543.713 678.121 540.465 682.132C531.719 692.927 521.872 706.562 511.447 720.999C498.947 738.308 484.782 757.925 470.284 775.631C453.672 795.918 438.983 810.819 425.377 821.189C417.509 827.185 409.797 831.715 402.453 834.655C394.555 837.817 386.789 839.258 379.372 838.936C370.885 838.571 363.51 836.174 357.001 832.509Z" fill="#A1A1A1"/>
<path d="M363.151 841.696C358.338 838.986 353.764 835.311 349.376 830.645C340.734 821.454 334.046 809.843 328.142 799.601C320.702 786.691 313.679 771.887 307.27 755.604C302.165 742.53 297.656 728.848 293.875 714.935C283.003 675.03 280.399 628.643 278.32 576.527C278.135 571.896 277.956 567.177 277.785 562.612C277.106 544.641 276.405 526.06 275.115 508.149C272.031 465.893 260.922 433.971 242.097 413.268C218.353 387.153 182.033 377.696 134.148 385.165C109.577 388.998 83.341 396.499 58.2756 406.861C39.4027 414.663 21.0637 426.064 1.64707 438.135C-0.325916 439.362 -2.3058 440.592 -4.29533 441.826C-9.24985 444.902 -14.5769 448.198 -19.9521 451.474C-31.2434 458.378 -44.555 465.993 -57.6522 470.108C-72.3146 474.715 -84.497 474.339 -94.8912 468.955C-113.921 459.102 -126.712 437.386 -139.082 416.386L-139.553 415.587C-145.611 405.307 -152.159 394.68 -158.996 386.617C-179.835 362.041 -203.464 339.82 -225.528 324.049L-224.98 323.148C-202.892 338.936 -179.241 361.176 -158.384 385.775C-151.528 393.862 -144.968 404.506 -138.9 414.801L-138.429 415.6C-126.085 436.553 -113.317 458.22 -94.381 468.026C-72.5117 479.351 -45.683 466.351 -19.9478 450.613C-14.574 447.34 -9.24969 444.042 -4.29654 440.968C-2.30839 439.737 -0.327137 438.505 1.64445 437.28C21.0942 425.188 39.4664 413.767 58.4013 405.939C83.515 395.556 109.801 388.041 134.417 384.201C156.882 380.699 176.953 380.87 194.065 384.711C213.618 389.102 229.984 398.421 242.707 412.412C261.603 433.194 272.754 465.23 275.848 507.63C277.138 525.557 277.841 544.146 278.519 562.126C278.692 566.689 278.871 571.408 279.056 576.039C281.132 628.105 283.734 674.442 294.584 714.277C298.362 728.168 302.863 741.831 307.96 754.887C314.361 771.145 321.372 785.926 328.801 798.818C340.445 819.028 354.938 844.176 381.956 846.374C396.367 847.546 411.37 841.763 427.827 828.691C458.833 804.063 489.72 758.019 514.54 721.021C524.207 706.609 533.337 692.998 541.372 682.259C543.904 678.873 546.504 675.379 549.018 672C562.079 654.441 575.587 636.284 589.977 619.474C612.325 593.289 645.465 560.087 676.433 550.61C684.983 547.994 692.867 546.962 700.531 547.455C720.647 548.638 738.029 561.709 752.197 586.299C763.401 605.747 770.176 631.541 771.787 660.896C773.622 693.672 769.709 731.496 760.153 773.325C755.77 792.51 750.19 812.496 743.57 832.728C737.247 852.052 729.942 871.704 721.859 891.137L721.246 891.044C756.866 805.416 774.556 723.858 771.057 661.394C769.451 632.149 762.703 606.453 751.543 587.078C737.442 562.6 720.156 549.594 700.167 548.418C692.559 547.927 684.736 548.951 676.249 551.548C645.495 560.957 612.532 593.994 590.294 620.05C575.94 636.816 562.453 654.949 549.408 672.484C546.893 675.864 544.293 679.36 541.758 682.748C533.751 693.451 524.632 707.043 514.98 721.434C502.491 740.051 488.336 761.152 473.656 780.325C456.788 802.355 441.834 818.43 427.94 829.466C420.014 835.761 412.244 840.46 404.848 843.429C396.881 846.629 389.052 847.945 381.583 847.335C375.026 846.805 368.914 844.941 363.151 841.696Z" fill="#A1A1A1"/>
<path d="M368.496 850.757C362.727 847.509 357.394 842.75 352.401 836.417C344.309 826.159 338.224 813.27 332.855 801.898C326.096 787.582 319.832 771.446 314.239 753.935C309.778 739.863 305.902 725.204 302.718 710.363C293.948 669.545 293.039 622.791 292.074 573.295C292.027 570.846 291.98 568.394 291.931 565.941C291.471 542.942 290.998 519.16 289.315 496.481C286.095 453.635 273.646 422.527 252.315 404.021C225.522 380.775 184.887 376.524 131.541 391.378C104.857 398.808 75.6076 410.642 49.1808 424.7C29.2265 435.315 10.2036 449.189 -9.9371 463.879C-12.3217 465.618 -14.7132 467.363 -17.1157 469.108C-21.9194 472.603 -27.6241 476.741 -33.5206 480.939C-44.4566 488.741 -58.8096 498.399 -72.8395 503.844C-88.0375 509.745 -100.619 510.029 -111.302 504.709C-120.052 500.283 -128.149 492.629 -136.055 481.306C-142.843 471.585 -148.552 460.66 -154.784 448.42C-160.431 437.172 -166.469 425.439 -172.729 416.41C-191.271 389.664 -212.116 363.648 -234.68 339.081L-234.038 338.172C-211.459 362.751 -190.604 388.785 -172.051 415.543C-165.774 424.598 -159.728 436.348 -154.073 447.608C-143.629 468.128 -130.633 493.672 -110.764 503.719C-87.9698 515.067 -60.2 499.058 -33.5865 480.067C-27.6943 475.873 -21.9923 471.737 -17.1913 468.244C-14.7888 466.499 -12.3973 464.755 -10.0155 463.017C10.1583 448.303 29.2144 434.405 49.2335 423.757C75.7141 409.671 105.02 397.813 131.755 390.37C185.263 375.471 226.031 379.749 252.927 403.082C263.239 412.029 271.57 424.012 277.685 438.696C284.247 454.45 288.42 473.709 290.092 495.932C291.778 518.636 292.252 542.432 292.71 565.445C292.758 567.901 292.807 570.351 292.855 572.8C293.817 622.252 294.727 668.963 303.48 709.702C306.659 724.521 310.529 739.16 314.985 753.21C320.571 770.695 326.824 786.808 333.573 801.102C344.181 823.568 357.383 851.527 384.204 854.726C398.732 856.459 413.832 850.643 430.362 836.945C462.044 810.846 493.039 761.175 517.943 721.266C526.851 706.993 535.264 693.511 542.597 682.908C544.11 680.72 545.63 678.52 547.157 676.307C560.951 656.326 575.216 635.662 590.66 616.354C612.835 588.561 646.102 552.676 678.661 539.552C687.745 535.89 696.194 533.896 704.494 533.454C716.058 532.79 726.968 535.561 736.923 541.684C746.011 547.274 754.345 555.676 761.693 566.653C774.162 585.273 781.816 610.658 783.828 640.061C786.111 672.934 782.134 711.11 772.01 753.524C767.365 772.986 761.425 793.244 754.354 813.736C747.582 833.361 739.76 853.255 731.102 872.862L730.465 872.724C768.194 787.284 787.36 702.68 783.051 640.606C781.046 611.33 773.426 586.052 761.012 567.508C745.707 544.642 726.048 533.222 704.159 534.478C695.922 534.917 687.538 536.896 678.525 540.529C646.19 553.563 613.1 589.267 591.035 616.921C575.633 636.178 561.388 656.812 547.612 676.768C546.085 678.98 544.564 681.182 543.051 683.37C535.744 693.934 527.342 707.399 518.448 721.651C493.472 761.675 462.388 811.489 430.502 837.755C422.534 844.357 414.707 849.231 407.243 852.236C399.212 855.468 391.321 856.651 383.79 855.754C378.356 855.1 373.276 853.449 368.496 850.757Z" fill="#A1A1A1"/>
<path d="M373.255 859.734C366.683 856.033 360.786 850.216 355.424 842.185C347.838 830.821 342.38 816.672 337.565 804.191C331.479 788.418 325.976 770.945 321.204 752.263C317.384 737.21 314.14 721.572 311.557 705.788C305.192 666.93 305.338 623.799 305.492 578.135C305.518 570.67 305.543 562.952 305.539 555.347C305.518 528.624 305.164 506.4 303.511 484.808C300.153 441.34 286.366 411.047 262.532 394.767C232.583 374.31 187.633 375.257 128.931 397.58C99.7681 408.671 68.2152 424.631 40.0836 442.525C18.8908 456.006 -1.01053 472.464 -22.0795 489.888C-24.6895 492.047 -27.3091 494.213 -29.9371 496.377C-34.6228 500.242 -40.8089 505.328 -47.0859 510.386C-73.5381 531.734 -103.806 552.005 -127.712 540.451C-128.455 540.087 -129.189 539.7 -129.911 539.294C-147.941 529.141 -159.183 506.05 -170.014 481.237L-170.686 479.681C-176.016 467.328 -181.051 455.661 -186.459 446.187C-206.837 410.485 -227.82 378.219 -243.825 354.098L-243.098 353.185C-227.091 377.313 -206.101 409.586 -185.716 445.303C-180.293 454.801 -175.253 466.483 -169.916 478.851L-169.245 480.406C-158.017 506.127 -146.351 530.001 -127.146 539.399C-103.505 550.823 -73.4798 530.703 -47.2249 509.515C-40.9521 504.462 -34.7715 499.379 -30.0871 495.517C-27.4578 493.35 -24.8409 491.185 -22.2309 489.027C-1.12882 471.576 18.8042 455.09 40.0647 441.567C68.2542 423.635 99.8705 407.642 129.091 396.528C156.211 386.214 180.797 380.414 202.168 379.283C226.688 377.985 247.204 382.851 263.147 393.739C287.105 410.102 300.963 440.545 304.337 484.216C305.992 505.841 306.345 528.087 306.368 554.834C306.374 562.439 306.347 570.16 306.323 577.626C306.168 623.245 306.022 666.334 312.377 705.115C314.955 720.879 318.194 736.492 322.008 751.523C326.772 770.181 332.268 787.627 338.345 803.376C347.883 828.101 359.755 858.871 386.455 863.063C401.05 865.354 416.242 859.506 432.898 845.185C465.274 817.474 496.352 764.074 521.325 721.166C529.473 707.167 537.17 693.942 543.826 683.542L543.978 683.304C558.884 660.017 574.298 635.938 591.346 613.216C606.195 593.386 620.926 576.335 635.131 562.532C651.147 546.97 666.543 535.513 680.892 528.475C690.493 523.766 699.51 520.808 708.457 519.433C732.673 515.643 754.367 525.168 771.193 546.986C777.965 555.767 783.522 566.421 787.714 578.651C791.93 590.953 794.674 604.602 795.874 619.215C798.604 652.188 794.566 690.712 783.87 733.716C774.257 772.37 759.208 814.164 740.349 854.577L739.691 854.39C780.054 767.895 800.231 682.393 795.048 619.808C792.644 590.507 784.15 565.649 770.484 547.933C753.753 526.239 732.201 516.764 708.153 520.53C699.275 521.895 690.331 524.83 680.805 529.5C654.013 542.641 623.229 571.785 591.78 613.781C574.777 636.444 559.385 660.49 544.499 683.743L544.347 683.981C537.715 694.342 530.029 707.548 521.892 721.528C496.842 764.566 465.67 818.127 433.066 846.033C425.036 852.939 417.151 857.98 409.634 861.017C401.529 864.292 393.577 865.347 385.995 864.16C381.482 863.448 377.244 861.98 373.255 859.734Z" fill="#A1A1A1"/>
<path d="M-146.568 574.936C-154.631 570.396 -161.833 562.65 -168.521 551.35C-175.165 540.122 -180.483 526.792 -185.243 514.062C-186.1 511.748 -186.946 509.445 -187.787 507.157C-191.971 495.769 -195.924 485.013 -200.186 475.967C-217.183 439.908 -234.001 406.631 -250.268 374.453L-252.962 369.12L-252.162 368.209L-249.468 373.542C-233.202 405.726 -216.381 439.005 -199.381 475.072C-195.107 484.141 -191.148 494.91 -186.96 506.313C-186.121 508.6 -185.274 510.904 -184.417 513.214C-174.647 539.347 -163.444 565.65 -143.526 575.084C-118.993 586.596 -86.4594 561.829 -60.8603 538.968C-54.309 533.124 -47.8625 527.253 -42.9785 522.792C-40.2853 520.335 -37.6004 517.875 -34.9223 515.422C-12.718 495.087 8.25488 475.878 30.9002 459.384C60.789 437.616 94.7156 417.482 126.43 402.695C155.854 388.977 182.71 380.169 206.253 376.52C233.257 372.334 255.838 374.986 273.368 384.401C299.843 398.397 315.058 428.043 318.586 472.505C320.529 497.173 320.405 522.605 320.028 544.231C319.823 555.999 319.49 567.993 319.169 579.593C318.029 620.657 316.851 663.116 321.275 700.535C323.249 717.253 325.86 733.844 329.034 749.844C332.979 769.615 337.716 788.394 343.118 805.658C351.562 832.641 362.07 866.223 388.708 871.405C403.369 874.258 418.654 868.377 435.436 853.429C468.533 824.041 499.659 766.784 524.667 720.776C532.063 707.171 539.048 694.318 545.056 684.187C558.597 661.347 574.513 634.903 592.034 610.09C606.867 589.058 621.662 570.803 636.005 555.836C652.23 538.905 668.083 525.978 683.123 517.412C693.089 511.735 702.946 507.704 712.42 505.426C725.954 502.149 738.842 502.554 750.727 506.634C761.857 510.453 771.938 517.417 780.691 527.329C788.073 535.69 794.164 546.034 798.794 558.077C803.452 570.195 806.523 583.753 807.919 598.373C809.538 615.214 809.245 633.86 807.048 653.795C804.968 672.682 801.16 692.909 795.732 713.912C785.578 753.205 769.623 795.528 749.596 836.298L748.917 836.061C791.923 748.509 813.11 662.111 807.046 599.017C804.282 570.096 794.664 545 779.962 528.348C761.782 507.759 738.334 500.228 712.154 506.567C702.757 508.826 692.978 512.827 683.091 518.458C654.752 534.598 624.283 565.608 592.53 610.632C575.055 635.376 559.168 661.776 545.649 684.58C539.664 694.675 532.688 707.507 525.303 721.095C512.965 743.792 498.98 769.519 483.814 793.462C466.216 821.246 450.459 841.147 435.64 854.304C427.549 861.512 419.605 866.724 412.033 869.794C403.855 873.112 395.839 874.04 388.211 872.555C384.362 871.807 380.847 870.472 377.627 868.658C358.342 857.799 349.551 829.701 342.281 806.47C336.873 789.18 332.127 770.374 328.178 750.575C324.998 734.552 322.385 717.937 320.408 701.195C315.975 663.7 317.154 621.196 318.294 580.093C318.615 568.497 318.948 556.506 319.154 544.744C319.531 523.145 319.655 497.749 317.715 473.127C314.208 428.903 299.081 399.43 272.758 385.506C231.564 363.383 170.392 383.229 126.327 403.775C94.6752 418.532 60.8189 438.622 30.9922 460.347C8.4145 476.793 -12.5267 495.97 -34.6964 516.274C-37.3745 518.727 -40.0608 521.185 -42.7554 523.646C-47.6421 528.108 -54.0928 533.983 -60.6496 539.834C-71.3959 549.431 -87.5023 563.14 -103.236 571.354C-110.877 575.343 -118.022 577.836 -124.474 578.766C-131.667 579.802 -138.278 578.938 -144.118 576.196C-144.947 575.81 -145.763 575.389 -146.568 574.936Z" fill="#A1A1A1"/>
<path d="M-163.225 610.574C-171.297 606.028 -178.359 598.077 -184.748 586.369C-191.364 574.249 -196.407 559.606 -200.465 546.879C-201.709 542.964 -202.929 539.018 -204.108 535.2C-207.407 524.531 -210.521 514.45 -213.908 505.746C-226.07 474.482 -238.332 443.741 -250.19 414.01C-254.113 404.176 -258.168 394.009 -262.092 384.141L-261.224 383.23C-257.3 393.097 -253.244 403.265 -249.322 413.099C-237.463 442.83 -225.2 473.575 -213.039 504.842C-209.643 513.57 -206.523 523.661 -203.222 534.344C-202.044 538.161 -200.823 542.105 -199.581 546.018C-191.161 572.407 -180.456 601.349 -159.902 610.766C-134.64 622.282 -100.987 594.184 -74.49 568.42C-67.7003 561.821 -60.9698 555.147 -55.8656 550.069C-53.2452 547.464 -50.6316 544.858 -48.0236 542.258C-24.5708 518.874 -2.4199 496.788 21.74 477.205C53.1624 451.735 89.3994 427.465 123.773 408.866C171.545 383.137 238.049 356.39 283.588 375.071C312.6 386.861 329.17 415.704 332.834 460.802C334.477 481.072 334.74 503.533 333.687 533.638C333.155 548.851 332.335 564.467 331.543 579.566C329.482 618.851 327.349 659.472 330.17 695.969C331.535 713.653 333.515 731.219 336.057 748.178C339.141 768.701 343.123 788.812 347.887 807.955C355.272 837.243 364.46 873.697 390.955 879.763C405.439 883.165 421.256 877.083 437.968 861.691C471.821 830.556 504.274 766.705 527.968 720.084C534.618 707 540.898 694.642 546.279 684.85C558.237 663.088 574.32 634.571 592.715 606.981C624.578 559.164 655.745 525.311 685.349 506.368C695.752 499.679 706.192 494.657 716.377 491.438C730.873 486.846 744.744 486.078 757.605 489.158C769.721 492.061 780.682 498.295 790.184 507.688C798.17 515.671 804.787 525.715 809.854 537.539C814.969 549.481 818.369 562.94 819.963 577.545C821.808 594.423 821.611 613.188 819.372 633.319C817.252 652.397 813.287 672.853 807.589 694.124C796.889 734.057 780.031 776.906 758.837 818.037L758.141 817.746C803.801 729.137 825.999 641.839 819.042 578.24C815.895 549.391 805.381 524.724 789.436 508.787C769.699 489.281 744.359 483.694 716.152 492.63C706.05 495.821 695.695 500.804 685.374 507.439C655.966 526.257 624.981 559.922 593.277 607.505C574.931 635.019 558.881 663.48 546.946 685.2C541.585 694.958 535.312 707.3 528.67 720.366C516.422 744.465 502.538 771.781 487.223 797.458C469.388 827.356 453.355 848.663 438.205 862.597C430.041 870.117 422.038 875.506 414.415 878.612C406.151 881.982 398.076 882.777 390.414 880.978C378.496 878.248 369.031 869.341 361.476 853.746C354.91 840.189 350.701 823.5 346.989 808.778C342.216 789.608 338.231 769.468 335.14 748.917C332.595 731.933 330.611 714.343 329.244 696.634C326.417 660.063 328.551 619.397 330.614 580.072C331.408 564.977 332.225 549.369 332.757 534.169C333.807 504.117 333.544 481.698 331.905 461.476C328.267 416.638 311.805 387.972 282.978 376.257C237.634 357.659 171.343 384.33 123.714 409.981C89.4099 428.542 53.2488 452.76 21.8927 478.177C-2.19967 497.705 -24.3188 519.76 -47.7357 543.109C-50.3451 545.711 -52.9587 548.317 -55.5791 550.922C-60.6874 556.004 -67.4235 562.685 -74.22 569.29C-100.952 595.284 -134.921 623.624 -160.53 611.949C-161.439 611.531 -162.339 611.072 -163.225 610.574Z" fill="#A1A1A1"/>
<path d="M-179.834 646.247C-201.89 633.827 -211.429 596.638 -219.885 563.669C-222.484 553.539 -224.938 543.969 -227.636 535.526L-271.226 399.166L-270.296 398.257L-226.706 534.617C-223.999 543.081 -221.542 552.662 -218.94 562.807C-210.158 597.05 -200.202 635.864 -176.284 646.454C-150.315 657.957 -115.529 626.536 -88.1262 597.88C-79.1637 588.508 -70.1898 578.889 -61.51 569.587C-37.7723 544.149 -13.2269 517.843 12.5748 495.025C33.062 476.908 56.0589 458.758 79.0773 442.542C104.33 424.75 129.27 409.425 153.202 396.993C179.589 383.287 204.103 373.462 226.062 367.793C250.35 361.523 271.443 360.379 288.761 364.391C323.452 372.429 343.075 400.925 347.079 449.09C350.409 489.114 346.932 534.33 343.57 578.059C340.643 616.122 337.618 655.477 339.064 691.391C340.736 732.871 345.309 772.858 352.66 810.237C358.852 841.732 366.558 880.931 393.21 888.103C415.718 894.162 440.32 877.087 468.42 835.899C492.323 800.865 513.902 755.491 531.241 719.034C537.15 706.61 542.731 694.874 547.507 685.498C573.832 633.81 598.653 592.88 623.386 560.374C638.817 540.092 654.352 523.015 669.558 509.617C686.544 494.65 703.629 483.821 720.338 477.43C734.794 471.901 748.744 469.828 761.802 471.27C774.232 472.643 785.592 477.155 795.568 484.68C815.187 499.479 828.128 525.056 832.006 556.696C834.08 573.61 833.976 592.494 831.698 612.823C829.538 632.089 825.418 652.777 819.448 674.315C808.201 714.888 790.437 758.265 768.078 799.753L767.366 799.407C814.979 711.057 838.782 620.601 831.036 557.44C822.813 490.365 776.178 457.233 720.147 478.664C664.643 499.894 608.413 567.646 548.242 685.793C543.482 695.139 537.908 706.859 532.007 719.268C514.63 755.804 493.006 801.276 468.994 836.468C455.915 855.637 443.313 869.863 431.536 878.757C424.913 883.755 418.378 887.21 412.114 889.018C405.447 890.942 398.889 891.062 392.62 889.375C390.058 888.686 387.618 887.69 385.301 886.385C376.857 881.631 370.007 872.758 364.496 859.494C358.288 844.55 354.635 825.976 351.7 811.052C344.342 773.619 339.761 733.58 338.086 692.04C336.634 656.049 339.665 616.648 342.594 578.544C345.953 534.872 349.425 489.711 346.103 449.789C342.123 401.951 322.638 373.646 288.186 365.664C218.496 349.517 96.577 421.908 12.7908 496C-12.9404 518.754 -37.4528 545.024 -61.1586 570.429C-69.8426 579.735 -78.8221 589.36 -87.7929 598.741C-105.986 617.765 -120.555 630.519 -133.641 638.873C-141.807 644.086 -149.424 647.532 -156.278 649.115C-163.898 650.874 -170.851 650.399 -176.945 647.702C-177.927 647.262 -178.892 646.777 -179.834 646.247Z" fill="#A1A1A1"/>
</g>
</svg>
