<svg width="670" height="670" viewBox="0 0 670 670" fill="none" xmlns="http://www.w3.org/2000/svg">
<g id="Work Together Image">
<g id="inside-orbit-group">
<path id="inside-orbit" d="M500.145 313.893C500.78 318.617 501.209 323.404 501.424 328.246L500.425 328.29C500.53 330.666 500.583 333.055 500.583 335.456C500.583 337.857 500.53 340.246 500.425 342.621L501.424 342.665C501.209 347.507 500.78 352.295 500.145 357.019L499.154 356.886C498.513 361.649 497.662 366.348 496.609 370.972L497.584 371.194C496.513 375.903 495.234 380.535 493.758 385.08L492.807 384.771C491.326 389.33 489.646 393.801 487.776 398.175L488.696 398.568C486.802 402.997 484.715 407.328 482.445 411.549L481.565 411.076C479.3 415.288 476.852 419.39 474.231 423.373L475.066 423.923C472.424 427.939 469.607 431.834 466.625 435.598L465.841 434.977C462.877 438.719 459.749 442.331 456.469 445.803L457.196 446.49C453.899 449.979 450.448 453.327 446.855 456.523L446.19 455.776C442.628 458.944 438.924 461.963 435.09 464.822L435.688 465.624C431.845 468.489 427.872 471.194 423.778 473.73L423.252 472.879C419.204 475.386 415.038 477.726 410.764 479.889L411.216 480.781C406.945 482.943 402.568 484.928 398.092 486.729L397.719 485.801C393.309 487.575 388.803 489.169 384.212 490.572L384.504 491.528C379.938 492.923 375.288 494.131 370.563 495.143L370.354 494.165C365.718 495.158 361.009 495.961 356.237 496.565L356.363 497.557C351.635 498.155 346.845 498.56 342.002 498.761L341.96 497.762C339.583 497.861 337.193 497.911 334.792 497.911C332.39 497.911 330 497.861 327.623 497.762L327.581 498.761C322.738 498.56 317.948 498.155 313.22 497.557L313.346 496.565C308.574 495.961 303.865 495.158 299.229 494.165L299.02 495.143C294.295 494.131 289.645 492.923 285.079 491.528L285.371 490.572C280.78 489.169 276.274 487.575 271.864 485.801L271.491 486.729C267.015 484.928 262.638 482.943 258.367 480.781L258.819 479.889C254.545 477.726 250.379 475.386 246.331 472.879L245.805 473.73C241.711 471.194 237.738 468.489 233.896 465.624L234.493 464.822C230.659 461.963 226.955 458.944 223.393 455.776L222.728 456.523C219.135 453.327 215.684 449.979 212.387 446.49L213.114 445.803C209.834 442.331 206.706 438.719 203.742 434.977L202.958 435.598C199.976 431.834 197.159 427.939 194.517 423.923L195.352 423.373C192.731 419.39 190.283 415.288 188.018 411.076L187.138 411.549C184.868 407.328 182.781 402.997 180.887 398.568L181.807 398.175C179.937 393.801 178.257 389.329 176.776 384.771L175.825 385.08C174.349 380.535 173.07 375.903 171.999 371.194L172.974 370.972C171.921 366.348 171.07 361.649 170.43 356.885L169.438 357.019C168.803 352.295 168.374 347.507 168.159 342.665L169.158 342.621C169.053 340.245 169 337.857 169 335.456C169 333.055 169.053 330.666 169.158 328.29L168.159 328.246C168.374 323.404 168.803 318.617 169.438 313.893L170.43 314.026C171.07 309.262 171.921 304.563 172.974 299.939L171.999 299.717C173.07 295.009 174.349 290.377 175.825 285.831L176.776 286.14C178.257 281.582 179.937 277.111 181.807 272.737L180.887 272.344C182.781 267.914 184.868 263.583 187.138 259.362L188.018 259.836C190.283 255.624 192.731 251.521 195.352 247.538L194.517 246.989C197.159 242.973 199.976 239.078 202.958 235.314L203.742 235.935C206.706 232.192 209.834 228.58 213.114 225.108L212.387 224.422C215.684 220.933 219.135 217.585 222.728 214.389L223.393 215.136C226.955 211.967 230.659 208.948 234.493 206.089L233.896 205.287C237.738 202.423 241.711 199.717 245.805 197.182L246.331 198.032C250.379 195.525 254.545 193.185 258.819 191.022L258.367 190.13C262.638 187.969 267.015 185.983 271.491 184.183L271.864 185.11C276.274 183.336 280.78 181.743 285.371 180.34L285.079 179.383C289.645 177.988 294.295 176.78 299.02 175.768L299.229 176.746C303.865 175.753 308.574 174.95 313.346 174.347L313.22 173.354C317.948 172.756 322.738 172.352 327.581 172.15L327.623 173.149C330 173.05 332.39 173 334.792 173C337.193 173 339.583 173.05 341.96 173.149L342.002 172.15C346.845 172.352 351.635 172.756 356.363 173.354L356.237 174.347C361.009 174.95 365.718 175.753 370.354 176.746L370.563 175.768C375.288 176.78 379.938 177.988 384.504 179.383L384.212 180.34C388.803 181.743 393.309 183.336 397.719 185.11L398.092 184.183C402.568 185.983 406.945 187.969 411.216 190.13L410.764 191.022C415.038 193.185 419.204 195.525 423.252 198.032L423.778 197.182C427.872 199.717 431.845 202.423 435.688 205.287L435.09 206.089C438.924 208.948 442.628 211.967 446.19 215.136L446.855 214.389C450.448 217.585 453.899 220.933 457.196 224.422L456.469 225.108C459.749 228.58 462.877 232.192 465.841 235.935L466.625 235.314C469.607 239.078 472.424 242.973 475.066 246.989L474.231 247.538C476.852 251.521 479.3 255.624 481.565 259.836L482.445 259.362C484.715 263.583 486.802 267.914 488.696 272.344L487.776 272.737C489.646 277.111 491.326 281.582 492.807 286.14L493.758 285.831C495.234 290.377 496.513 295.009 497.584 299.717L496.609 299.939C497.662 304.563 498.513 309.262 499.154 314.026L500.145 313.893Z" stroke="#A7CEFC" stroke-width="2" stroke-dasharray="15 15"/>
<g id="inside-orbit__circles">
<ellipse id="inside-orbit__circles_blue" cx="500.752" cy="334.566" rx="30.169" ry="29.5656" fill="#37A3FF"/>
<ellipse id="inside-orbit__circles_orange" cx="334.169" cy="498.477" rx="30.169" ry="29.5656" fill="#FFBF60"/>
<ellipse id="inside-orbit__circles_blue_2" cx="167.169" cy="334.566" rx="30.169" ry="29.5656" fill="#37A3FF"/>
<ellipse id="inside-orbit__circles_green" cx="335.031" cy="171.566" rx="30.169" ry="29.5656" fill="#00CA75"/>
</g>
</g>
<g id="mainIcon-group">
<g id="bg-mainIcon" filter="url(#filter0_d_418_18470)">
<rect x="292" y="293" width="86.1972" height="84.4732" rx="10" fill="white"/>
</g>
<g id="mainIcon">
<g id="mainIcon-ears">
<path id="Vector" d="M310.963 319.684V328.339C310.963 330.975 314.291 332.381 316.325 330.536L326.031 321.88C328.157 319.991 326.771 316.652 323.859 316.652H314.153C312.396 316.652 310.963 318.014 310.963 319.684Z" fill="#5986EF"/>
<path id="Vector_2" d="M356.907 316.652H347.2C344.335 316.652 342.902 319.991 345.028 321.88L354.734 330.536C356.768 332.337 360.096 330.975 360.096 328.339V319.684C360.096 318.014 358.663 316.652 356.907 316.652Z" fill="#5986EF"/>
</g>
<path id="mainIcon-arrow" d="M337.725 337.785L354.734 352.986C356.768 354.787 360.096 353.425 360.096 350.789V342.046C360.096 341.212 359.726 340.421 359.079 339.85L337.725 320.738C336.477 319.64 334.582 319.64 333.334 320.738L311.98 339.85C311.333 340.421 310.963 341.212 310.963 342.046V350.789C310.963 353.425 314.291 354.831 316.325 352.986L333.334 337.785C334.582 336.686 336.477 336.686 337.725 337.785Z" fill="#5986EF"/>
</g>
</g>
<g id="outside-orbit-group">
<circle id="outside-orbit" cx="335" cy="335" r="284" stroke="#A7CEFC" stroke-width="2" stroke-dasharray="15 15"/>
<g id="outside-orbit__circles">
<ellipse id="outside-orbit__circle_red" cx="49.5084" cy="329.918" rx="29.5084" ry="28.9182" fill="#FF5758"/>
<ellipse id="outside-orbit__circle_blue" cx="154.169" cy="554.566" rx="30.169" ry="29.5656" fill="#37A3FF"/>
<ellipse id="outside-orbit__circle_blue_2" cx="531.169" cy="128.566" rx="30.169" ry="29.5656" fill="#37A3FF"/>
<ellipse id="outside-orbit__circle_green" cx="619.169" cy="383.566" rx="30.169" ry="29.5656" fill="#00CA75"/>
<ellipse id="outside-orbit__circle_yellow" cx="159.169" cy="113.566" rx="30.169" ry="29.5656" fill="#FFDC4D"/>
</g>
</g>
</g>
<defs>
<filter id="filter0_d_418_18470" x="253" y="258" width="164.197" height="162.473" filterUnits="userSpaceOnUse" color-interpolation-filters="sRGB">
<feFlood flood-opacity="0" result="BackgroundImageFix"/>
<feColorMatrix in="SourceAlpha" type="matrix" values="0 0 0 0 0 0 0 0 0 0 0 0 0 0 0 0 0 0 127 0" result="hardAlpha"/>
<feMorphology radius="11" operator="erode" in="SourceAlpha" result="effect1_dropShadow_418_18470"/>
<feOffset dy="4"/>
<feGaussianBlur stdDeviation="25"/>
<feComposite in2="hardAlpha" operator="out"/>
<feColorMatrix type="matrix" values="0 0 0 0 0 0 0 0 0 0 0 0 0 0 0 0 0 0 0.25 0"/>
<feBlend mode="normal" in2="BackgroundImageFix" result="effect1_dropShadow_418_18470"/>
<feBlend mode="normal" in="SourceGraphic" in2="effect1_dropShadow_418_18470" result="shape"/>
</filter>
</defs>
</svg>
